<svg xmlns="http://www.w3.org/2000/svg" viewBox="0 0 500 500" enable-background="new 0 0 500 500"><polygon fill="#F8951D" points="378.8,331.6 143.3,331.3 78.5,386.3 443.5,386.3"/><polygon opacity=".1" points="282.6,345.7 239.6,345.7 212.4,385.7 301.4,385.6"/><rect x="102.7" y="386.3" fill="#FFFFA4" width="307.5" height="106.6"/><g fill="#5ABA47"><circle cx="198.7" cy="487.4" r="7.6"/><rect x="183.9" y="487" width="14.8" height="8"/><circle cx="183.9" cy="479.8" r="15.2"/><circle cx="168.7" cy="483.5" r="11.5"/><rect x="168.7" y="487" width="14.8" height="8"/></g><g fill="#5ABA47"><circle cx="422.5" cy="487.4" r="7.6"/><rect x="407.7" y="487" width="14.8" height="8"/><circle cx="407.7" cy="479.8" r="15.2"/><circle cx="392.4" cy="483.5" r="11.5"/><rect x="392.4" y="487" width="14.8" height="8"/></g><rect x="78.4" y="492.8" opacity=".1" width="365" height="2.1"/><polygon fill="#F8951D" points="281.5,349.1 240.3,349.1 210,398.6 309.2,398.5"/><rect x="130.1" y="408.6" fill="#D37728" width="67.3" height="44.7"/><rect x="133.6" y="412.2" fill="#8DD0BA" width="60.2" height="37.6"/><rect x="162.8" y="411.1" fill="#D37728" width="2.8" height="42.2"/><polygon opacity=".1" points="194.1,456.6 128.4,453 126.5,456.6 126.5,463.5 129.7,467.7 194.1,467.7"/><rect x="128.2" y="453" fill="#FCF9C3" width="69.6" height="10.4"/><rect x="321.8" y="408.6" fill="#D37728" width="67.3" height="44.7"/><rect x="325.3" y="412.2" fill="#8DD0BA" width="60.2" height="37.6"/><rect x="354.6" y="411.1" fill="#D37728" width="2.8" height="42.2"/><polygon opacity=".1" points="385.8,456.6 320.1,453 318.2,456.6 318.2,463.5 321.4,467.7 385.8,467.7"/><rect x="319.9" y="453" fill="#FCF9C3" width="69.6" height="10.4"/><rect x="223.2" y="397.6" opacity=".1" width="76.7" height="93.4"/><rect x="223.2" y="398.7" opacity=".1" width="76.7" height="4.9"/><rect x="240.3" y="411.3" fill="#F8951D" width="41.2" height="81.1"/><rect x="242.8" y="414.4" fill="#D37728" width="36.2" height="78"/><circle fill="#BCBBAC" cx="274.5" cy="456" r="2.3"/><rect x="217.1" y="491" fill="#FCF9C3" width="88.6" height="7"/></svg>