<svg xmlns="http://www.w3.org/2000/svg" viewBox="-200 -200 500 500" enable-background="new -200 -200 500 500"><polygon fill="#F8951D" points="181.9,27.5 -82.7,27.2 -155.6,88.9 254.4,88.9"/><rect x="-135.1" y="88.9" fill="#FFFFA4" width="364.5" height="93.6"/><rect x="-98.3" y="107.7" fill="#D37728" width="56.4" height="37.5"/><rect x="-95.2" y="110.6" fill="#8DD0BA" width="50.4" height="31.5"/><rect x="-70.7" y="109.8" fill="#D37728" width="2.3" height="35.4"/><polygon opacity=".1" enable-background="new" points="-44.6,147.9 -99.7,144.9 -101.2,147.9 -101.2,153.6 -98.5,157.2 -44.6,157.2"/><rect x="-99.8" y="144.9" fill="#FCF9C3" width="58.4" height="8.7"/><rect x="18.6" y="107.7" fill="#D37728" width="56.4" height="37.5"/><rect x="21.6" y="110.6" fill="#8DD0BA" width="50.4" height="31.5"/><rect x="46.1" y="109.8" fill="#D37728" width="2.3" height="35.4"/><polygon opacity=".1" enable-background="new" points="72.3,147.9 17.3,144.9 15.7,147.9 15.7,153.6 18.3,157.2 72.3,157.2"/><rect x="17" y="144.9" fill="#FCF9C3" width="58.4" height="8.7"/><rect x="148.5" y="107.7" fill="#D37728" width="56.4" height="37.5"/><rect x="151.5" y="110.6" fill="#8DD0BA" width="50.4" height="31.5"/><rect x="175.9" y="109.8" fill="#D37728" width="2.3" height="35.4"/><polygon opacity=".1" enable-background="new" points="202.1,147.9 147.1,144.9 145.5,147.9 145.5,153.6 148.2,157.2 202.1,157.2"/><rect x="146.8" y="144.9" fill="#FCF9C3" width="58.4" height="8.7"/><rect x="-13.2" y="181" fill="#FFFFA4" width="122.1" height="115"/><rect x="107.3" y="181" fill="#FFFFA4" width="122.1" height="115"/><rect x="-135.1" y="181" fill="#FFFFA4" width="122.1" height="115"/><polygon opacity=".1" enable-background="new" points="80.1,297.8 15.9,297.7 15.9,216.5 80.1,216.5"/><polygon opacity=".1" enable-background="new" points="80.1,297.8 15.9,297.7 15.9,216.5 80.1,216.5"/><rect x="15.9" y="216.5" opacity=".1" enable-background="new" width="64.3" height="3.7"/><rect x="30.2" y="227.2" fill="#F8951D" width="34.5" height="67.9"/><rect x="32.2" y="229.8" fill="#D37728" width="30.3" height="65.4"/><circle fill="#BCBBAC" cx="58.8" cy="264.6" r="1.9"/><rect x="10.7" y="293.9" fill="#FCF9C3" width="74.2" height="5.8"/><rect x="-125.9" y="216.8" fill="#D37728" width="130.8" height="80.7"/><rect x="-125.9" y="220.6" opacity=".1" enable-background="new" width="130.8" height="1.1"/><rect x="-125.9" y="225.1" opacity=".1" enable-background="new" width="130.8" height="1.1"/><rect x="-125.9" y="229.6" opacity=".1" enable-background="new" width="130.8" height="1.1"/><rect x="-125.9" y="234" opacity=".1" enable-background="new" width="130.8" height="1.1"/><rect x="-125.9" y="238.6" opacity=".1" enable-background="new" width="130.8" height="1.1"/><rect x="-125.9" y="243.1" opacity=".1" enable-background="new" width="130.8" height="1.1"/><rect x="-125.9" y="247.6" opacity=".1" enable-background="new" width="130.8" height="1.1"/><rect x="-125.9" y="252.1" opacity=".1" enable-background="new" width="130.8" height="1.1"/><rect x="-125.9" y="256.6" opacity=".1" enable-background="new" width="130.8" height="1.1"/><rect x="-125.9" y="261" opacity=".1" enable-background="new" width="130.8" height="1.1"/><rect x="-125.9" y="265.6" opacity=".1" enable-background="new" width="130.8" height="1.1"/><rect x="-125.9" y="270" opacity=".1" enable-background="new" width="130.8" height="1.1"/><rect x="-125.9" y="274.5" opacity=".1" enable-background="new" width="130.8" height="1.1"/><rect x="-125.9" y="279" opacity=".1" enable-background="new" width="130.8" height="1.1"/><rect x="-125.9" y="283.5" opacity=".1" enable-background="new" width="130.8" height="1.1"/><rect x="-125.9" y="288.1" opacity=".1" enable-background="new" width="130.8" height="1.1"/><rect x="-125.9" y="292.5" opacity=".1" enable-background="new" width="130.8" height="1.1"/><g fill="#5ABA47"><circle cx="204.8" cy="294.4" r="6.4"/><rect x="192.5" y="294" width="12.4" height="6.7"/><circle cx="192.5" cy="288.1" r="12.7"/><circle cx="179.7" cy="291.1" r="9.7"/><rect x="179.7" y="294" width="12.4" height="6.7"/></g><g fill="#5ABA47"><circle cx="-111.7" cy="293.4" r="6.4"/><rect x="-124.1" y="293.1" width="12.4" height="6.7"/><circle cx="-124.1" cy="287" r="12.7"/><circle cx="-136.9" cy="290.2" r="9.7"/><rect x="-136.9" y="293.1" width="12.4" height="6.7"/></g><polygon opacity=".1" enable-background="new" points="67.1,186.4 31,186.4 8.2,206.7 82.8,206.6"/><polygon fill="#F8951D" points="66.2,189.3 31.6,189.3 6.1,217.6 89.4,217.5"/><rect x="17.3" y="217.6" opacity=".1" enable-background="new" width="64.3" height="4.1"/><rect x="-135.1" y="88.9" opacity=".1" enable-background="new" width="364.5" height="7"/><rect x="107.4" y="214.9" fill="#D37728" width="56.4" height="37.5"/><rect x="110.4" y="217.9" fill="#8DD0BA" width="50.4" height="31.5"/><rect x="134.9" y="217" fill="#D37728" width="2.3" height="35.4"/><polygon opacity=".1" enable-background="new" points="219,255.1 106,252.1 104.3,255.1 104.3,260.9 107,264.5 219,264.5"/><rect x="105.8" y="252.1" fill="#FCF9C3" width="58.4" height="8.7"/><rect x="162.5" y="214.9" fill="#D37728" width="56.4" height="37.5"/><rect x="165.5" y="217.9" fill="#8DD0BA" width="50.4" height="31.5"/><rect x="189.9" y="217" fill="#D37728" width="2.3" height="35.4"/><rect x="160.8" y="252.1" fill="#FCF9C3" width="58.4" height="8.7"/></svg>