<svg xmlns="http://www.w3.org/2000/svg" viewBox="0 0 500 500" enable-background="new 0 0 500 500"><g fill="#FFFFA4"><rect x="153.6" y="391.3" width="102.5" height="106.6"/><rect x="256.1" y="391.3" width="102.5" height="106.6"/></g><g fill="#5ABA47"><circle cx="249.6" cy="492.4" r="7.6"/><rect x="234.8" y="492" width="14.8" height="8"/><circle cx="234.8" cy="484.8" r="15.2"/><circle cx="219.6" cy="488.5" r="11.5"/><rect x="219.6" y="492" width="14.8" height="8"/></g><rect x="129.3" y="497.9" opacity=".1" width="253.1" height="2.1"/><rect x="256.1" y="402.2" opacity=".1" width="90.8" height="95.6"/><rect x="262.8" y="416.4" fill="#F8951D" width="41.2" height="81.1"/><rect x="265.3" y="419.5" fill="#D37728" width="36.2" height="78"/><circle fill="#BCBBAC" cx="297" cy="461" r="2.3"/><polygon fill="#F8951D" points="317.9,329 194.2,328.8 129.3,391.3 382.5,391.3"/><rect x="153.7" y="391.8" opacity=".1" width="204.9" height="3.8"/><rect x="170.7" y="413.6" fill="#D37728" width="67.3" height="44.7"/><rect x="174.2" y="417.2" fill="#8DD0BA" width="60.2" height="37.6"/><rect x="203.4" y="416.2" fill="#D37728" width="2.8" height="42.2"/><polygon opacity=".1" points="234.7,461.6 169,458 167.1,461.6 167.1,468.5 170.3,472.7 234.7,472.7"/><rect x="168.8" y="458" fill="#FCF9C3" width="69.6" height="10.4"/><rect x="308.5" y="416.7" fill="#D37728" width="32.8" height="36.9"/><rect x="310.9" y="419.1" fill="#8DD0BA" width="28" height="32.2"/><rect x="324" y="418.4" fill="#D37728" width="1.9" height="35.2"/><rect x="324" y="418.4" fill="#D37728" width="1.9" height="35.2"/><rect x="256.1" y="402.2" opacity=".1" width="90.8" height="4.1"/></svg>