<svg xmlns="http://www.w3.org/2000/svg" viewBox="0 0 256 256" enable-background="new 0 0 256 256"><path fill="#EF9E9E" d="M59.3 52.7l-58.3 63.6 26.2 82.3c.5 1.6 1.6 2.8 3 3.5h.1c.6.3 1.3.5 2 .6h1.2000000000000002c.4 0 .7-.1 1.1-.2l117.4-37.3c1.6-.5 2.8-1.6 3.5-3 .2-.5.4-.9.5-1.4 0-.1.1-.2.1-.4l.1-.4c.1-.8 0-1.6-.3-2.4l-37.1-117.5c-.1-.4-.3-.7-.5-1.1-.1-.3-.3-.5-.5-.8l-.1-.2v-.1c-.2-.3-.5-.5-.8-.7l-.9-.6c-1.4-.8-3.1-1-4.7-.5l-52 16.6z"/><path fill="#EF9E9E" d="M34.8 202.5z"/><path fill="#EF9E9E" d="M32.7 202.7h.9c-.3.1-.6 0-.9 0z"/><path fill="#EF9E9E" d="M30.2 202.1c.7.4 1.5.6 2.3.6-.9 0-1.6-.3-2.3-.6z"/><path fill="#EF9E9E" d="M33.6 202.7z"/><polygon fill="#EF9E9E" points="42.9,199.9 38.9,201.2 38.9,201.2 46.3,198.8 42.9,199.9"/><polygon fill="#EF9E9E" points="152.2,165.1 152.2,165.1 152.2,165.1"/><polygon fill="#EF9E9E" points="144.1,167.7 144.1,167.7 148.2,166.4 148.1,166.4"/><polygon fill="#EF9E9E" points="55.1,196 55.1,196 52,197 47,198.6 47,198.6 59.1,194.7 59.1,194.7"/><polygon fill="#EF9E9E" points="71.3,190.9 71.3,190.9 70.7,191 75.3,189.6 75.3,189.6"/><polygon fill="#EF9E9E" points="87.4,185.7 87.4,185.7 83.3,187 83.3,187 79.4,188.3 79.4,188.3 78.6,188.5 91.4,184.4 91.4,184.4"/><polygon fill="#fff" points="67.2,192.2 70.7,191 67.2,192.2"/><polygon fill="#fff" points="75.3,189.6 78.6,188.5 75.3,189.6"/><polygon fill="#fff" points="47,198.6 47,198.6 46.3,198.8"/><polygon fill="#fff" points="152.2,165.1 152.2,165.1 148.2,166.4"/><polygon fill="#fff" points="80,106.1 62.6,51.6 59.3,52.7 58.7,53.4 77.2,111.6"/><polygon fill="#fff" points="103.1,38.8 99,40.1 104.8,58.2 107.6,52.8"/><polygon fill="#fff" points="95,41.4 90.9,42.7 99.2,68.9 102,63.5"/><polygon fill="#fff" points="63.4,138.1 42.2,71.4 38.8,75.1 60.6,143.5"/><polygon fill="#fff" points="68.9,127.5 48.8,64.2 45.4,67.8 66.1,132.9"/><polygon fill="#fff" points="46.9,170.1 22.3,93.1 19,96.7 44.1,175.5"/><polygon fill="#fff" points="57.9,148.8 35.6,78.6 32.2,82.3 55.1,154.2"/><polygon fill="#fff" points="35.8,191.5 9.1,107.5 5.8,111.2 33,196.9"/><polygon fill="#fff" points="55.1,196 55.1,196 52,197"/><polygon fill="#fff" points="91,84.8 78.8,46.5 74.7,47.8 88.2,90.2"/><polygon fill="#fff" points="96.5,74.1 86.9,43.9 82.8,45.2 93.7,79.6"/><path fill="#fff" d="M111.3 36.5c-.6 0-1.3 0-1.9.3l-2.3.7 3.2 10 2.8-5.4-1.8-5.6z"/><polygon fill="#fff" points="41.3,180.8 15.7,100.3 12.4,103.9 38.5,186.2"/><polygon fill="#fff" points="74.4,116.8 55.4,57 52.1,60.6 71.6,122.2"/><polygon fill="#fff" points="70.7,49.1 66.6,50.4 82.7,100.9 85.5,95.5"/><polygon fill="#fff" points="71.3,190.9 67.2,192.2 67.2,192.2 70.7,191 71.3,190.9"/><polygon fill="#fff" points="79.4,188.3 75.3,189.6 75.3,189.6 78.6,188.5 79.4,188.3"/><polygon fill="#fff" points="52.4,159.5 29,85.8 25.6,89.5 49.6,164.9"/><polygon fill="#fff" points="42.9,199.9 42.9,199.9 46.3,198.8 47,198.6 47,198.6"/><polygon fill="#fff" points="148.1,166.4 148.2,166.4 152.2,165.1 152.2,165.1"/><path fill="#EF9E9E" d="M156.4 158.8c0-.4-.1-.8-.3-1.2l-37.3-117.5 37.4 117.5.2 1.2z"/><path fill="#EF9E9E" d="M32.7 202.7h.9c-.3.1-.6 0-.9 0z"/><path fill="#EF9E9E" d="M155.7 162.2c.4-.7.6-1.4.6-2.2v-1.2c.2 1.1 0 2.3-.6 3.4z"/><path fill="#EF9E9E" d="M117.8 38.3c.2.2.4.5.5.7-.1-.3-.3-.5-.5-.7z"/><path fill="#EF9E9E" d="M30.3 202.1l.8-1.5c-2-.4-3.8-1.9-4.4-4l.6 1.9c.5 1.6 1.6 2.8 3 3.5.7.4 1.5.6 2.3.6-.9.1-1.6-.1-2.3-.5z"/><path fill="#EF9E9E" d="M111.2 36.2l.1.3c1.5 0 2.8.6 3.9 1.6l.8-1.5c.7.4 1.2.8 1.7 1.4v-.1c-1.6-1.7-4.1-2.5-6.5-1.7l-1.8.6 1.8-.6z"/><path fill="#fff" d="M111.3 36.5l-.1-.3-1.8.6c.6-.2 1.3-.3 1.9-.3z"/><polygon fill="#EF9E9E" points="42.3,197.9 38.5,186.2 35.8,191.5 38.3,199.2"/><polygon fill="#EF9E9E" points="50.4,195.4 44.1,175.5 41.3,180.8 46.4,196.6"/><polygon fill="#EF9E9E" points="66.5,190.2 55.1,154.2 52.4,159.5 62.5,191.5"/><polygon fill="#EF9E9E" points="74.6,187.6 60.6,143.5 57.9,148.8 70.6,188.9"/><polygon fill="#EF9E9E" points="58.4,192.8 49.6,164.9 46.9,170.1 54.5,194"/><path fill="#EF9E9E" d="M34 200.5h.1l-1.2-3.6-2 3.8c1.1.2 2.1.2 3.1-.2z"/><path fill="#EF9E9E" d="M33.6 202.7c.4 0 .7-.1 1.1-.2-.3.1-.7.2-1.1.2z"/><path fill="#EF9E9E" d="M32.4 202.7h0z"/><polygon fill="#EF9E9E" points="90.8,182.5 71.6,122.2 68.9,127.5 86.8,183.8"/><polygon fill="#EF9E9E" points="147.5,164.5 110.3,47.6 107.6,52.8 143.5,165.7"/><polygon fill="#EF9E9E" points="139.4,167 104.8,58.2 102,63.5 135.4,168.3"/><polygon fill="#EF9E9E" points="115.1,174.8 88.2,90.2 85.5,95.5 111.1,176"/><polygon fill="#EF9E9E" points="123.2,172.2 93.7,79.6 91,84.8 119.2,173.5"/><polygon fill="#EF9E9E" points="107,177.3 82.7,100.9 80,106.1 103,178.6"/><path fill="#EF9E9E" d="M151.5 162.8c2-1.5 2.9-4.1 2.1-6.5l-36.8-115.7c-.3-1-.9-1.8-1.6-2.5l-2.1 4 38.4 120.7z"/><polygon fill="#EF9E9E" points="82.7,185.1 66.1,132.9 63.4,138.1 78.7,186.3"/><polygon fill="#EF9E9E" points="131.3,169.6 99.2,68.9 96.5,74.1 127.3,170.9"/><polygon fill="#EF9E9E" points="98.9,179.9 77.2,111.6 74.4,116.8 94.9,181.2"/><polygon fill="#fff" points="143.5,165.7 107.6,52.8 104.8,58.2 139.4,167"/><polygon fill="#fff" points="94.9,181.2 74.4,116.8 71.6,122.2 90.8,182.5"/><polygon fill="#fff" points="119.2,173.5 91,84.8 88.2,90.2 115.1,174.8"/><polygon fill="#fff" points="103,178.6 80,106.1 77.2,111.6 98.9,179.9"/><polygon fill="#fff" points="111.1,176 85.5,95.5 82.7,100.9 107,177.3"/><polygon fill="#fff" points="135.4,168.3 102,63.5 99.2,68.9 131.3,169.6"/><path fill="#fff" d="M149.7 163.8c.6-.2 1.2-.5 1.7-.9l-38.3-120.8-2.8 5.4 37.2 116.9 2.2-.6z"/><polygon fill="#fff" points="127.3,170.9 96.5,74.1 93.7,79.6 123.2,172.2"/><polygon fill="#fff" points="54.5,194 46.9,170.1 44.1,175.5 50.4,195.4"/><polygon fill="#fff" points="46.4,196.6 41.3,180.8 38.5,186.2 42.3,197.9"/><polygon fill="#fff" points="38.3,199.2 35.8,191.5 33,196.9 34.2,200.5"/><polygon fill="#fff" points="86.8,183.8 68.9,127.5 66.1,132.9 82.7,185.1"/><polygon fill="#fff" points="70.6,188.9 57.9,148.8 55.1,154.2 66.5,190.2"/><polygon fill="#fff" points="78.7,186.3 63.4,138.1 60.6,143.5 74.6,187.6"/><polygon fill="#fff" points="62.5,191.5 52.4,159.5 49.6,164.9 58.4,192.8"/><rect x="88.1" y="182" transform="matrix(-.303 -.953 .953 -.303 -59.304 324.831)" fill="#EF9E9E" width="2.1" height="4.2"/><rect x="80" y="184.6" transform="matrix(-.303 -.953 .953 -.303 -72.301 320.472)" fill="#EF9E9E" width="2.1" height="4.2"/><rect x="71.9" y="187.2" transform="matrix(-.303 -.953 .953 -.303 -85.298 316.114)" fill="#EF9E9E" width="2.1" height="4.2"/><rect x="55.7" y="192.3" transform="matrix(-.303 -.953 .953 -.303 -111.288 307.402)" fill="#EF9E9E" width="2.1" height="4.2"/><rect x="63.8" y="189.7" transform="matrix(-.303 -.953 .953 -.303 -98.295 311.755)" fill="#EF9E9E" width="2.1" height="4.2"/><path fill="#EF9E9E" d="M32.4 202.7h1.1c.4 0 .8-.1 1.2-.2l-.6-2h-.1c-1 .3-2 .3-3 .1l-.8 1.5c.8.4 1.5.6 2.2.6z"/><rect x="96.2" y="179.4" transform="matrix(-.303 -.953 .953 -.303 -46.298 329.197)" fill="#EF9E9E" width="2.1" height="4.2"/><polygon fill="#EF9E9E" points="147.5,164.5 143.5,165.7 144.1,167.7 148.1,166.4 148.1,166.4"/><path fill="#EF9E9E" d="M156.1 157.6l-37.3-117.5c-.1-.4-.3-.8-.5-1.1-.1-.3-.3-.5-.5-.7l-.1-.2c-.5-.6-1.1-1.1-1.7-1.4l-.8 1.5c.7.7 1.3 1.5 1.6 2.5l36.8 115.7c.8 2.5-.1 5.1-2.1 6.5l.7 2.3c1.6-.5 2.8-1.6 3.5-3 .5-1 .8-2.2.6-3.4 0-.4 0-.8-.2-1.2z"/><rect x="104.3" y="176.9" transform="matrix(-.303 -.953 .953 -.303 -33.31 333.548)" fill="#EF9E9E" width="2.1" height="4.2"/><rect x="136.7" y="166.6" transform="matrix(-.303 -.953 .953 -.303 18.678 350.982)" fill="#EF9E9E" width="2.1" height="4.2"/><rect x="112.4" y="174.3" transform="matrix(-.303 -.953 .953 -.303 -20.313 337.906)" fill="#EF9E9E" width="2.1" height="4.2"/><rect x="39.5" y="197.4" transform="matrix(-.303 -.953 .953 -.303 -137.282 298.685)" fill="#EF9E9E" width="2.1" height="4.2"/><rect x="128.6" y="169.1" transform="matrix(-.303 -.953 .953 -.303 5.681 346.623)" fill="#EF9E9E" width="2.1" height="4.2"/><rect x="120.5" y="171.7" transform="matrix(-.303 -.953 .953 -.303 -7.316 342.265)" fill="#EF9E9E" width="2.1" height="4.2"/><polygon fill="#EF9E9E" points="50.4,195.4 46.4,196.6 47,198.6 52,197 51,197.3"/><rect x="116.4" y="172.9" transform="matrix(-.303 -.953 .953 -.303 -13.814 340.086)" fill="#fff" width="2.1" height="4.3"/><rect x="108.3" y="175.5" transform="matrix(-.303 -.953 .953 -.303 -26.811 335.727)" fill="#fff" width="2.1" height="4.3"/><rect x="43.6" y="196.1" transform="matrix(-.303 -.953 .953 -.303 -130.784 300.864)" fill="#fff" width="2.1" height="4.3"/><rect x="92.1" y="180.7" transform="matrix(-.303 -.953 .953 -.303 -52.805 327.01)" fill="#fff" width="2.1" height="4.3"/><rect x="35.5" y="198.7" transform="matrix(-.303 -.953 .953 -.303 -143.784 296.5)" fill="#fff" width="2.1" height="4.3"/><rect x="100.2" y="178.1" transform="matrix(-.303 -.953 .953 -.303 -39.808 331.369)" fill="#fff" width="2.1" height="4.3"/><rect x="140.7" y="165.2" transform="matrix(-.303 -.953 .953 -.303 25.176 353.161)" fill="#fff" width="2.1" height="4.3"/><rect x="132.6" y="167.8" transform="matrix(-.303 -.953 .953 -.303 12.179 348.803)" fill="#fff" width="2.1" height="4.3"/><polygon fill="#fff" points="50.4,195.4 51,197.3 52,197 55.1,196 54.5,194"/><rect x="59.8" y="191" transform="matrix(-.303 -.953 .953 -.303 -104.793 309.576)" fill="#fff" width="2.1" height="4.3"/><path fill="#fff" d="M147.5 164.5l.6 2 4.1-1.3-.7-2.3c-.5.4-1.1.7-1.7.9l-2.3.7z"/><rect x="124.5" y="170.4" transform="matrix(-.303 -.953 .953 -.303 -.817 344.444)" fill="#fff" width="2.1" height="4.3"/><rect x="84.1" y="183.2" transform="matrix(-.303 -.953 .953 -.303 -65.802 322.651)" fill="#fff" width="2.1" height="4.3"/><rect x="67.9" y="188.4" transform="matrix(-.303 -.953 .953 -.303 -91.796 313.934)" fill="#fff" width="2.1" height="4.3"/><rect x="76" y="185.8" transform="matrix(-.303 -.953 .953 -.303 -78.799 318.293)" fill="#fff" width="2.1" height="4.3"/><path opacity=".1" d="M152.2 165.1c1.6-.5 2.8-1.6 3.6-3 .2-.5.4-.9.5-1.4 0-.1.1-.2.1-.4l.1-.4c.1-.8 0-1.6-.3-2.4l-37.4-117.4c-.1-.4-.3-.7-.5-1.1-.1-.3-.3-.5-.5-.8l-.1-.2c-.5-.6-1.1-1.1-1.7-1.4l-.8 1.5-84.1 162.6-.8 1.5c.7.3 1.4.5 2.2.6h1.1c.4 0 .7-.1 1.1-.2l117.5-37.5z"/><path opacity=".1" d="M149.7 163.8c.6-.2 1.2-.5 1.7-.9 2-1.5 2.9-4.1 2.1-6.5l-36.7-115.8c-.3-1-.9-1.8-1.6-2.5-1-1-2.4-1.5-3.9-1.6l-.1-.3-1.8.6 1.9-.6c1.6-.5 3.3-.3 4.7.5l.9.6.8.7v.1l.1.2c.2.2.4.5.5.7.2.3.4.7.5 1.1l37.4 117.5.3 1.2c.1 1.2-.1 2.4-.6 3.4-.7 1.4-1.9 2.5-3.5 3l-117.6 37.3c-.4.1-.8.2-1.2.2h-1.1c-.7-.1-1.5-.3-2.1-.6h-.1c-1.4-.7-2.5-1.9-3-3.5l-.6-1.9c.7 2.1 2.4 3.6 4.4 4l118.6-36.9z"/><line opacity=".1" x1="37.8" y1="48.3" x2="37.8" y2="48.3"/><path opacity=".1" d="M59.3 52.7l-58.3 63.6 2.4 6.3 33.2 7.7c4.1.9 8.1-1.7 9-5.7l16.1-72.7-2.4.8z"/><path fill="#EF9E9E" d="M1.2 116.2l36 8.1c3.2.7 6.5-1.3 7.2-4.6l15-67.1-58.2 63.6z"/><polygon fill="#fff" points="58.8,53.2 59.4,52.6 59.3,53.3"/><g fill="#fff"><polygon points="47.2,107.1 47.1,107.5 46.3,111.3 12.5,103.8 15.9,100.1 47.2,107.1"/><polygon points="52.8,82.3 51.9,86.1 51.8,86.5 32.4,82.1 35.7,78.5 52.8,82.3"/><polygon points="57.9,59.5 57.4,61.6 52.2,60.5 55.6,56.8 58.3,57.4 58.3,57.4"/><polygon points="50.9,90.6 50.3,93.4 50,94.8 25.7,89.3 29.1,85.7 50.9,90.6"/><polygon points="45.4,115.4 45.4,115.5 44.4,119.6 5.9,111 9.3,107.3 45.4,115.4"/><polygon points="55.6,69.9 45.6,67.7 48.9,64 56.5,65.7"/><polygon points="48.1,103.1 19.1,96.6 22.5,92.9 49.1,98.9"/><polygon points="53.7,78.2 39,74.9 42.3,71.2 54.6,74"/></g><path fill="#5BC2EF" d="M215.8 168.3l34.9-118.2c.9-3.2-.9-6.5-4.1-7.5l-118.2-34.9c-3.2-.9-6.5.9-7.5 4.1l-34.9 118.2c-.9 3.2.9 6.5 4.1 7.5l118.2 34.9c3.2.9 6.6-.9 7.5-4.1z"/><path fill="#fff" d="M122.7 147.1l4.1 1.2 38.3-129.8-4.1-1.2-38.3 129.8zm8.2 2.4l4.1 1.2 38.3-129.7-4.1-1.2-38.3 129.7zm8.1 2.4l4.1 1.2 38.3-129.8-4.1-1.2-38.3 129.8zm8.1 2.4l4.1 1.2 38.3-129.8-4.1-1.2-38.3 129.8zm-57-16.8l4.1 1.2 38.3-129.8-4.1-1.2-38.3 129.8zm24.5 7.2l4.1 1.2 38.3-129.8-4.1-1.2-38.3 129.8zm-16.3-4.8l4.1 1.2 38.3-129.8-4.1-1.2-38.3 129.8zm8.1 2.4l4.1 1.2 38.3-129.8-4.1-1.2-38.3 129.8zm81.5 24l4.1 1.2 38.3-129.8-4.1-1.2-38.3 129.8zm8.1 2.4l4.1 1.2 38.3-129.8-4.1-1.2-38.3 129.8zm46.4-127.3l-38.3 129.8 4.1 1.2 38.3-129.8-4.1-1.2zm-70.8 120.1l4.1 1.2 38.3-129.7-4.1-1.2-38.3 129.7zm-8.2-2.4l4.1 1.2 38.3-129.8-4.1-1.2-38.3 129.8zm-8.1-2.4l4.1 1.2 38.3-129.8-4.1-1.2-38.3 129.8zm24.4 7.2l4.1 1.2 38.3-129.8-4.1-1.2-38.3 129.8z"/><path opacity=".1" d="M246.6 42.6l-1.9-.6c3.1.9 4.9 4.2 4 7.4l-34.3 116.4c-.9 3.1-4.2 4.9-7.4 4l-116.4-34.3c-3.1-.9-4.9-4.2-4-7.4l-.6 1.9c-.9 3.2.9 6.5 4.1 7.5l118.2 34.9c3.2.9 6.5-.9 7.5-4.1l34.9-118.2c.9-3.2-.9-6.6-4.1-7.5z"/><path opacity=".1" d="M90.1 137.5l118.2 34.9c3.2.9 6.5-.9 7.5-4.1l34.9-118.2c.5-1.5.3-3.1-.4-4.5l-163.7 89.1c.7 1.3 2 2.3 3.5 2.8z"/><polygon fill="#9C9A94" points="81.8,158.1 12.4,9.1 68,13.7 126.7,139.7"/><g opacity=".25"><polygon points="18.4,21.9 15.7,16.1 70.1,18.4 72.9,24.2"/><polygon points="23.9,33.8 21.3,28.2 74.9,28.6 77.6,34.3"/><polygon points="29.5,45.8 26.9,40.2 79.7,38.8 82.2,44.3"/><polygon points="35,57.7 32.5,52.2 84.4,49 86.9,54.4"/><polygon points="40.6,69.6 38.1,64.3 89.2,59.2 91.6,64.5"/><polygon points="46.1,81.5 43.7,76.3 93.9,69.4 96.3,74.6"/><polygon points="51.7,93.4 49.3,88.4 98.7,79.6 101,84.6"/><polygon points="57.2,105.3 54.9,100.4 103.4,89.8 105.7,94.7"/><polygon points="62.8,117.2 60.5,112.5 108.2,100.1 110.4,104.8"/><polygon points="68.3,129.1 66.2,124.5 113,110.3 115.1,114.9"/><polygon points="73.9,141 71.8,136.6 117.7,120.5 119.8,124.9"/><polygon points="79.4,153 77.4,148.6 122.5,130.7 124.5,135"/></g><polygon opacity=".1" points="112.7,145.4 126.7,139.8 68,13.8 36.3,11.1"/><path fill="#F5D9B8" d="M244.4 248.1l6.8-6.4c2.3-2.2 2.4-5.8.3-8.1l-86.6-92.9.1-.1-31.8-33.9c-12.4-13.2-22.7-28.4-30.4-44.9l-21.3-44.9c-1.9-4.2-9.4-11.4-13.6-9.4l-6.8 3.2 64.2 136.9 6.8-3.2c4.2-1.9 5.9-6.9 4-11 0 0-2.2-6.3.9-3.9 2.6 2.1 1.8.6 18.8 21.2l80.2 96.9c2.2 2.5 6 2.8 8.4.5z"/><path opacity=".15" d="M244.4 248.1l6.8-6.4c2.3-2.2 2.4-5.8.3-8.1l-86.6-92.9.1-.1-31.8-33.9c-12.4-13.2-22.7-28.4-30.4-44.9l-21.3-44.9c-1.9-4.2-9.4-11.4-13.6-9.4l-6.8 3.2 64.2 136.9 6.8-3.2c4.2-1.9 5.9-6.9 4-11 0 0-2.2-6.3.9-3.9 2.6 2.1 1.8.6 18.8 21.2l80.2 96.9c2.2 2.5 6 2.8 8.4.5z"/><path opacity=".1" d="M136.1 133.4s-2.2-6.3.9-3.9c2 1.7 26.6 30.7 34.2 39.7l-42-66.9c-10.7-12.2-19.6-25.8-26.4-40.5l-21.3-44.9c-1.9-4.2-9.4-11.4-13.6-9.4l-6.8 3.2 64.2 136.9 6.8-3.2c4.2-1.9 6-6.8 4-11z"/><path fill="#F5D9B8" d="M136.1 133.4l-53.9-114.8c-1.9-4.2-10.2-13-14.3-11.1l-6.8 3.2 64.2 136.9 6.8-3.2c4.2-1.9 6-6.8 4-11z"/><polygon opacity=".1" points="132.1,144.4 65.3,8.8 61.1,10.7 125.3,147.6"/></svg>