<svg xmlns="http://www.w3.org/2000/svg" viewBox="0 0 500 500" enable-background="new 0 0 500 500"><rect x="81.4" y="14.5" opacity=".1" enable-background="new" width="342.8" height="477.3"/><rect x="75.8" y="7" fill="#A15300" width="340.8" height="451.8"/><rect x="85.4" y="21.7" opacity=".25" enable-background="new" width="321.5" height="428.1"/><path fill="#fff" d="M368.2 29.1h-244c-16.8 0-30.3 13.5-30.3 30.3v352.7c0 16.8 13.5 30.3 30.3 30.3h243.9c16.8 0 30.3-13.5 30.3-30.3v-352.9c0-16.6-13.6-30.1-30.2-30.1z"/><path opacity=".1" enable-background="new" d="M233.4 43.6h-117.8c-6.6 0-12.1 5.5-12.1 12.1v54.3c0 6.6 5.5 12.1 12.1 12.1h117.8c6.6 0 12.1-5.5 12.1-12.1v-54.1c0-6.9-5.5-12.3-12.1-12.3z"/><path opacity=".1" enable-background="new" d="M379.3 43.6h-117.8c-6.6 0-12.1 5.5-12.1 12.1v54.3c0 6.6 5.5 12.1 12.1 12.1h117.8c6.6 0 12.1-5.5 12.1-12.1v-54.1c.2-6.9-5.3-12.3-12.1-12.3z"/><path fill="#BC82C8" d="M91.4 133.2v281.2c0 17 13.7 30.7 30.7 30.7h248c17 0 30.7-13.7 30.7-30.7v-281.2h-309.4z"/><path fill="#FFE654" d="M233.4 39.1h-117.8c-6.6 0-12.1 5.5-12.1 12.1v54.3c0 6.6 5.5 12.1 12.1 12.1h117.8c6.6 0 12.1-5.5 12.1-12.1v-54.3c0-6.7-5.5-12.1-12.1-12.1z"/><path fill="#FFE654" d="M379.3 39.1h-117.8c-6.6 0-12.1 5.5-12.1 12.1v54.3c0 6.6 5.5 12.1 12.1 12.1h117.8c6.6 0 12.1-5.5 12.1-12.1v-54.3c.2-6.7-5.3-12.1-12.1-12.1z"/><path opacity=".15" enable-background="new" d="M233.4 39.1h-117.8c-6.6 0-12.1 5.5-12.1 12.1v54.3c0 6.6 5.5 12.1 12.1 12.1h117.8c6.6 0 12.1-5.5 12.1-12.1v-54.3c0-6.7-5.5-12.1-12.1-12.1zm8.6 62.9c0 6.2-5.3 11.3-11.5 11.3h-111.9c-6.4 0-11.5-5.1-11.5-11.3v-50c0-6.2 5.3-11.3 11.5-11.3h111.7c6.4 0 11.5 5.1 11.5 11.3v50h.2z"/><path opacity=".15" enable-background="new" d="M379.3 39.1h-117.8c-6.6 0-12.1 5.5-12.1 12.1v54.3c0 6.6 5.5 12.1 12.1 12.1h117.8c6.6 0 12.1-5.5 12.1-12.1v-54.3c.2-6.7-5.3-12.1-12.1-12.1zm8.6 62.9c0 6.2-5.3 11.3-11.5 11.3h-111.8c-6.4 0-11.5-5.1-11.5-11.3v-50c0-6.2 5.3-11.3 11.5-11.3h111.7c6.4 0 11.5 5.1 11.5 11.3v50z"/><rect x="91.4" y="133.2" opacity=".75" fill="#fff" enable-background="new" width="309.6" height="27"/><polygon opacity=".05" enable-background="new" points="401,144.9 91.4,156.1 91.4,160.4 401,160.4"/><rect x="93.9" y="131.5" opacity=".25" enable-background="new" width="304.5" height="1.8"/><rect x="91.4" y="159.8" opacity=".1" enable-background="new" width="309.6" height="5.9"/><path opacity=".05" enable-background="new" d="M246.1 83l-.6 22.7c0 6.6-5.5 12.1-12.1 12.1h-117.8c-6.6 0-12.1-5.5-12.1-12.1v-4.1l142.6-18.6z"/><path opacity=".05" enable-background="new" d="M391.6 63.1v42.4c0 6.6-5.5 12.1-12.1 12.1h-117.8c-6.6 0-12.1-5.5-12.1-12.1v-22.5l142-19.9z"/><path opacity=".1" enable-background="new" d="M91.4 414.7c0 17 13.7 30.7 30.7 30.7h248c17 0 30.7-13.7 30.7-30.7v-132.5l-309.4 85.4v47.1z"/><polygon opacity=".15" enable-background="new" points="102.5,73.8 102.5,65.8 389.6,65.8 389.6,73.8 416.6,73.8 416.6,21.7 75.8,21.7 75.8,73.8"/><rect x="102.5" y="7" opacity=".25" enable-background="new" width="288.9" height="14.6"/><polygon fill="#FFD4A6" points="406.4,474.6 88.1,474.6 75.8,459 416.6,459"/><polygon opacity=".25" enable-background="new" points="406.4,474.6 88.1,474.6 75.8,459 416.6,459"/></svg>