<svg xmlns="http://www.w3.org/2000/svg" viewBox="0 0 500 500" enable-background="new 0 0 500 500"><ellipse opacity=".1" enable-background="new" cx="250.4" cy="473" rx="130.3" ry="20.3"/><rect x="329.8" y="42.4" transform="matrix(-.976 -.218 .218 -.976 671.179 210.303)" fill="#FCD700" width="34.8" height="51.4"/><g opacity=".05"><rect x="331.8" y="39.1" transform="matrix(-.976 -.218 .218 -.976 643.776 200.683)" width="2.3" height="51.4"/><rect x="336.7" y="40.2" transform="matrix(-.976 -.218 .218 -.976 653.16 204.016)" width="2.3" height="51.4"/><rect x="341.7" y="41.4" transform="matrix(-.976 -.218 .218 -.976 662.911 207.474)" width="2.3" height="51.4"/><rect x="346.6" y="42.6" transform="matrix(-.976 -.218 .218 -.976 672.295 210.807)" width="2.3" height="51.4"/><rect x="351.7" y="43.6" transform="matrix(-.976 -.218 .218 -.976 682.172 213.898)" width="2.3" height="51.4"/><rect x="356.6" y="44.7" transform="matrix(-.976 -.218 .218 -.976 691.556 217.23)" width="2.3" height="51.4"/><rect x="361.7" y="45.9" transform="matrix(-.976 -.218 .218 -.976 701.307 220.689)" width="2.3" height="51.4"/></g><path fill="#B152C4" d="M384.5 117.8l-19.3-19.5-47.1-10.5-25.8 9.6c-6.4 2.3-11.1 7.8-12.5 14.5l-43.2 192.6c-1.4 5.7 2.3 11.3 8 12.7l89.3 19.9c5.7 1.4 11.3-2.3 12.7-8l43.2-192.6c1.4-6.8-.6-13.9-5.3-18.7zm-83 47.6c-1.4 6.2-7.6 10.2-13.9 8.8h-.2c-6.2-1.4-10.2-7.6-8.8-13.9l9-40.2c1.4-6.2 7.6-10.2 13.9-8.8h.2c6.2 1.4 10.2 7.6 8.8 13.9l-9 40.2z"/><path opacity=".1" enable-background="new" d="M312.7 126.3c1.6-7.4-2.9-14.6-10.4-16.2h-.2c-7.4-1.6-14.6 2.9-16.2 10.4l-9 39.8c-1.6 7.4 2.9 14.6 10.4 16.2h.2c7.4 1.6 14.6-2.9 16.2-10.4l9-39.8zm-25.2 47.7h-.2c-6.2-1.4-10.2-7.6-8.8-13.9l9-40.2c1.4-6.3 7.6-10.2 13.9-8.8h.2c6.2 1.4 10.2 7.6 8.8 13.9l-9 40.2c-1.6 6.3-7.7 10.2-13.9 8.8z"/><path opacity=".05" enable-background="new" d="M236.9 304.1c-1.4 5.7 2.3 11.3 8 12.7l89.3 19.9c5.7 1.4 11.3-2.3 12.7-8l19.3-86.3-121.3 25.6-8 36.1z"/><polygon opacity=".1" enable-background="new" points="324.6,89.4 358.6,97.1 364.6,69.9 327.1,77.7"/><path opacity=".25" d="M383.4 139.6c1.4-6.2-.4-12.7-4.9-17.2l-18-18.4-44.1-9.8s-17 2.7-11.5 8.4 14.5 8.4 12.3 18l-11.9 54.1c-2.1 10-12.1 16.2-22.1 14.1h-.4c-8.4-2-18-1.6-19.7 6.2l-22.7 101.4c-1.2 5.3 2.1 10.7 7.4 11.9l83.4 18.8c5.3 1.2 10.7-2.1 11.9-7.4l40.3-180.1z"/><path fill="#169ADB" d="M266.2 268.1l-15.8-86.7c-2.1-11.3-9.6-20.1-19.1-24.6h-.3c-1.6-.8-3.3-1.4-5.1-1.8-7.8-4.9.8-15.6.8-15.6 3.9-4.7 5.7-10.7 4.5-17.2-1.4-7.2-10.2-17.4-20.9-27.5l-37.1-30.7-23.8 34.2 7.2 8c2.3 2.7 1 7-2.7 7.6 0 0-6.8 4.3-21.3 10.9s-25.6 18.2-22.5 35l24.2 132.4c2.5 13.3 14.1 15.4 27.3 12.9l83.6-15.2c13.4-2.3 23.5-8.2 21-21.7z"/><g opacity=".25"><path d="M214.2 146.7l-31.4 4.1c-3.3.6-5.7 2-5.1 5.3v.2c.6 3.3 3.3 3.3 6.6 2.7l26.6-4.9c5.3-1 10.4-.6 15.2.8-7.8-4.9.8-15.6.8-15.6-3.5 3.6-7.6 6.4-12.7 7.4z"/><path d="M231.2 156.8z"/></g><polygon fill="#F46060" points="167.5,66.4 158.6,59.4 142.9,61.9 138,68.1 139,84 148,91 144.7,95.3 150.9,100.4 177.1,67.2 170.9,62.1"/><rect x="141.6" y="77.5" transform="matrix(-.62 .784 -.784 -.62 303.415 19.549)" opacity=".05" enable-background="new" width="10.7" height="11.5"/><rect x="157.1" y="60.9" transform="matrix(-.62 .784 -.784 -.62 311.29 -17.332)" opacity=".15" fill="#fff" enable-background="new" width="5.5" height="11.5"/><rect x="140.1" y="74.3" transform="matrix(-.62 .784 -.784 -.62 312.824 2.627)" opacity=".05" enable-background="new" width="31.4" height="5.5"/><polygon opacity=".05" enable-background="new" points="140.6,65 138,68.1 139,84 145.7,75.4"/><rect x="165.7" y="67.4" transform="matrix(-.62 .784 -.784 -.62 329.395 -16.607)" opacity=".15" fill="#fff" enable-background="new" width="6.1" height="8"/><rect x="145.1" y="88.1" transform="matrix(-.62 .784 -.784 -.62 318.976 29.713)" opacity=".05" enable-background="new" width="14.5" height="8"/><rect x="142.1" y="82" transform="matrix(-.62 .784 -.784 -.62 329.605 6.349)" opacity=".05" enable-background="new" width="42.4" height="2"/><polygon opacity=".15" fill="#fff" enable-background="new" points="142.3,62.7 141.6,63.7 153.7,65.4 157,61.1"/><path opacity=".1" d="M256 263.7l-14.8-81.1c-2-10.5-8.8-18.9-18-23h-.2c-1.6-.8-3.1-1.2-4.9-1.8-5.9-3.5-2-10.7-.2-13.5 1.2-2.1 2.3-3.7 2.3-3.7.4-.6.8-1.2 1.2-1.6 1.8-3.5 2.3-7.6 1.6-11.7-1.2-6.8-9.6-16.2-19.5-25.8l-31.8-27.3-17.8 23.2 5.7 6.1c.8.8 1 1.8 1.2 2.7l2 2.1c2.3 2.5.8 6.6-2.5 7.2 0 0-9.2 6.8-22.7 13.3-13.5 6.2-24 17-21.1 32.8l22.5 123.9c2.3 12.5 13.1 14.5 25.6 12.1l72.1-13.3c12.3-2.5 21.7-8.1 19.3-20.6z"/><path opacity=".1" enable-background="new" d="M244.9 290c13.3-2.5 23.4-8.4 21.1-21.9l-15.8-86.7c-2-10.4-8.4-18.6-16.8-23.2l-100.4 127.7 1.2 6.4c2.5 13.3 14.1 15.4 27.3 12.9l83.4-15.2z"/><polygon fill="#CFCFCF" points="225.4,26 214.8,22.1 198.4,66.2 201.9,66.4"/><polygon opacity=".1" enable-background="new" points="225.4,26 214.8,22.1 198.4,66.2 201.9,66.4"/><path fill="#ccc" d="M262.5 7.4l-62.5-3.7-1.8 28.7 38.5 4.3c1.8.2 3.1 1.2 3.9 2.7l5.3 11.3 17.4 1 3.7-8.4c.8-2 2.9-3.1 5.1-2.9l21.9 2.9c2.9.4 4.9-2.7 3.5-5.3l-8.2-14.3c-5.7-9.5-15.7-15.7-26.8-16.3z"/><polygon fill="#CFCFCF" points="198.2,32.2 191.4,27.5 192.5,7.4 200,3.7"/><polygon opacity=".1" enable-background="new" points="198.2,32.2 191.4,27.5 192.5,7.4 200,3.7"/><polygon opacity=".1" enable-background="new" points="209.5,36.3 217.1,40.2 220.3,34.7 210.5,33.6"/><path opacity=".1" enable-background="new" d="M297.4 38.1l-8.2-14.3c-3.1-5.3-7.4-9.4-12.7-12.3l-58.8 22.9 18.9 2.1c1.8.2 3.1 1.2 3.9 2.7l5.3 11.3 17.4 1 3.7-8.4c.8-2 2.9-3.1 5.1-2.9l21.9 2.9c2.9.4 4.9-2.5 3.5-5z"/><rect x="239.4" y="47.8" transform="matrix(-.998 -.059 .059 -.998 503.227 127.351)" fill="#CFCFCF" width="28.1" height="16.8"/><rect x="242" y="47.3" transform="matrix(-.998 -.059 .059 -.998 483.748 125.599)" opacity=".1" enable-background="new" width="3.5" height="16.8"/><rect x="248.4" y="47.6" transform="matrix(-.998 -.059 .059 -.998 496.605 126.749)" opacity=".1" enable-background="new" width="3.5" height="16.8"/><rect x="255.1" y="48" transform="matrix(-.998 -.059 .059 -.998 509.851 127.933)" opacity=".1" enable-background="new" width="3.5" height="16.8"/><rect x="261.5" y="48.4" transform="matrix(-.998 -.059 .059 -.998 522.708 129.083)" opacity=".1" enable-background="new" width="3.5" height="16.8"/><polygon opacity=".05" enable-background="new" points="265.8,45.9 242.9,44.5 244.3,47.4 264.6,48.6"/><path fill="#CFCFCF" d="M270.9 127.3l3.1-53.9c.2-4.1-2.9-7.6-7-7.8l-25.8-1.6c-2.9-.2-5.5 1.4-7 3.7l-.6 1c-3.1 5.7-4.7 11.9-4.5 18.4l2 30.7c.2 6.1-3.1 9.4-7.8 11.7-1 .6-2.1 1-3.3 1.6-20.1 10.2-44.9 39.5-48.6 104.7l-1.8 30.5c-.4 6.2 4.5 11.7 10.7 12.1l95.3 5.7c6.2.4 11.7-4.5 12.1-10.7l5.9-97.5c1.3-22.8-23.9-30-22.7-48.6z"/><path fill="#1EC9BA" d="M270.9 127.3l3.1-53.9c.2-4.1-2.9-7.6-7-7.8l-25.8-1.6c-2.9-.2-5.5 1.4-7 3.7l-.6 1c-3.1 5.7-4.7 11.9-4.5 18.4l2 30.7c.2 6.1-3.1 9.4-7.8 11.7-1 .6-2.1 1-3.3 1.6-20.1 10.2-44.9 39.5-48.6 104.7l-1.8 30.5c-.4 6.2 4.5 11.7 10.7 12.1l95.3 5.7c6.2.4 11.7-4.5 12.1-10.7l5.9-97.5c1.3-22.8-23.9-30-22.7-48.6z"/><path opacity=".1" d="M274.6 73.6c.2-2-.6-3.9-1.8-5.3l-23-1.4c-2.7-.2-5.3 1.2-6.6 3.7l-.6 1c-3.1 5.5-4.5 11.5-4.3 17.8l2 29.7c.2 5.9-3.1 9-7.6 11.3-1 .6-2.1 1-3.3 1.6-19.3 10-43.4 38.1-47.1 101l-1.8 29.1c-.4 6.1 4.3 11.3 10.4 11.7l92.2 5.5c1.2 0 2.3-.2 3.5-.4 1-1.6 1.8-3.5 1.8-5.5l5.9-97.5c1.4-22.5-23.8-29.9-22.7-48.4l3-53.9z"/><path opacity=".05" enable-background="new" d="M169.5 266.2c-.4 6.2 4.5 11.7 10.7 12.1l95.3 5.7c6.2.4 11.7-4.5 12.1-10.7l5.9-97.5c.2-2.9-.2-5.7-.8-8.2l-121.5 70.7-1.7 27.9z"/><polygon fill="#FFDB06" points="351.3,169.9 275.9,272.2 358.8,295.9"/><polygon opacity=".25" enable-background="new" points="351.3,169.9 275.9,272.2 358.8,295.9"/><polygon fill="#E36966" points="385.3,187.3 116,187.3 152.1,473 349.2,473"/><polygon opacity=".03" enable-background="new" points="385.3,187.3 280.6,187.3 275.5,473 349.2,473"/><polygon opacity=".05" enable-background="new" points="163.8,187.3 116,187.3 152.1,473 177.7,473"/><path opacity=".05" enable-background="new" d="M250.5 367.6c-53.7 0-100-31.6-121.5-77l2.5 19.9c25.4 38.9 69.1 64.6 118.9 64.6s93.6-25.8 118.9-64.6l2.5-19.9c-21.3 45.5-67.5 77-121.3 77z"/><polygon opacity=".5" fill="#fff" enable-background="new" points="202.5,187.3 194.3,187.3 208,473 216.4,473"/><path fill="#8E8E8E" d="M392.7 208.6c0-5.5-3.7-10.2-8.8-11.7l-1 7.8c1.4 1 2.1 2.3 2.1 4.1v.6c0 74.4-60.4 134.6-134.6 134.6-74.4 0-134.6-60.4-134.6-134.6v-.6c0-1.8 1-3.1 2.1-4.1l-1-7.8c-5.1 1.6-8.8 6.2-8.8 11.7v.6c0 78.5 63.7 142.2 142.2 142.2s142.2-63.7 142.2-142.2c.2-.2.2-.4.2-.6z"/><path opacity=".25" fill="#fff" enable-background="new" d="M383.9 198l-.4 3.1c1 .8 1.6 2 1.6 3.3v6.199999999999999c0 74.4-60.4 134.6-134.6 134.6-74.4 0-134.6-60.4-134.6-134.6v-6.199999999999999c0-1.4.8-2.5 1.6-3.3l-.4-3.1c-4.7 1.6-8 5.7-8.6 10.5 2 76.8 64.6 138.5 142 138.5s140-61.7 142-138.5c-.4-4.8-3.9-8.9-8.6-10.5z"/><path opacity=".1" enable-background="new" d="M179.5 187.3l-14.8 23.8c-1 1.6-1.6 3.5-2 5.3l-1.4 10.4-3.1 24c-.6 5.1 2.9 9.8 8 10.4h.2c5.1.6 9.8-2.9 10.4-8l3.1-24 4.5.6-2.3 20.9-7.2 57.2c-.6 5.1 2.9 9.8 8 10.4h.2c5.1.6 9.8-2.9 10.4-8l7.2-57.2 4.5.6-8 62.7c-.6 5.1 2.9 9.8 8 10.4h.2c5.1.6 9.8-2.9 10.4-8l8-62.7 4.5.6-7.2 57.2c-.6 5.1 2.9 9.8 8 10.4h.2c5.1.6 9.8-2.9 10.4-8l7.2-57.2 4.5.6-5.3 40.8c-.6 5.1 2.9 9.8 8 10.4h.2c5.1.6 9.8-2.9 10.4-8l5.3-40.8 2.7-20.9 2.1-53.7h-95.1v-.2z"/><path opacity=".1" enable-background="new" d="M353.5 187.3h-116.8l-.2.4-4.1 9.6-9.6 22.3c-2 4.7.2 10.2 4.9 12.3h.2c4.7 2 10.2-.2 12.3-4.9l9.6-22.3 4.3 1.8-8.4 19.3-22.7 52.9c-2 4.7.2 10.2 4.9 12.3h.2c4.7 2 10.2-.2 12.3-4.9l22.7-52.9 4.3 1.8-25 58c-2 4.7.2 10.2 4.9 12.3h.2c4.7 2 10.2-.2 12.3-4.9l25-58 4.3 1.8-22.7 52.9c-2 4.7.2 10.2 4.9 12.3h.2c4.7 2 10.2-.2 12.3-4.9l22.7-52.9 4.3 1.8-16.3 37.6c-2 4.7.2 10.2 4.9 12.3h.2c4.7 2 10.2-.2 12.3-4.9l16.2-37.7 8.4-19.3 17-54.1z"/><path fill="#FCD700" d="M179.6 252.7c5.3.6 10-2.9 10.5-8l3.1-24 4.5.6-2.7 20.9-7 57.2c-.6 5.1 2.9 9.8 8 10.4h.2c5.1.6 9.8-2.9 10.4-8l7.2-57.2 4.5.6-8 62.7c-.6 5.1 2.9 9.8 8 10.4h.2c5.1.6 9.8-2.9 10.4-8l8-62.7 4.5.6-7.2 57.2c-.6 5.1 2.9 9.8 8 10.4h.2c5.1.6 9.8-2.9 10.4-8l7.6-57 4.5.6-5.3 40.8c-.6 5.1 2.9 9.8 8 10.4h.2c5.1.6 9.8-2.9 10.4-8l5.3-40.8 2.7-20.9 2.7-64.3s0-.2-.2-.2l-82.7-10.8h-.2l-28.1 44.9c-1 1.6-1.6 3.5-2 5.3l-1.4 10.4-3.1 24c-.1 5.2 3.4 9.7 8.4 10.5z"/><path opacity=".05" enable-background="new" d="M267.7 302.3h.2c5.1.6 9.6-2.9 10.4-8l7.8-61.9 2.7-64.5-3.9-.6-17.2 135z"/><path opacity=".05" enable-background="new" d="M250.9 249.4l-8.4 66.4h.2c5.1.6 9.6-2.9 10.4-8l7.2-57.2-9.4-1.2z"/><path opacity=".05" enable-background="new" d="M227.7 246.3l-9.2 71.9h.2c5.1.6 9.6-2.9 10.4-8l8-62.7-9.4-1.2z"/><path opacity=".05" enable-background="new" d="M204.6 243.3l-8.4 66.4h.2c5.1.6 9.6-2.9 10.4-8l7.2-57.2-9.4-1.2z"/><path opacity=".05" enable-background="new" d="M184.1 219.5l-4.3 33.2h.2c5.1.6 9.6-2.9 10.4-8l3.1-24-9.4-1.2z"/><path opacity=".05" enable-background="new" d="M239.8 247.8l2 .2-.4 3.7 14.3 37.1 4.9-38.7 4.5.6-5.3 41c-.6 5.1 2.9 9.6 8 10.4h.4c2.5.4 4.9-.4 6.8-1.8 2-1.4 3.1-3.5 3.5-6.1l7.8-61.9 2.7-64.5-82.8-10.5-.6 1 34.2 89.5z"/><path opacity=".1" enable-background="new" d="M283.6 253.5l2.7-20.9 2.7-64.3s0-.2-.2-.2l-42.2-5.3-16.4 14.8c-1.4 1.4-2.5 2.9-3.3 4.7l-4.1 9.6-9.6 22.3c-2 4.7.2 10.2 4.9 12.3h.2c4.7 2 10.2-.2 12.3-4.9l9.6-22.3 4.3 1.8-8.4 19.3-20.3 47.5-1.8 13.7c1 1.8 2.3 3.1 4.3 3.9h.2c4.7 2 10.2-.2 12.3-4.9l3.3-8 3.3-25.2 4.5.6-1.2 9.4 12.7-29.7 4.3 1.8-19.1 44.3-3.1 24.4c.6.6 1.4 1.2 2.1 1.6h.2c4.7 2 10.2-.2 12.3-4.9l6.8-16 3.3-28.3 4.5.6-1.6 12.7 11.5-26.8 4.3 1.8-17.8 41.4-1.6 11.7c-.6 5.1 2.9 9.8 8 10.4h.2c1.2.2 2.5 0 3.5-.2.8-.8 1.6-1.8 2-2.9l6.1-14.1 4.3-31.7z"/><path fill="#FCD700" d="M222.8 221.7c4.9 2.1 10.4 0 12.3-4.9l9.6-22.3 4.3 1.8-8.4 19.3-22.7 52.9c-2 4.7.2 10.2 4.9 12.3h.2c4.7 2 10.2-.2 12.3-4.9l22.7-52.9 4.3 1.8-25 58c-2 4.7.2 10.2 4.9 12.3h.2c4.7 2 10.2-.2 12.3-4.9l25-58 4.3 1.8-22.7 52.9c-2 4.7.2 10.2 4.9 12.3h.2c4.7 2 10.2-.2 12.3-4.9l22.7-52.9 4.3 1.8-16.2 37.7c-2 4.7.2 10.2 4.9 12.3h.2c4.7 2 10.2-.2 12.3-4.9l16.2-37.7 8.4-19.3 19.3-60.7v-.2l-76.6-32.8h-.2l-39.3 35.4c-1.4 1.4-2.5 2.9-3.3 4.7l-4.1 9.6-9.6 22.3c-1.9 4.6.2 10.1 5.1 12.1z"/><path opacity=".05" enable-background="new" d="M293.7 293.5h.2c4.7 2 10-.2 12.1-4.9l24.6-57.2 20.3-60.9-3.5-1.6-53.7 124.6z"/><path opacity=".05" enable-background="new" d="M292.1 238.1l-26.4 61.3h.2c4.7 2 10-.2 12.1-4.9l22.9-53.1-8.8-3.3z"/><path opacity=".05" enable-background="new" d="M270.7 228.7l-28.5 66.6h.2c4.7 2 10-.2 12.1-4.9l25-58.2-8.8-3.5z"/><path opacity=".05" enable-background="new" d="M249.2 219.5l-26.4 61.5h.2c4.7 2 10-.2 12.1-4.9l22.9-53.1-8.8-3.5z"/><path opacity=".05" enable-background="new" d="M236.1 191l-13.3 30.7h.2c4.7 2 10-.2 12.1-4.9l9.6-22.3-8.6-3.5z"/><path opacity=".05" enable-background="new" d="M281.8 233.6l2 .8-1.6 3.5 3.5 39.6 15.4-35.7 4.3 1.8-16.2 37.9c-2 4.7.2 10 4.9 12.1h.4c2.3 1 4.9 1 7 0 2.1-.8 4.1-2.5 5.1-4.9l24.6-57.2 19.9-60.9-76.8-33-.8.8 8.3 95.2z"/></svg>