<svg xmlns="http://www.w3.org/2000/svg" viewBox="0 0 500 500" enable-background="new 0 0 500 500"><path fill="#BBE9E5" d="M159 329.6v121.5c0 3.7-2.9 6.6-6.6 6.6s-6.6-2.9-6.6-6.6v-26c-.2-22.1-18.2-39.8-40.2-39.8h-71.3v33.6h71.2c3.7 0 6.6 2.9 6.6 6.6v25.8c0 22.3 18 40.2 40.2 40.2s40.2-18 40.2-40.2v-121.7h-33.5z"/><g opacity=".15"><path d="M112.1 450.7c10.2-8.4 21.7-18 33.4-27.7-1.2-21.1-18.6-37.9-40-37.9h-71.3v33.6h71.2c3.7 0 6.6 2.9 6.6 6.6v25.4z"/><path d="M192.6 342.3c-10.4-1-21.7-2.1-33.6-3.3v72.9c11.7-9.6 23-19.1 33.6-27.9v-41.7z"/></g><path fill="#FFF5B8" d="M83 108v250h145c24 0 43.4-19.3 43.4-43.4l27.1-121.9 81.4-39.3c12.9-5.5 21.1-18.2 21.1-32.2v-13.1h-318v-.1z"/><rect x="91.2" y="379.1" fill="#C7D8D8" width="8.4" height="47.3"/><rect x="99.2" y="385.1" opacity=".15" enable-background="new" width="5.1" height="33.6"/><path fill="#16968B" d="M384.4 108h-301.4v236.1h133.2c24 0 43.4-19.3 43.4-43.4l27.1-121.9 4.5-2.1 2.9 5.7 7-3.5-2.7-5.7 4.9-2.3 2.7 5.5 7-3.5-2.7-5.3 4.9-2.3 2.7 5.3 7-3.5-2.5-5.1 4.9-2.3 2.5 5.1 7-3.5-2.5-4.9 4.9-2.3 2.5 4.9 7-3.5-2.3-4.7 4.9-2.3 2.3 4.7 7-3.5-2.3-4.5 4.9-2.3 2.3 4.5 7-3.5-2.3-4.5c15-6.8 14.2-14.2 14.2-31.4z"/><path fill="#82E5DD" d="M83 215.6v128.5h133.2c24 0 43.4-19.3 43.4-43.4l18.9-85.2-195.5.1z"/><polygon opacity=".02" enable-background="new" points="228.5,108 91.2,108 91.2,344.1 173.5,344.1"/><polygon fill="#FFF5B8" points="84.8,-1.2 109.8,11.3 109.8,358.2 84.8,358.2"/><polygon fill="#6A7B87" points="84.8,-1.2 102,7.4 101.8,358.2 84.8,358.2"/><rect x="-1.7" y="-3" fill="#ccc" width="90.6" height="501.2"/><path fill="#FF8400" d="M86 380h-87.7v70.3h87.9c6.1 0 10.9-4.7 10.9-10.5v-49.2c.2-5.9-4.9-10.6-11.1-10.6z"/><path fill="#FF8400" d="M86 298.6h-87.7v70.3h87.9c6.1 0 10.9-4.7 10.9-10.5v-49.2c.2-5.9-4.9-10.6-11.1-10.6z"/><path fill="#FF8400" d="M86 217.1h-87.7v70.3h87.9c6.1 0 10.9-4.7 10.9-10.5v-49.2c.2-5.9-4.9-10.6-11.1-10.6z"/><path fill="#FF8400" d="M86 135.7h-87.7v70.3h87.9c6.1 0 10.9-4.7 10.9-10.5v-49.2c.2-5.9-4.9-10.6-11.1-10.6z"/><path fill="#FF8400" d="M86 54.3h-87.7v70.3h87.9c6.1 0 10.9-4.7 10.9-10.5v-49.3c.2-5.9-4.9-10.5-11.1-10.5z"/><path fill="#6A7B87" d="M186.2 28.7c7.2 0 12.9 5.5 13.9 12.3h.4v14.6h-14.3v-6.1c0-3.9-3.1-6.8-6.8-6.8h-4.9v-14.2h11.7v.2z"/><rect x="109.8" y="28.7" fill="#6A7B87" width="47.5" height="14.3"/><rect x="144.6" y="28.7" opacity=".1" enable-background="new" width="12.7" height="14.3"/><rect x="165.8" y="28.7" opacity=".1" enable-background="new" width="11.3" height="14.3"/><rect x="109.8" y="31.2" opacity=".35" fill="#fff" enable-background="new" width="47.5" height="1.6"/><rect x="149.2" y="25.9" fill="#ccc" width="25.2" height="20.7"/><rect x="149.2" y="40.4" opacity=".05" enable-background="new" width="25.2" height="6.4"/><rect x="149.2" y="30" opacity=".75" fill="#fff" enable-background="new" width="25.2" height="2.9"/><rect x="183.4" y="55.8" fill="#ccc" width="18.9" height="5.1"/><rect x="185.8" y="50.7" opacity=".1" enable-background="new" width="14.3" height="5.1"/><rect x="157.3" y="7.6" fill="#8C9696" width="7.2" height="18.4"/><rect x="137.7" y="5.2" fill="#8C9696" width="46.5" height="4.9"/><circle fill="#ccc" cx="161" cy="7.6" r="8.2"/><circle fill="#ccc" cx="137.7" cy="7.6" r="8.2"/><circle fill="#ccc" cx="184.2" cy="7.6" r="8.2"/><g opacity=".1"><path d="M138.3 14.4c-4.3 0-7.8-3.5-7.8-7.8 0-3.1 2-5.9 4.7-7-3.3 1.2-5.7 4.1-5.7 7.8 0 4.5 3.7 8.2 8.2 8.2 3.7 0 6.6-2.3 7.6-5.7-1.1 2.8-3.9 4.5-7 4.5z"/><path d="M184.8 14.4c-4.3 0-7.8-3.5-7.8-7.8 0-3.1 2-5.9 4.7-7-3.3 1.2-5.7 4.1-5.7 7.6 0 4.5 3.7 8.2 8.2 8.2 3.7 0 6.6-2.3 7.6-5.7-1.1 3-3.9 4.7-7 4.7z"/><path d="M161.6 14.4c-4.3 0-7.8-3.5-7.8-7.8 0-3.1 2-5.9 4.7-7-3.3 1.2-5.7 4.1-5.7 7.6 0 4.5 3.7 8.2 8.2 8.2 3.7 0 6.6-2.3 7.6-5.7-1.2 3-3.9 4.7-7 4.7z"/></g><path fill="#FF8400" d="M97.3 33.2v-36.4h-99v46.9h87.9c6 0 11.1-4.7 11.1-10.5z"/><path fill="#FF8400" d="M97.3 471.1c0-5.9-5.1-10.5-11.1-10.5h-87.9v36.4h98.8v-26h.2z"/><polygon opacity=".25" fill="#fff" enable-background="new" points="194.2,338.8 159,338.8 156.5,344.3 195.7,344.3"/><circle opacity=".75" fill="#fff" enable-background="new" cx="189.1" cy="46.4" r="1"/><circle fill="#fff" cx="183.8" cy="16.8" r="1.2"/><circle fill="#fff" cx="161.6" cy="16.8" r="1.6"/><circle fill="#fff" cx="138.1" cy="16.8" r="1.2"/><path opacity=".02" enable-background="new" d="M175.6 199h-.8c-18.8 0-34.2 15.2-34.2 34.2v109c0 3.3 2.5 5.9 5.9 5.9h57c3.3 0 6.1-2.7 6.1-6.1v-108.8c.2-19-15-34.2-34-34.2z"/><g opacity=".1"><path d="M87.1 299.4v48.8c0 5.9-4.9 10.5-10.9 10.5h-77.9v10.7h87.9c6.1 0 10.9-4.7 10.9-10.5v-49.2c.2-5.4-4.3-9.7-10-10.3z"/><path d="M87.1 380.8v48.8c0 5.9-4.9 10.5-10.9 10.5h-77.9v10.2h77.7c1 0 2 .4 2.9.6h7.2c6.1 0 10.9-4.7 10.9-10.5v-49.2c.3-5.5-4.2-9.8-9.9-10.4z"/><path d="M87.1 217.9v48.8c0 5.9-4.9 10.5-10.9 10.5h-77.9v10.8h87.9c6.1 0 10.9-4.7 10.9-10.5v-49.2c.2-5.5-4.3-9.8-10-10.4z"/><path d="M87.1 461.3v36.3h10v-26c.2-5.4-4.3-9.7-10-10.3z"/><path d="M87.1-2.6v25.6c0 5.9-4.9 10.5-10.9 10.5h-77.9v10.5h77.7l1.6.2h8.6c6.1 0 10.9-4.7 10.9-10.5v-36.3h-10z"/><path d="M87.1 136.5v48.8c0 5.9-4.9 10.5-10.9 10.5h-77.9v10.7h87.9c6.1 0 10.9-4.7 10.9-10.5v-49.2c.2-5.4-4.3-9.7-10-10.3z"/><path d="M87.1 55v48.8c0 5.9-4.9 10.5-10.9 10.5h-77.9v10.7h87.9c6.1 0 10.9-4.7 10.9-10.5v-49.1c.2-5.5-4.3-9.8-10-10.4z"/></g></svg>