<svg xmlns="http://www.w3.org/2000/svg" viewBox="0 0 500 500" enable-background="new 0 0 500 500"><path fill="#EB9A98" d="M121.6 170.4l-111.1 121.2 49.9 156.9c1 3.1 3.1 5.3 5.7 6.7h.2c1.1.6 2.5 1 3.8 1.1h2.3c.8 0 1.3-.2 2.1-.4l223.8-71.1c3.1-1 5.3-3.1 6.7-5.7.4-1 .8-1.7 1-2.7 0-.2.2-.4.2-.8l.2-.8c.2-1.5 0-3.1-.6-4.6l-70.7-224c-.2-.8-.6-1.3-1-2.1-.2-.6-.6-1-1-1.5l-.2-.4v-.2c-.4-.6-1-1-1.5-1.3-.6-.4-1.1-.8-1.7-1.1-2.7-1.5-5.9-1.9-9-1l-99.1 31.8z"/><path fill="#EB9A98" d="M74.9 455.9z"/><path fill="#EB9A98" d="M70.9 456.3h1.7c-.6.2-1.1 0-1.7 0z"/><path fill="#EB9A98" d="M66.1 455.2c1.3.8 2.9 1.1 4.4 1.1-1.7 0-3-.6-4.4-1.1z"/><path fill="#EB9A98" d="M72.6 456.3z"/><polygon fill="#EB9A98" points="90.3,451 82.7,453.5 82.7,453.5 96.8,448.9"/><path fill="#EB9A98" d="M298.7 384.6z"/><polygon fill="#EB9A98" points="283.3,389.6 283.3,389.6 291.1,387.1 290.9,387.1"/><polygon fill="#EB9A98" points="113.6,443.5 113.6,443.5 107.7,445.5 98.1,448.5 98.1,448.5 121.2,441.1 121.2,441.1"/><polygon fill="#EB9A98" points="144.5,433.8 144.5,433.8 143.3,434 152.1,431.3 152.1,431.3"/><polygon fill="#EB9A98" points="175.2,423.9 175.2,423.9 167.3,426.4 167.3,426.4 159.9,428.9 159.9,428.9 158.4,429.2 182.8,421.4 182.8,421.4"/><polygon fill="#fff" points="206.2,414.1 198.3,416.6 198.3,416.6"/><polygon fill="#fff" points="128.9,438.7 121.1,441.1 121.1,441.1"/><path fill="#fff" d="M136.7 436.3l6.7-2.3-6.7 2.3z"/><path fill="#fff" d="M152.1 431.3l6.3-2.1-6.3 2.1z"/><polygon fill="#fff" points="82.7,453.4 74.9,455.9 74.9,455.9"/><polygon fill="#fff" points="98.1,448.5 98.1,448.5 96.8,448.9"/><polygon fill="#fff" points="190.7,419 182.9,421.5 182.9,421.5"/><polygon fill="#fff" points="237,404.3 229.1,406.7 229.1,406.7"/><polygon fill="#fff" points="283.2,389.5 275.4,392 275.4,392"/><polygon fill="#fff" points="221.6,409.3 213.8,411.8 213.8,411.8"/><polygon fill="#fff" points="267.8,394.6 260,397 260,397"/><polygon fill="#fff" points="252.4,399.4 244.6,401.9 244.6,401.9"/><polygon fill="#fff" points="298.7,384.6 298.7,384.6 291.1,387.1"/><polygon fill="#fff" points="151,161.1 158.8,158.6 158.8,158.6"/><polygon fill="#fff" points="166.4,156.2 174.2,153.7 174.2,153.7"/><polygon fill="#fff" points="161.1,272.2 127.9,168.3 121.6,170.4 120.5,171.7 155.7,282.6"/><polygon fill="#fff" points="205.1,143.9 197.3,146.3 208.3,180.8 213.7,170.6"/><polygon fill="#fff" points="189.7,148.8 181.8,151.3 197.7,201.2 203,191"/><polygon fill="#fff" points="129.4,333.2 89,206 82.5,213.1 124.1,343.5"/><polygon fill="#fff" points="139.9,313 101.6,192.3 95.1,199.1 134.6,323.3"/><polygon fill="#fff" points="98,394.2 51.1,247.4 44.8,254.2 92.6,404.5"/><polygon fill="#fff" points="118.9,353.6 76.4,219.7 69.9,226.8 113.6,363.9"/><polygon fill="#fff" points="76.8,435 25.9,274.8 19.6,281.9 71.5,445.3"/><polygon fill="#fff" points="113.6,443.5 113.6,443.5 107.7,445.5"/><polygon fill="#fff" points="182,231.6 158.8,158.5 151,161 176.7,241.9"/><polygon fill="#fff" points="192.5,211.2 174.2,153.6 166.4,156.1 187.2,221.6"/><path fill="#fff" d="M220.7 139.5c-1.1 0-2.5 0-3.6.6l-4.4 1.3 6.1 19.1 5.3-10.3-3.4-10.7z"/><polygon fill="#fff" points="87.3,414.6 38.5,261.1 32.2,268 81.9,424.9"/><polygon fill="#fff" points="150.4,292.6 114.2,178.6 107.9,185.4 145,302.9"/><polygon fill="#fff" points="143.3,163.5 135.5,166 166.2,262.3 171.5,252"/><polygon fill="#fff" points="144.5,433.8 136.7,436.3 136.7,436.3 143.3,434"/><polygon fill="#fff" points="159.9,428.9 152.1,431.3 152.1,431.3 158.4,429.2"/><polygon fill="#fff" points="108.4,374 63.8,233.5 57.4,240.5 103.1,384.3"/><polygon fill="#fff" points="175.3,423.9 167.5,426.3 167.5,426.3"/><polygon fill="#fff" points="90.3,451 90.3,451 96.8,448.9 98.1,448.5 98.1,448.5"/><polygon fill="#fff" points="290.9,387.1 291.1,387.1 298.7,384.6 298.7,384.6"/><path fill="#EB9A98" d="M306.7 372.6c0-.8-.2-1.5-.6-2.3l-71.1-224 71.3 224c.2.8.2 1.6.4 2.3z"/><path fill="#EB9A98" d="M70.9 456.3h1.7c-.6.2-1.1 0-1.7 0z"/><path fill="#EB9A98" d="M305.4 379.1c.8-1.3 1.1-2.7 1.1-4.2v-2.3c.4 2.1 0 4.4-1.1 6.5z"/><path fill="#EB9A98" d="M233.1 142.9c.4.4.8 1 1 1.3-.2-.5-.6-.9-1-1.3z"/><path fill="#EB9A98" d="M66.3 455.2l1.5-2.9c-3.8-.8-7.2-3.6-8.4-7.6l1.1 3.6c1 3.1 3.1 5.3 5.7 6.7 1.3.8 2.9 1.1 4.4 1.1-1.6.2-3-.2-4.3-.9z"/><path fill="#EB9A98" d="M220.5 138.9l.2.6c2.9 0 5.3 1.1 7.4 3.1l1.5-2.9c1.3.8 2.3 1.5 3.2 2.7v-.2c-2.9-3.3-7.7-4.8-12.3-3.3l-3.4 1.1 3.4-1.1z"/><path fill="#fff" d="M220.7 139.5l-.2-.6-3.4 1.1c1.1-.3 2.5-.5 3.6-.5z"/><polygon fill="#EB9A98" points="89.2,447.2 81.9,424.9 76.8,435 81.6,449.6"/><polygon fill="#EB9A98" points="104.6,442.4 92.6,404.5 87.3,414.6 97,444.7"/><polygon fill="#EB9A98" points="135.3,432.5 113.6,363.9 108.4,374 127.7,435"/><polygon fill="#EB9A98" points="150.8,427.5 124.1,343.5 118.9,353.6 143.1,430"/><polygon fill="#EB9A98" points="119.9,437.4 103.1,384.3 98,394.2 112.4,439.7"/><path fill="#EB9A98" d="M73.4 452.1h.2l-2.3-6.9-3.8 7.2c2.1.5 4 .5 5.9-.3z"/><path fill="#EB9A98" d="M72.6 456.3c.8 0 1.3-.2 2.1-.4-.6.2-1.3.4-2.1.4z"/><path fill="#EB9A98" d="M70.3 456.3h0z"/><polygon fill="#EB9A98" points="181.6,417.8 145,302.9 139.9,313 174,420.3"/><polygon fill="#EB9A98" points="289.7,383.5 218.8,160.6 213.7,170.6 282.1,385.8"/><polygon fill="#EB9A98" points="274.3,388.3 208.3,180.8 203,191 266.7,390.7"/><polygon fill="#EB9A98" points="228,403.1 176.7,241.9 171.5,252 220.3,405.4"/><polygon fill="#EB9A98" points="243.4,398.2 187.2,221.6 182,231.6 235.8,400.7"/><polygon fill="#EB9A98" points="212.5,407.9 166.2,262.3 161.1,272.2 204.9,410.4"/><path fill="#EB9A98" d="M297.4 380.3c3.8-2.9 5.5-7.8 4-12.4l-70.2-220.6c-.6-1.9-1.7-3.4-3.1-4.8l-4 7.6 73.3 230.2z"/><polygon fill="#EB9A98" points="166.2,422.8 134.6,323.3 129.4,333.2 158.6,425.1"/><polygon fill="#EB9A98" points="258.9,393.2 197.7,201.2 192.5,211.2 251.2,395.7"/><polygon fill="#EB9A98" points="197.1,412.9 155.7,282.6 150.4,292.6 189.5,415.3"/><polygon fill="#fff" points="282.1,385.8 213.7,170.6 208.3,180.8 274.3,388.3"/><polygon fill="#fff" points="189.5,415.3 150.4,292.6 145,302.9 181.6,417.8"/><polygon fill="#fff" points="235.8,400.7 182,231.6 176.7,241.9 228,403.1"/><polygon fill="#fff" points="204.9,410.4 161.1,272.2 155.7,282.6 197.1,412.9"/><polygon fill="#fff" points="220.3,405.4 171.5,252 166.2,262.3 212.5,407.9"/><polygon fill="#fff" points="266.7,390.7 203,191 197.7,201.2 258.9,393.2"/><path fill="#fff" d="M293.9 382.2c1.1-.4 2.3-1 3.2-1.7l-73-230.3-5.3 10.3 70.9 222.9 4.2-1.2z"/><polygon fill="#fff" points="251.2,395.7 192.5,211.2 187.2,221.6 243.4,398.2"/><polygon fill="#fff" points="112.4,439.7 98,394.2 92.6,404.5 104.6,442.4"/><polygon fill="#fff" points="97,444.7 87.3,414.6 81.9,424.9 89.2,447.2"/><polygon fill="#fff" points="81.6,449.6 76.8,435 71.5,445.3 73.7,452.1"/><polygon fill="#fff" points="174,420.3 139.9,313 134.6,323.3 166.2,422.8"/><polygon fill="#fff" points="143.1,430 118.9,353.6 113.6,363.9 135.3,432.5"/><polygon fill="#fff" points="158.6,425.1 129.4,333.2 124.1,343.5 150.8,427.5"/><polygon fill="#fff" points="127.7,435 108.4,374 103.1,384.3 119.9,437.4"/><rect x="176.5" y="416.8" transform="matrix(.303 .953 -.953 .303 525.446 123.25)" fill="#EB9A98" width="4" height="8"/><rect x="161.1" y="421.7" transform="matrix(.303 .953 -.953 .303 519.405 141.32)" fill="#EB9A98" width="4" height="8"/><rect x="145.7" y="426.6" transform="matrix(.303 .953 -.953 .303 513.363 159.391)" fill="#EB9A98" width="4" height="8"/><rect x="114.8" y="436.5" transform="matrix(.303 .953 -.953 .303 501.156 195.694)" fill="#EB9A98" width="4" height="8"/><rect x="130.2" y="431.6" transform="matrix(.303 .953 -.953 .303 507.249 177.675)" fill="#EB9A98" width="4" height="8"/><path fill="#EB9A98" d="M70.3 456.3h2.1c.8 0 1.5-.2 2.3-.4l-1.1-3.8h-.2c-1.9.6-3.8.6-5.7.2l-1.5 2.9c1.4.7 2.8 1.1 4.1 1.1z"/><rect x="191.8" y="411.9" transform="matrix(.303 .953 -.953 .303 531.439 105.136)" fill="#EB9A98" width="4" height="8"/><polygon fill="#EB9A98" points="289.7,383.5 282.1,385.8 283.3,389.6 290.9,387.1 290.9,387.1"/><path fill="#EB9A98" d="M306.1 370.3l-71.1-224c-.2-.8-.6-1.5-1-2.1-.2-.6-.6-1-1-1.3l-.2-.4c-1-1.1-2.1-2.1-3.2-2.7l-1.5 2.9c1.3 1.3 2.5 2.9 3.1 4.8l70.2 220.6c1.5 4.8-.2 9.7-4 12.4l1.3 4.4c3.1-1 5.3-3.1 6.7-5.7 1-1.9 1.5-4.2 1.1-6.5 0-.8 0-1.6-.4-2.4z"/><rect x="207.4" y="407" transform="matrix(.303 .953 -.953 .303 537.601 86.895)" fill="#EB9A98" width="4" height="8"/><rect x="269.1" y="387.3" transform="matrix(.303 .953 -.953 .303 561.84 14.399)" fill="#EB9A98" width="4" height="8"/><rect x="222.8" y="402.1" transform="matrix(.303 .953 -.953 .303 543.643 68.824)" fill="#EB9A98" width="4" height="8"/><rect x="83.9" y="446.4" transform="matrix(.303 .953 -.953 .303 489.005 232.045)" fill="#EB9A98" width="4" height="8"/><rect x="253.5" y="392.3" transform="matrix(.303 .953 -.953 .303 555.727 32.683)" fill="#EB9A98" width="4" height="8"/><rect x="238.1" y="397.2" transform="matrix(.303 .953 -.953 .303 549.685 50.754)" fill="#EB9A98" width="4" height="8"/><polygon fill="#EB9A98" points="104.6,442.4 97,444.7 98.1,448.5 107.7,445.5 105.8,446"/><rect x="230.4" y="399.6" transform="matrix(.303 .953 -.953 .303 546.735 59.931)" fill="#fff" width="4" height="8.2"/><rect x="215" y="404.5" transform="matrix(.303 .953 -.953 .303 540.693 78.002)" fill="#fff" width="4" height="8.2"/><rect x="91.6" y="443.7" transform="matrix(.303 .953 -.953 .303 491.954 222.868)" fill="#fff" width="4" height="8.2"/><rect x="184.3" y="414.3" transform="matrix(.303 .953 -.953 .303 528.61 114.143)" fill="#fff" width="4" height="8.2"/><rect x="76.2" y="448.6" transform="matrix(.303 .953 -.953 .303 485.962 240.993)" fill="#fff" width="4" height="8.2"/><rect x="199.6" y="409.4" transform="matrix(.303 .953 -.953 .303 534.652 96.073)" fill="#fff" width="4" height="8.2"/><rect x="276.7" y="384.9" transform="matrix(.303 .953 -.953 .303 564.932 5.506)" fill="#fff" width="4" height="8.2"/><rect x="261.3" y="389.8" transform="matrix(.303 .953 -.953 .303 558.89 23.577)" fill="#fff" width="4" height="8.2"/><polygon fill="#fff" points="104.6,442.4 105.8,446 107.7,445.5 113.6,443.5 112.4,439.7"/><rect x="122.5" y="433.8" transform="matrix(.303 .953 -.953 .303 504.158 186.568)" fill="#fff" width="4" height="8.2"/><path fill="#fff" d="M289.7 383.5l1.1 3.8 7.8-2.5-1.3-4.4c-1 .8-2.1 1.3-3.2 1.7l-4.4 1.4z"/><rect x="246" y="394.7" transform="matrix(.303 .953 -.953 .303 552.848 41.647)" fill="#fff" width="4" height="8.2"/><rect x="168.7" y="419.1" transform="matrix(.303 .953 -.953 .303 522.283 132.356)" fill="#fff" width="4" height="8.2"/><rect x="137.9" y="428.9" transform="matrix(.303 .953 -.953 .303 510.2 168.497)" fill="#fff" width="4" height="8.2"/><rect x="153.3" y="424" transform="matrix(.303 .953 -.953 .303 516.241 150.427)" fill="#fff" width="4" height="8.2"/><path opacity=".1" enable-background="new" d="M298.7 384.6c3.1-1 5.3-3.1 6.9-5.7.4-1 .8-1.7 1-2.7 0-.2.2-.4.2-.8l.2-.8c.2-1.5 0-3.1-.6-4.6l-71.4-223.7c-.2-.8-.6-1.3-1-2.1-.2-.6-.6-1-1-1.5l-.2-.4c-1-1.1-2.1-2.1-3.2-2.7l-1.5 2.9-160.3 310-1.5 2.9c1.3.6 2.7 1 4.2 1.1h2.1c.8 0 1.3-.2 2.1-.4l224-71.5z"/><path opacity=".1" enable-background="new" d="M293.9 382.2c1.1-.4 2.3-1 3.2-1.7 3.8-2.9 5.5-7.8 4-12.4l-70-220.8c-.6-1.9-1.7-3.4-3.1-4.8-1.9-1.9-4.6-2.9-7.4-3.1l-.2-.6-3.4 1.1 3.6-1.1c3.1-1 6.3-.6 9 1 .6.4 1.1.8 1.7 1.1l1.5 1.3v.2l.2.4c.4.4.8 1 1 1.3.4.6.8 1.3 1 2.1l71.3 224 .6 2.3c.2 2.3-.2 4.6-1.1 6.5-1.3 2.7-3.6 4.8-6.7 5.7l-224.2 71.2c-.8.2-1.5.4-2.3.4h-2.1c-1.3-.2-2.9-.6-4-1.1h-.2c-2.7-1.3-4.8-3.6-5.7-6.7l-1.1-3.6c1.3 4 4.6 6.9 8.4 7.6l226-70.3z"/><line x1="80.6" y1="162" x2="80.6" y2="162" fill="none"/><path opacity=".1" enable-background="new" d="M121.6 170.4l-111.1 121.2 4.6 12 63.3 14.7c7.8 1.7 15.4-3.2 17.2-10.9l30.7-138.6-4.7 1.6z"/><path fill="#EB9A98" d="M10.8 291.4l68.6 15.4c6.1 1.3 12.4-2.5 13.7-8.8l28.6-127.9-110.9 121.3z"/><polygon fill="#fff" points="120.6,171.3 121.8,170.2 121.6,171.5"/><g fill="#fff"><polygon points="98.5,274.1 98.3,274.8 96.8,282.1 32.4,267.8 38.9,260.7"/><polygon points="109.2,226.8 107.5,234 107.3,234.8 70.3,226.4 76.6,219.5"/><polygon points="118.9,183.3 118,187.3 108.1,185.2 114.5,178.2 119.7,179.3 119.7,179.3"/><polygon points="105.6,242.6 104.4,248 103.9,250.6 57.5,240.1 64,233.3"/><polygon points="95.1,289.9 95.1,290.1 93.2,297.9 19.8,281.5 26.3,274.5"/><polygon points="114.5,203.2 95.5,199 101.8,191.9 116.3,195.1"/><polygon points="100.2,266.4 45,254.1 51.4,247 102.2,258.4"/><polygon points="110.9,219 82.9,212.7 89.2,205.6 112.6,211"/></g><path fill="#62BAE5" d="M419.9 390.7l66.5-225.3c1.7-6.1-1.7-12.4-7.8-14.3l-225.3-66.5c-6.1-1.7-12.4 1.7-14.3 7.8l-66.5 225.3c-1.7 6.1 1.7 12.4 7.8 14.3l225.3 66.5c6.1 1.8 12.6-1.7 14.3-7.8z"/><path fill="#fff" d="M242.5 350.3l7.8 2.3 73-247.4-7.8-2.3-73 247.4zm15.6 4.6l7.8 2.3 73-247.3-7.8-2.3-73 247.3zm15.4 4.6l7.8 2.3 73-247.4-7.8-2.3-73 247.4zm15.5 4.6l7.8 2.3 73-247.4-7.8-2.3-73 247.4zm-108.7-32.1l7.8 2.3 73-247.4-7.8-2.3-73 247.4zm46.7 13.7l7.8 2.3 73-247.4-7.8-2.3-73 247.4zm-31.1-9.1l7.8 2.3 73-247.4-7.8-2.3-73 247.4zm15.5 4.6l7.8 2.3 73-247.4-7.8-2.3-73 247.4zm155.4 45.7l7.8 2.3 73-247.4-7.8-2.3-73 247.4zm15.4 4.6l7.8 2.3 73-247.4-7.8-2.3-73 247.4zm88.5-242.7l-73 247.4 7.8 2.3 73-247.4-7.8-2.3zm-135 229l7.8 2.3 73-247.3-7.8-2.3-73 247.3zm-15.7-4.6l7.8 2.3 73-247.4-7.8-2.3-73 247.4zm-15.4-4.6l7.8 2.3 73-247.4-7.8-2.3-73 247.4zm46.5 13.8l7.8 2.3 73-247.4-7.8-2.3-73 247.4z"/><path opacity=".1" enable-background="new" d="M478.7 151.1l-3.7-1.1c5.9 1.7 9.3 8 7.6 14.1l-65.3 221.9c-1.7 5.9-8 9.3-14.1 7.6l-221.9-65.4c-5.9-1.7-9.3-8-7.6-14.1l-1.1 3.6c-1.7 6.1 1.7 12.4 7.8 14.3l225.3 66.5c6.1 1.7 12.4-1.7 14.3-7.8l66.5-225.3c1.7-6.1-1.7-12.6-7.8-14.3z"/><path opacity=".1" enable-background="new" d="M180.3 332l225.3 66.5c6.1 1.7 12.4-1.7 14.3-7.8l66.5-225.3c1-2.9.6-5.9-.8-8.6l-312 169.9c1.4 2.5 3.9 4.4 6.7 5.3z"/><ellipse opacity=".1" enable-background="new" cx="203.2" cy="484.5" rx="96.3" ry="10.9"/><ellipse opacity=".1" enable-background="new" cx="389.2" cy="476.7" rx="45.9" ry="5.3"/><rect x="327.4" y="256.9" transform="matrix(-.862 .507 -.507 -.862 842.472 512.666)" fill="#FCD700" width="48" height="228.1"/><rect x="371.4" y="241.7" transform="matrix(-.862 .507 -.507 -.862 883.097 471.086)" fill="#319616" width="12.1" height="228.1"/><polygon opacity=".1" points="333.9,388.8 388.6,481.6 440.4,451.1 403.6,388.8"/><path fill="#B152C4" d="M238.8 56.8h-76.6c-18 0-32.6 14.6-32.6 32.6l-.2 388.7c0 6.2 5.1 11.3 11.3 11.3h119.1c6.2 0 11.3-5.1 11.3-11.3l.2-388.7c.1-18-14.5-32.6-32.5-32.6z"/><path opacity=".25" fill="#231F20" enable-background="new" d="M135.7 104.6l-.2 369.1c0 5.3 4.5 9.6 10 9.6h109.5c5.5 0 10-4.3 10-9.6l.2-369.1h-129.5z"/><g opacity=".1" fill="#231F20"><path d="M146.4 85.7h-3.7c-1.8 0-3.1 1.4-3.1 3.1l-.2 383c0 1.8 1.4 3.1 3.1 3.1h3.7c1.8 0 3.1-1.4 3.1-3.1l.2-383c0-1.8-1.3-3.1-3.1-3.1z"/><path d="M168.3 85.7h-3.7c-1.8 0-3.1 1.4-3.1 3.1l-.2 383c0 1.8 1.4 3.1 3.1 3.1h3.7c1.8 0 3.1-1.4 3.1-3.1l.2-383c0-1.8-1.4-3.1-3.1-3.1z"/><path d="M190.2 85.7h-3.7c-1.8 0-3.1 1.4-3.1 3.1l-.2 383c0 1.8 1.4 3.1 3.1 3.1h3.7c1.8 0 3.1-1.4 3.1-3.1l.2-383c0-1.8-1.4-3.1-3.1-3.1z"/><path d="M212 85.7h-3.7c-1.8 0-3.1 1.4-3.1 3.1l-.2 383c0 1.8 1.4 3.1 3.1 3.1h3.7c1.8 0 3.1-1.4 3.1-3.1l.2-383c.1-1.8-1.3-3.1-3.1-3.1z"/><path d="M233.9 85.7h-3.7c-1.8 0-3.1 1.4-3.1 3.1l-.2 383c0 1.8 1.4 3.1 3.1 3.1h3.7c1.8 0 3.1-1.4 3.1-3.1l.2-383c0-1.8-1.3-3.1-3.1-3.1z"/><path d="M255.6 85.7h-3.7c-1.8 0-3.1 1.4-3.1 3.1l-.2 383c0 1.8 1.4 3.1 3.1 3.1h3.7c1.8 0 3.1-1.4 3.1-3.1l.2-383c.2-1.8-1.3-3.1-3.1-3.1z"/></g><rect x="129.4" y="124.7" opacity=".05" enable-background="new" width="141.8" height="119.9"/><rect x="129.4" y="124.7" fill="#FF8400" width="141.8" height="112.5"/><rect x="130.4" y="130" fill="#FCD700" width="140.2" height="102"/><path opacity=".1" d="M206.2 489.2h54.3c5.7 0 10.4-4.5 10.4-10.2l.1-390.4c0-17.6-14.3-31.8-31.8-31.8h-32.8l-.2 432.4z"/><ellipse transform="matrix(.001 -1 1 .001 22.731 383.944)" fill="#fff" cx="203.4" cy="180.6" rx="35" ry="61.3"/><ellipse transform="matrix(.001 -1 1 .001 22.731 383.944)" fill="#FF8400" cx="203.4" cy="180.6" rx="30.1" ry="52.5"/><path opacity=".1" fill="#231F20" enable-background="new" d="M206.4 145.6v69.9c33.2-.4 59.8-15.8 59.8-35s-26.6-34.5-59.8-34.9z"/><path fill="#FF8400" d="M220.6 27.7h-2v-11h-8.6v-4.9h-19.7v4.9h-8.6v11.1h-2c-6.6 0-12.1 5.5-12.1 12.1v.2c0 6.6 5.5 12.1 12.1 12.1h40.8c6.6 0 12.1-5.5 12.1-12.1v-.1c.1-6.9-5.3-12.3-12-12.3z"/><path fill="#FF8400" d="M211.1 3.1h-21.5c-3.5 0-6.2 2.5-6.2 5.9v.2c0 3.1 2.9 2.9 6.2 2.9h21.6c3.5 0 6.2.4 6.2-2.9v-.3c-.1-3.3-2.8-5.8-6.3-5.8z"/><rect x="190.4" y="11.8" opacity=".25" fill="#231F20" enable-background="new" width="19.9" height="4.9"/><rect x="181.8" y="16.7" opacity=".05" enable-background="new" width="36.9" height="11.1"/><path opacity=".25" fill="#231F20" enable-background="new" d="M220.6 27.7h-40.8c-6.6 0-12.1 5.5-12.1 12.1v.2c0 6.6 5.5 12.1 12.1 12.1h40.8c6.6 0 12.1-5.5 12.1-12.1v-.2c0-6.7-5.4-12.1-12.1-12.1z"/><rect x="158.7" y="39.8" fill="#FF8400" width="83.2" height="16.8"/><rect x="212.4" y="39.8" opacity=".05" enable-background="new" width="29.5" height="16.8"/><rect x="160.7" y="39.8" opacity=".35" fill="#fff" enable-background="new" width="12.3" height="16.8"/><g opacity=".25" fill="#231F20"><rect x="163.4" y="39.8" width="5.9" height="16.8"/><rect x="176.7" y="39.8" width="5.9" height="16.8"/><rect x="190" y="39.8" width="5.9" height="16.8"/><rect x="203.2" y="39.8" width="5.9" height="16.8"/><rect x="216.7" y="39.8" width="5.9" height="16.8"/><rect x="230" y="39.8" width="5.9" height="16.8"/></g><path opacity=".05" enable-background="new" d="M183.3 9.1c.2 2.9 2.9 2.7 6.2 2.7h21.5c3.5 0 6.2.2 6.2-2.7h-33.9z"/></svg>