<svg xmlns="http://www.w3.org/2000/svg" viewBox="0 0 400 400" enable-background="new 0 0 400 400"><ellipse opacity=".05" enable-background="new" cx="305.5" cy="383.6" rx="37.2" ry="5.4"/><ellipse opacity=".05" enable-background="new" cx="61.9" cy="383.6" rx="37.2" ry="5.4"/><path fill="#FFD4A6" d="M265.7 294.4c1.4 0 2.6-1.3 2.6-2.6s-1.3-2.6-2.6-2.6h-162.6c-1.4 0-2.6 1.3-2.6 2.6s1.3 2.6 2.6 2.6h162.6z"/><path opacity=".15" fill="#695641" enable-background="new" d="M265.7 294.4c1.4 0 2.6-1.3 2.6-2.6s-1.3-2.6-2.6-2.6h-162.6c-1.4 0-2.6 1.3-2.6 2.6s1.3 2.6 2.6 2.6h162.6z"/><rect x="105.8" y="291.8" opacity=".15" enable-background="new" width="162.5" height="2.6"/><path fill="#E36966" d="M66.4 132h145.1l101.7 6.2v10.3c0 47.5-38.6 86.1-86.1 86.1h-92.2c-38.3 0-69.4-31.1-69.4-69.4 0 .2.9-32.1.9-33.2z"/><path opacity=".05" enable-background="new" d="M211.8 132h-6.9l99.2 6.1v10.2c.3 45-37.5 83.6-83.9 83.9h-90.2c-10.8 0-21.1-2.6-30.2-7.2 10.3 6.1 22.2 9.7 35.1 9.7h92.3c47.5 0 86.1-38.6 86.1-86.1v-10.3l-101.5-6.3z"/><path opacity=".05" fill="#f00" enable-background="new" d="M65.7 169.4c2 36.4 32.2 65.4 69.2 65.4h92.3c40.5 0 74.2-27.8 83.4-65.4h-244.9z"/><polygon opacity=".15" enable-background="new" points="206.9,234.6 197.5,234.6 180.2,217.7 189.4,217.7"/><path fill="#FFD4A6" d="M66.7 130.2c-1.4 0-2.6 1.3-2.6 2.6 0 1.4 1.3 2.6 2.6 2.6h162.3c1.4 0 2.6-1.3 2.6-2.6s-1.3-2.6-2.6-2.6h-162.3z"/><path fill="#C4E9BB" d="M183.8 8.7v129.5h129.5c0-71.5-57.9-129.5-129.5-129.5z"/><path fill="#1EC9BA" d="M135.7 18l48.2 120.3v-129.6c-16.2 0-32.5 3.1-48.2 9.3z"/><path fill="#1EC9BA" d="M272.9 44.2c-2-1.8-3.9-3.8-5.9-5.4-1.3-1.1-2.6-2-4.1-3.1-1.8-1.4-3.8-3-5.8-4.4-1.8-1.3-3.8-2.3-5.6-3.4l-3.3-2c-.6-.3-1.1-.6-1.7-1-3.8-2-7.5-3.9-11.4-5.6l-51.3 119 91.5-91.6c-.7-.8-1.7-1.5-2.4-2.5z"/><path opacity=".15" enable-background="new" d="M64.1 132.8c.2 1.4 1.3 2.5 2.6 2.5h162.3c1.4 0 2.5-1.1 2.6-2.5h-167.5z"/><path fill="#FFD4A6" d="M138.6 16.9c-.5-1.4-2-2-3.4-1.6-1.4.4-2 2-1.6 3.4l47.5 121.6c.5 1.4 2 2 3.4 1.6 1.4-.5 2-2 1.6-3.4l-47.5-121.6z"/><path opacity=".15" enable-background="new" d="M135.4 15.4c-1.3.6-1.8 2-1.4 3.3l47.5 121.6c.5 1.3 1.8 1.8 3.3 1.6l-49.4-126.5z"/><path fill="#1EC9BA" d="M312.7 125.6c0-.6-.2-1.3-.3-1.8-.2-1.3-.3-2.5-.6-3.9-.3-2.2-.6-4.4-1-6.6-.5-2.3-1.1-4.7-1.7-7l-1.3-5c-.8-2.6-1.7-5.1-2.6-7.7l-1.3-3.3-120.3 48.2h129.5c.2-4.4 0-8.7-.4-12.9z"/><path fill="#FFD4A6" d="M303.1 337c1.8 1.8 5.1 1.8 7 0 1.9-1.8 1.8-5.1 0-7l-121.5-121.6c-1.8-1.8-5.1-1.8-7 0-1.9 1.8-1.8 5.1 0 7l121.5 121.6z"/><polygon opacity=".15" enable-background="new" points="302.9,87 301,83 152.6,234.7 158.8,234.7"/><rect x="242.7" y="184.2" transform="matrix(-.707 .707 -.707 -.707 602.807 281.245)" opacity=".75" fill="#FFFEFE" enable-background="new" width="1" height="162.5"/><rect x="194.6" y="138.3" opacity=".05" enable-background="new" width="118.7" height="3.8"/><rect x="240.5" y="190.6" transform="matrix(-.707 .707 -.707 -.707 605.627 295.391)" opacity=".15" fill="#695641" enable-background="new" width="2.3" height="165"/><rect x="182.5" y="211.2" transform="matrix(.707 -.707 .707 .707 -96.584 195.457)" opacity=".15" enable-background="new" width="10.3" height="6.2"/><path fill="#FFD4A6" d="M364.9 39.2c1.8-1.8 1.8-5.1 0-7-1.8-1.8-5.1-1.8-7 0l-298.1 297.8c-1.8 1.8-1.8 5.1 0 7 1.8 1.8 5.1 1.8 7 0l298.1-297.8z"/><rect x="210.2" y="-17.1" transform="matrix(.707 .707 -.707 .707 191.067 -95.398)" opacity=".75" fill="#FFFEFE" enable-background="new" width="1" height="400"/><rect x="216.1" y="-16.7" transform="matrix(.707 .707 -.707 .707 194.152 -99.579)" opacity=".15" fill="#695641" enable-background="new" width="2.3" height="402.5"/><circle fill="#E36966" cx="360.6" cy="35.2" r="12.6"/><circle opacity=".5" fill="#fff" enable-background="new" cx="360.6" cy="35.2" r="6.2"/><circle fill="#727272" cx="185.4" cy="210.8" r="1.4"/><circle fill="#4D4743" cx="105.8" cy="290.5" r="1.4"/><circle fill="#727272" cx="158.8" cy="237.5" r="1.4"/><circle fill="#4D4743" cx="263.9" cy="290.5" r="1.4"/><circle fill="#727272" cx="210.6" cy="237.2" r="1.4"/><rect x="78.9" y="297.4" transform="matrix(.707 .707 -.707 .707 246.197 32.606)" opacity=".15" enable-background="new" width="9.7" height="32.2"/><rect x="61.1" y="295.6" fill="#FFD4A6" width="3.1" height="74.1"/><rect x="25.7" y="331.1" fill="#FFD4A6" width="74.1" height="3.1"/><rect x="61.1" y="295.7" transform="matrix(.707 .707 -.707 .707 253.608 53.145)" fill="#FFD4A6" width="3.1" height="74.1"/><rect x="61" y="295.5" transform="matrix(-.707 .707 -.707 -.707 342.005 523.481)" fill="#FFD4A6" width="3.1" height="74.1"/><rect x="63.4" y="332.2" opacity=".5" fill="#FFFEFE" enable-background="new" width=".6" height="37"/><rect x="61.1" y="332.3" opacity=".1" fill="#695641" enable-background="new" width=".8" height="37"/><rect x="61.1" y="295.8" opacity=".5" fill="#FFFEFE" enable-background="new" width=".6" height="37"/><rect x="63.1" y="295.6" opacity=".1" fill="#695641" enable-background="new" width=".8" height="37"/><rect x="25.8" y="333.4" opacity=".5" fill="#FFFEFE" enable-background="new" width="37" height=".6"/><rect x="25.7" y="331.1" opacity=".1" fill="#695641" enable-background="new" width="37" height=".8"/><rect x="62.2" y="331.1" opacity=".5" fill="#FFFEFE" enable-background="new" width="37" height=".6"/><rect x="62.4" y="333.1" opacity=".1" fill="#695641" enable-background="new" width="37" height=".8"/><rect x="50.2" y="327.6" transform="matrix(-.707 -.707 .707 -.707 -158.513 626.559)" opacity=".5" fill="#FFFEFE" enable-background="new" width=".6" height="37"/><rect x="48.4" y="326.3" transform="matrix(-.707 -.707 .707 -.707 -160.514 623.136)" opacity=".1" fill="#695641" enable-background="new" width=".8" height="37"/><rect x="74.2" y="300.3" transform="matrix(.707 .707 -.707 .707 247.283 40.665)" opacity=".5" fill="#FFFEFE" enable-background="new" width=".6" height="37"/><rect x="75.8" y="301.6" transform="matrix(.707 .707 -.707 .707 248.696 39.889)" opacity=".1" fill="#695641" enable-background="new" width=".8" height="37"/><rect x="48.5" y="301.9" transform="matrix(.707 -.707 .707 .707 -212.228 128.384)" opacity=".5" fill="#FFFEFE" enable-background="new" width=".6" height="37"/><rect x="49.8" y="300.2" transform="matrix(.707 -.707 .707 .707 -210.661 128.846)" opacity=".1" fill="#695641" enable-background="new" width=".8" height="37"/><rect x="75.8" y="326.1" transform="matrix(-.707 .707 -.707 -.707 373.661 534.468)" opacity=".5" fill="#FFFEFE" enable-background="new" width=".6" height="37"/><rect x="74.5" y="327.7" transform="matrix(-.707 .707 -.707 -.707 372.647 538.169)" opacity=".1" fill="#695641" enable-background="new" width=".8" height="37"/><polygon fill="#695641" points="82.2,331.1 66.3,331.1 77.5,319.8 75.5,317.7 64.2,328.9 64.2,313 61.1,313 61.1,328.9 49.8,317.7 47.7,319.8 59,331.1 43,331.1 43,334.1 59,334.1 47.7,345.4 49.8,347.5 61.1,336.2 61.1,352.2 64.2,352.2 64.2,336.2 75.5,347.5 77.5,345.4 66.3,334.1 82.2,334.1" opacity=".15"/><path fill="#ccc" d="M62.7 281.8c-28.2 0-51 22.8-51 51s22.8 51 51 51 50.9-22.9 50.9-51c0-28.3-22.8-51-50.9-51zm0 84c-18.3 0-33.1-14.9-33.1-33.1s14.9-33.1 33.1-33.1 33.1 14.9 33.1 33.1-14.8 33.1-33.1 33.1z"/><circle fill="#BFBCB4" cx="62.7" cy="332.6" r="16.6"/><path opacity=".15" fill="#695641" enable-background="new" d="M74.4 344.4l-23.4-23.4c-6.4 6.4-6.4 17 0 23.4 5.9 5.9 15 6.4 21.6 1.6.5-.6 1.2-1.1 1.8-1.6z"/><circle fill="#FFD4A6" cx="62.7" cy="332.6" r="10.6"/><circle opacity=".15" fill="#695641" enable-background="new" cx="62.7" cy="332.6" r="12.8"/><path opacity=".15" fill="#695641" enable-background="new" d="M73.3 332.6h-21.2c0 5.8 4.7 10.6 10.6 10.6s10.6-4.7 10.6-10.6z"/><path opacity=".15" fill="#695641" enable-background="new" d="M62.7 294.7c-21 0-38 17-38 38s17 38 38 38 38-17 38-38c-.1-20.9-17.1-38-38-38zm0 71.1c-18.3 0-33.1-14.9-33.1-33.1s14.9-33.1 33.1-33.1 33.1 14.9 33.1 33.1-14.8 33.1-33.1 33.1z"/><rect x="279.4" y="295.5" transform="matrix(.707 -.707 .707 .707 -137.051 292.277)" opacity=".15" enable-background="new" width="9.7" height="32.2"/><rect x="266.4" y="331.1" fill="#FFD4A6" width="74.1" height="3.1"/><rect x="301.9" y="295.6" fill="#FFD4A6" width="3.1" height="74.1"/><rect x="301.9" y="295.6" transform="matrix(.707 -.707 .707 .707 -146.292 312.023)" fill="#FFD4A6" width="3.1" height="74.1"/><rect x="301.8" y="295.7" transform="matrix(.707 .707 -.707 .707 324.121 -117.097)" fill="#FFD4A6" width="3.1" height="74.1"/><rect x="303" y="331.3" opacity=".5" fill="#FFFEFE" enable-background="new" width="37" height=".6"/><rect x="303.1" y="333.4" opacity=".1" fill="#695641" enable-background="new" width="37" height=".8"/><rect x="266.6" y="333.6" opacity=".5" fill="#FFFEFE" enable-background="new" width="37" height=".6"/><rect x="266.4" y="331.3" opacity=".1" fill="#695641" enable-background="new" width="37" height=".8"/><rect x="304.2" y="332.3" opacity=".5" fill="#FFFEFE" enable-background="new" width=".6" height="37"/><rect x="301.9" y="332.6" opacity=".1" fill="#695641" enable-background="new" width=".8" height="37"/><rect x="301.9" y="296.1" opacity=".5" fill="#FFFEFE" enable-background="new" width=".6" height="37"/><rect x="303.9" y="295.8" opacity=".1" fill="#695641" enable-background="new" width=".8" height="37"/><rect x="316.6" y="326.3" transform="matrix(-.707 .707 -.707 -.707 784.913 364.529)" opacity=".5" fill="#FFFEFE" enable-background="new" width=".6" height="37"/><rect x="315.2" y="328" transform="matrix(-.707 .707 -.707 -.707 783.842 368.366)" opacity=".1" fill="#695641" enable-background="new" width=".8" height="37"/><rect x="289.4" y="302.1" transform="matrix(.707 -.707 .707 .707 -141.882 298.765)" opacity=".5" fill="#FFFEFE" enable-background="new" width=".6" height="37"/><rect x="290.6" y="300.5" transform="matrix(.707 -.707 .707 .707 -140.316 299.227)" opacity=".1" fill="#695641" enable-background="new" width=".8" height="37"/><rect x="290.9" y="328" transform="matrix(-.707 -.707 .707 -.707 252.146 797.495)" opacity=".5" fill="#FFFEFE" enable-background="new" width=".6" height="37"/><rect x="289.2" y="326.4" transform="matrix(-.707 -.707 .707 -.707 250.47 793.624)" opacity=".1" fill="#695641" enable-background="new" width=".8" height="37"/><rect x="315" y="300.6" transform="matrix(.707 .707 -.707 .707 318.021 -129.459)" opacity=".5" fill="#FFFEFE" enable-background="new" width=".6" height="37"/><rect x="316.7" y="301.9" transform="matrix(.707 .707 -.707 .707 319.485 -130.385)" opacity=".1" fill="#695641" enable-background="new" width=".8" height="37"/><polygon fill="#695641" points="323,331.1 307,331.1 318.3,319.8 316.3,317.7 305,328.9 305,313 301.9,313 301.9,328.9 290.6,317.7 288.5,319.8 299.7,331.1 283.8,331.1 283.8,334.1 299.7,334.1 288.5,345.4 290.6,347.5 301.9,336.2 301.9,352.2 305,352.2 305,336.2 316.3,347.5 318.3,345.4 307,334.1 323,334.1" opacity=".15"/><path fill="#ccc" d="M252.6 332.6c0 28.2 22.8 51 51 51s50.9-22.8 50.9-51-22.8-51-51-51-50.9 23-50.9 51zm84 0c0 18.3-14.9 33.1-33.1 33.1-18.3 0-33.1-14.9-33.1-33.1s14.9-33.1 33.1-33.1c18.3 0 33.1 14.9 33.1 33.1z"/><circle fill="#BFBCB4" cx="303.4" cy="332.6" r="16.6"/><path opacity=".15" fill="#695641" enable-background="new" d="M315.2 321l-23.4 23.4c6.4 6.4 17 6.4 23.4 0 5.9-5.9 6.4-15 1.6-21.6-.5-.8-1-1.4-1.6-1.8z"/><circle fill="#FFD4A6" cx="303.4" cy="332.6" r="10.6"/><circle opacity=".15" fill="#695641" enable-background="new" cx="303.4" cy="332.6" r="12.8"/><path opacity=".15" fill="#695641" enable-background="new" d="M314.1 332.6h-21.3c0 5.8 4.7 10.6 10.6 10.6 5.9-.1 10.7-4.7 10.7-10.6z"/><path opacity=".15" fill="#695641" enable-background="new" d="M265.5 332.6c0 21 17 38 38 38s38-17 38-38-17-38-38-38c-20.9.1-38 17.2-38 38zm71.1 0c0 18.3-14.9 33.1-33.1 33.1-18.3 0-33.1-14.9-33.1-33.1s14.9-33.1 33.1-33.1c18.3 0 33.1 14.9 33.1 33.1z"/><path opacity=".15" enable-background="new" d="M184.4 121.1c-2.3 0-4.7.6-6.7 1.7l4.7 10.2h-12.5c-.3 1.1-.6 2-.6 3.3 0 8.3 6.7 15 15 15s15-6.7 15-15c.1-8.5-6.6-15.2-14.9-15.2z"/><circle fill="#D6D6D6" cx="184.4" cy="136.1" r="13.1"/><path opacity=".15" fill="#1F1915" enable-background="new" d="M193.8 145.4l-18.6-18.6c-5.1 5.1-5.1 13.4 0 18.6 4.7 4.7 12 5.1 17.2 1.3.3-.5.9-.8 1.4-1.3z"/><circle fill="#FFD4A6" cx="184.4" cy="136.1" r="8.4"/><circle opacity=".15" fill="#1F1915" enable-background="new" cx="184.4" cy="136.1" r="10.2"/><path opacity=".15" fill="#1F1915" enable-background="new" d="M192.9 136.1h-16.9c0 4.7 3.8 8.4 8.4 8.4 4.7.1 8.5-3.7 8.5-8.4z"/><path fill="#fff" d="M362.1 35.2c.5-.8-.3-1.4-1.4-1.4-.8 0-1.4.6-1.4 1.4s.6 1.4 1.4 1.4c.7 0 1.1-.8 1.4-1.4z"/><path opacity=".15" fill="#695641" enable-background="new" d="M369.4 43.6l-17.7-17.7c-4.9 4.9-4.9 12.8 0 17.7 4.9 4.9 12.9 4.9 17.7 0z"/></svg>