<svg xmlns="http://www.w3.org/2000/svg" viewBox="0 0 500 500" enable-background="new 0 0 500 500"><polygon fill="#991512" points="19.2,9.6 2.8,5.7 133.1,136 139.3,129.7"/><polygon fill="#fff" points="19.2,12.3 20.4,14.9 138.5,133.1 139.3,132.5"/><polygon fill="#E36966" points="161.2,107.7 111,158.1 104.9,192.2 320.9,408.2 411.6,317.6 195.6,101.6"/><rect x="393.5" y="345.7" transform="matrix(-.707 .707 -.707 -.707 982.113 402.009)" fill="#D81E1A" width="28.5" height="117.4"/><rect x="391.5" y="438.9" transform="matrix(-.707 .707 -.707 -.707 1082.409 443.754)" fill="#E36966" width="115.6" height="14.3"/><rect x="361.2" y="359.2" transform="matrix(-.707 .707 -.707 -.707 904.007 369.724)" opacity=".15" enable-background="new" width="28.5" height="25.8"/><rect x="109.2" y="115.4" transform="matrix(-.707 .707 -.707 -.707 308.642 123.422)" fill="#D81E1A" width="39.1" height="20.5"/><rect x="113.8" y="126" transform="matrix(-.707 .707 -.707 -.707 319.488 127.734)" opacity=".1" enable-background="new" width="39.1" height="8"/><rect x="426.9" y="433.5" transform="matrix(-.707 .707 -.707 -.707 1062.772 435.675)" opacity=".15" enable-background="new" width="28.5" height="9"/><rect x="112.7" y="107.7" transform="matrix(-.707 .707 -.707 -.707 280.656 111.608)" opacity=".1" enable-background="new" width="9" height="12.5"/><g opacity=".7"><path opacity=".75" fill="#fff" enable-background="new" d="M236.8 228c28.7 0 73 2.3 73 5.3l60.9 60.2c9.4 9.4 9.4 24.4 0 33.6l-39.8 39.8c-9.4 9.4-24.4 9.4-33.6 0l-131.8-133.7c0-2.9 42.6-5.2 71.3-5.2z"/><path opacity=".1" enable-background="new" d="M165.5 232.9c.4-2.5 42.6-4.9 71.3-4.9s73.4 2.1 73 4.9c-.4 2.7-44.3 3.9-73 4.9-29.7.9-71.7-1.8-71.3-4.9z"/></g><g opacity=".75" fill="#fff"><rect x="250.6" y="115.6" transform="matrix(.707 -.707 .707 .707 -102.867 252.777)" width="6.2" height="269.9"/><rect x="157.5" y="114.3" transform="matrix(.707 .707 -.707 .707 158.284 -67.427)" width="6.1" height="86.1"/><rect x="177.1" y="155" transform="matrix(.707 .707 -.707 .707 177.035 -75.206)" width="4.5" height="42.2"/><rect x="196" y="173.8" transform="matrix(.707 .707 -.707 .707 195.896 -83.11)" width="4.5" height="42.2"/><rect x="214.9" y="192.8" transform="matrix(.707 .707 -.707 .707 214.814 -90.877)" width="4.5" height="42.2"/><rect x="233.7" y="211.4" transform="matrix(.707 .707 -.707 .707 233.537 -98.724)" width="4.5" height="42.2"/><rect x="251.8" y="208.4" transform="matrix(.707 .707 -.707 .707 252.426 -106.559)" width="6.1" height="86.1"/><rect x="346.2" y="302.8" transform="matrix(.707 .707 -.707 .707 346.847 -145.658)" width="6.1" height="86.1"/><rect x="271.4" y="249.1" transform="matrix(.707 .707 -.707 .707 271.178 -114.338)" width="4.5" height="42.2"/><rect x="290.2" y="268" transform="matrix(.707 .707 -.707 .707 290.096 -122.104)" width="4.5" height="42.2"/><rect x="308.9" y="286.8" transform="matrix(.707 .707 -.707 .707 308.875 -129.813)" width="4.5" height="42.2"/><rect x="327.9" y="305.7" transform="matrix(.707 .707 -.707 .707 327.736 -137.718)" width="4.5" height="42.2"/></g><polygon opacity=".05" enable-background="new" points="132.3,169 109.8,191.1 320.6,401.8 342.8,379.5"/><polygon opacity=".25" fill="#fff" enable-background="new" points="194.2,107.3 184.4,116.5 395.2,327.2 404.5,317.8"/></svg>