<svg xmlns="http://www.w3.org/2000/svg" width="140.625" height="140.625"><ellipse opacity=".25" enable-background="new" cx="70.068" cy="125.57" rx="23.187" ry="2.753"/><ellipse opacity=".25" enable-background="new" cx="108.54" cy="123.891" rx="24.867" ry="4.432"/><rect x="106.067" y="14.206" fill="#42C91E" width="3.965" height="95.268"/><rect x="108.026" y="14.206" opacity=".1" enable-background="new" width="1.959" height="95.268"/><rect x="106.067" y="107.841" opacity=".1" enable-background="new" width="3.965" height="3.593"/><path fill="#169ADB" d="M107.979 108.821c-1.353 0-2.473.187-2.473.374v10.217h4.852l.094-10.217c0-.234-1.119-.374-2.473-.374z"/><path opacity=".1" enable-background="new" d="M107.84 119.458h2.472l.094-10.217c0-.233-1.12-.374-2.473-.374h-.141v10.591h.048z"/><path fill="#1EC9BA" d="M87.871 119.831c-.512 1.261-3.126 6.206-3.126 6.206h46.469l-3.546-6.206s-1.166-2.659-2.659-2.659h-8.817c-1.213 0-2.24-.653-2.986-1.585-.607-.747-1.54-1.26-2.566-1.213h-5.225c-1.027 0-1.96.466-2.567 1.259-.746.934-1.772 1.587-2.986 1.587h-8.865c-1.446-.001-2.613 1.399-3.126 2.611z"/><rect x="105.506" y="113.16" opacity=".1" enable-background="new" width="4.852" height="1.026"/><path opacity=".25" enable-background="new" d="M125.662 121.045l-.093-.094c.093.094-.419-2.379-.419-2.379h-9.797c-1.074 0-2.007-.606-2.66-1.446-.56-.653-1.353-1.12-2.286-1.12h-4.666c-.932 0-1.772.42-2.285 1.12-.653.839-1.586 1.446-2.66 1.446h-10.358l-.467 2.379-.093.094h35.784z"/><polygon opacity=".1" enable-background="new" points="89.878,121.045 85.352,126.037 130.607,126.037 125.755,121.045"/><polygon opacity=".45" enable-background="new" points="90.391,118.572 85.352,126.037 89.925,120.951"/><polygon opacity=".45" enable-background="new" points="125.195,118.572 130.607,126.037 125.708,120.951"/><path fill="#169ADB" d="M108.026 11.126c-1.307 0-2.333.187-2.333.373v3.172h4.666v-3.171c0-.187-1.073-.374-2.333-.374z"/><rect x="106.067" y="14.439" opacity=".05" enable-background="new" width="4.012" height="1.679"/><path opacity=".05" enable-background="new" d="M107.933 11.126v3.545h2.333v-3.171c0-.187-1.073-.374-2.333-.374z"/><polygon fill="#FFB86B" points="89.69,128.238 48.696,117.375 57.124,103.054 89.234,111.562"/><g opacity=".25"><polygon points="52.529,118.391 51.041,117.996 58.342,103.376 59.831,103.771"/><polygon points="56.047,119.323 54.559,118.928 61.183,104.129 62.671,104.523"/><polygon points="59.52,120.243 58.031,119.849 64.024,104.882 65.512,105.276"/><polygon points="62.991,121.164 61.504,120.769 66.865,105.634 68.354,106.029"/><polygon points="66.509,122.096 65.021,121.701 69.751,106.4 71.24,106.794"/><rect x="70.523" y="107.083" transform="matrix(-.967 -.256 .256 -.967 110.762 244.538)" width="1.54" height="15.957"/><polygon points="73.545,123.96 72.057,123.566 75.389,107.893 76.877,108.288"/><polygon points="77.062,124.892 75.574,124.498 78.185,108.634 79.673,109.028"/><polygon points="80.625,125.835 79.137,125.441 80.981,109.376 82.469,109.77"/><polygon points="84.143,126.768 82.7,126.386 83.777,110.117 85.265,110.511"/><polygon points="87.706,127.712 86.218,127.317 86.573,110.857 88.016,111.239"/></g><rect x="83.837" y="10.989" transform="matrix(-.967 -.256 .256 -.967 153.526 139.395)" fill="#FF8400" width="4.013" height="97.415"/><rect x="84.797" y="10.786" transform="matrix(-.967 -.256 .256 -.967 152.068 138.801)" fill="#fff" width=".56" height="97.415"/><rect x="86.24" y="11.168" transform="matrix(-.967 -.256 .256 -.967 154.857 139.88)" fill="#fff" width=".56" height="97.414"/><path fill="#FCD700" d="M88.368 108.823l-7.667-2.031c-.992-.263-1.706-1.032-2.122-2.01-.329-.763-.988-1.372-1.844-1.599l-4.33-1.148c-.857-.227-1.731-.023-2.395.477-.834.599-1.847.958-2.838.695l-7.848-2.079c-1.217-.322-2.473.407-2.795 1.625l-.897 3.382 33.463 8.865.896-3.381c.323-1.218-.407-2.473-1.623-2.796z"/><rect x="56.127" y="110.465" transform="matrix(-.967 -.256 .256 -.967 112.944 238.3)" width="31.726" height="2.66" opacity=".1"/><rect x="72.573" y="101.757" transform="matrix(-.967 -.256 .256 -.967 120.498 220.094)" width="4.013" height=".887" opacity=".1"/><rect x="86.32" y="11.312" transform="matrix(-.967 -.256 .256 -.967 156.969 136.137)" fill="#FCD700" width="2.054" height="93.076" opacity=".05"/><path fill="#FF8400" d="M98.767 10.561c-1.262-.335-2.302-.417-2.35-.237l-.813 3.066 4.51 1.196.813-3.067c.059-.226-.897-.623-2.16-.958z"/><rect x="95.799" y="13.713" transform="matrix(-.967 -.256 .256 -.967 188.621 53.672)" width="4.013" height="1.68" opacity=".05"/><path d="M98.677 10.537l-.908 3.428 2.255.597.812-3.067c.06-.226-.941-.636-2.159-.958z" opacity=".05"/><ellipse opacity=".1" enable-background="new" cx="41.854" cy="130.856" rx="23.661" ry="3.689"/><rect x="56.288" y="52.639" transform="matrix(-.976 -.218 .218 -.976 104.939 126.208)" fill="#FCD700" width="6.315" height="9.33"/><g opacity=".05"><rect x="56.647" y="52.04" transform="matrix(-.976 -.219 .219 -.976 99.94 124.475)" width=".426" height="9.33"/><rect x="57.534" y="52.248" transform="matrix(-.976 -.219 .219 -.976 101.61 125.102)" width=".425" height="9.33"/><rect x="58.454" y="52.464" transform="matrix(-.976 -.217 .217 -.976 103.551 125.62)" width=".426" height="9.331"/><rect x="59.339" y="52.673" transform="matrix(-.977 -.216 .216 -.977 105.333 126.172)" width=".426" height="9.33"/><rect x="60.267" y="52.855" transform="matrix(-.976 -.22 .22 -.976 106.835 126.927)" width=".426" height="9.329"/><rect x="61.153" y="53.063" transform="matrix(-.976 -.219 .219 -.976 108.6 127.493)" width=".426" height="9.33"/><rect x="62.074" y="53.279" transform="matrix(-.976 -.22 .22 -.976 110.336 128.146)" width=".425" height="9.33"/></g><path fill="#B152C4" d="M66.224 66.329l-3.511-3.547-8.549-1.915-4.683 1.738c-1.171.425-2.022 1.418-2.271 2.625l-7.84 34.977c-.248 1.029.426 2.058 1.455 2.306l16.211 3.618c1.029.249 2.057-.425 2.306-1.455l7.84-34.976c.247-1.207-.107-2.484-.958-3.371zm-15.077 8.656c-.249 1.135-1.383 1.844-2.519 1.596h-.035c-1.135-.249-1.844-1.384-1.596-2.519l1.631-7.307c.249-1.136 1.385-1.845 2.519-1.597h.036c1.135.249 1.845 1.383 1.596 2.519l-1.632 7.308z"/><path opacity=".1" enable-background="new" d="M53.169 67.89c.284-1.349-.532-2.66-1.88-2.944h-.035c-1.348-.283-2.661.532-2.944 1.88l-1.632 7.237c-.284 1.348.532 2.66 1.88 2.944h.035c1.348.284 2.661-.533 2.944-1.88l1.632-7.237zm-4.576 8.655h-.035c-1.135-.248-1.845-1.384-1.597-2.519l1.632-7.308c.249-1.135 1.383-1.845 2.519-1.596h.036c1.135.249 1.845 1.384 1.597 2.519l-1.632 7.309c-.285 1.134-1.384 1.844-2.52 1.595z"/><path opacity=".05" enable-background="new" d="M39.406 100.171c-.248 1.029.426 2.058 1.455 2.306l16.211 3.618c1.028.249 2.058-.426 2.306-1.455l3.512-15.68-22.03 4.649-1.454 6.562z"/><polygon opacity=".1" enable-background="new" points="55.333,61.186 61.505,62.569 62.605,57.638 55.794,59.057"/><path opacity=".25" d="M66.011 70.302c.249-1.136-.071-2.306-.887-3.122l-3.263-3.334-8.018-1.773s-3.086.497-2.092 1.525c.993 1.029 2.625 1.525 2.234 3.264l-2.164 9.826c-.39 1.809-2.199 2.944-4.008 2.555h-.071c-1.525-.355-3.263-.284-3.583 1.135l-4.114 18.411c-.213.958.389 1.95 1.348 2.164l15.147 3.405c.958.213 1.951-.39 2.164-1.348l7.307-32.708z"/><path fill="#169ADB" d="M44.727 93.643l-2.873-15.75c-.39-2.057-1.738-3.654-3.476-4.469h-.037c-.283-.142-.603-.249-.922-.32-1.419-.886.142-2.838.142-2.838.709-.851 1.029-1.951.817-3.122-.249-1.312-1.845-3.157-3.796-5l-6.74-5.57-4.327 6.208 1.312 1.455c.426.497.177 1.277-.497 1.383 0 0-1.242.781-3.867 1.986-2.625 1.207-4.647 3.299-4.08 6.35l4.399 24.051c.461 2.412 2.554 2.803 4.966 2.341l15.183-2.767c2.412-.425 4.257-1.489 3.796-3.938z"/><g opacity=".25"><path d="M35.291 71.579l-5.71.745c-.604.107-1.029.355-.922.958v.035c.106.604.603.604 1.205.497l4.825-.887c.958-.177 1.88-.105 2.767.143-1.419-.887.142-2.838.142-2.838-.64.673-1.385 1.17-2.307 1.347z"/><path d="M38.378 73.424z"/></g><polygon fill="#F46060" points="26.813,56.999 25.181,55.723 22.343,56.183 21.456,57.318 21.634,60.192 23.265,61.469 22.662,62.249 23.797,63.171 28.551,57.142 27.416,56.219"/><rect x="22.102" y="59.012" transform="matrix(-.62 .784 -.784 -.62 84.503 79.206)" opacity=".05" enable-background="new" width="1.951" height="2.093"/><rect x="24.917" y="56.009" transform="matrix(-.62 .784 -.784 -.62 85.931 72.515)" opacity=".15" fill="#fff" enable-background="new" width=".994" height="2.093"/><rect x="21.821" y="58.439" transform="matrix(-.62 .784 -.784 -.62 86.212 76.129)" opacity=".05" enable-background="new" width="5.71" height=".994"/><polygon opacity=".05" enable-background="new" points="21.917,56.751 21.456,57.318 21.634,60.192 22.84,58.632"/><rect x="26.477" y="57.19" transform="matrix(-.62 .784 -.784 -.62 89.222 72.636)" opacity=".15" fill="#fff" enable-background="new" width="1.1" height="1.454"/><rect x="22.732" y="60.939" transform="matrix(-.62 .784 -.784 -.62 87.332 81.042)" opacity=".05" enable-background="new" width="2.625" height="1.454"/><rect x="22.188" y="59.834" transform="matrix(-.62 .784 -.784 -.62 89.26 76.805)" opacity=".05" enable-background="new" width="7.698" height=".355"/><polygon opacity=".15" fill="#fff" enable-background="new" points="22.236,56.326 22.094,56.503 24.294,56.822 24.897,56.042"/><path opacity=".1" d="M42.882 92.828l-2.696-14.722c-.354-1.916-1.596-3.441-3.264-4.186h-.035c-.284-.142-.568-.213-.888-.319-1.064-.639-.354-1.951-.035-2.448.213-.39.426-.674.426-.674.071-.106.142-.213.213-.283.318-.639.425-1.384.284-2.129-.214-1.242-1.739-2.944-3.548-4.682l-5.782-4.967-3.227 4.222 1.029 1.1c.142.142.178.319.212.497l.355.39c.426.461.142 1.207-.461 1.312 0 0-1.667 1.241-4.115 2.412-2.448 1.135-4.363 3.087-3.831 5.959l4.115 22.49c.426 2.271 2.376 2.625 4.646 2.2l13.09-2.412c2.235-.461 3.939-1.489 3.512-3.76z"/><path opacity=".1" enable-background="new" d="M40.86 97.617c2.412-.461 4.257-1.525 3.831-3.974l-2.874-15.75c-.354-1.88-1.524-3.37-3.05-4.221l-18.233 23.2.213 1.171c.461 2.412 2.554 2.802 4.966 2.34l15.147-2.766z"/><polygon fill="#CFCFCF" points="37.313,49.657 35.397,48.947 32.417,56.964 33.056,56.999"/><polygon opacity=".1" enable-background="new" points="37.313,49.657 35.397,48.947 32.417,56.964 33.056,56.999"/><path fill="#ccc" d="M44.053 46.286l-11.352-.673-.32 5.214 6.989.781c.319.035.567.212.709.497l.958 2.058 3.157.177.674-1.526c.142-.354.532-.567.922-.532l3.974.532c.532.071.887-.496.638-.958l-1.49-2.589c-1.028-1.739-2.837-2.874-4.859-2.981z"/><polygon fill="#CFCFCF" points="32.381,50.792 31.14,49.94 31.354,46.286 32.701,45.613"/><polygon opacity=".1" enable-background="new" points="32.381,50.792 31.14,49.94 31.354,46.286 32.701,45.613"/><polygon opacity=".1" enable-background="new" points="34.439,51.537 35.823,52.246 36.391,51.253 34.617,51.04"/><path opacity=".1" enable-background="new" d="M50.402 51.855l-1.49-2.589c-.567-.958-1.348-1.703-2.306-2.235l-10.678 4.151 3.441.39c.319.036.567.213.709.496l.958 2.058 3.157.178.674-1.526c.142-.354.532-.567.922-.532l3.974.532c.533.072.888-.461.639-.923z"/><rect x="39.87" y="53.631" transform="matrix(-.998 -.059 .059 -.998 81.516 112.722)" fill="#CFCFCF" width="5.109" height="3.05"/><rect x="40.331" y="53.524" transform="matrix(-.998 -.059 .059 -.998 77.988 112.398)" opacity=".1" enable-background="new" width=".638" height="3.052"/><rect x="41.503" y="53.595" transform="matrix(-.998 -.06 .06 -.998 80.277 112.638)" opacity=".1" enable-background="new" width=".638" height="3.05"/><rect x="42.709" y="53.666" transform="matrix(-.998 -.06 .06 -.998 82.686 112.852)" opacity=".1" enable-background="new" width=".638" height="3.051"/><rect x="43.879" y="53.736" transform="matrix(-.998 -.057 .057 -.998 85.156 112.966)" opacity=".1" enable-background="new" width=".639" height="3.051"/><polygon opacity=".05" enable-background="new" points="44.656,53.275 40.505,53.026 40.754,53.559 44.443,53.771"/><path fill="#CFCFCF" d="M45.578 68.067l.568-9.791c.035-.745-.532-1.383-1.277-1.419l-4.683-.284c-.532-.035-.993.249-1.277.674l-.106.178c-.568 1.029-.852 2.164-.815 3.334l.354 5.569c.037 1.1-.567 1.703-1.419 2.129-.178.106-.39.177-.603.284-3.654 1.845-8.159 7.166-8.833 19.014l-.319 5.534c-.071 1.135.815 2.128 1.95 2.199l17.311 1.029c1.136.07 2.129-.816 2.199-1.952l1.065-17.701c.248-4.114-4.328-5.426-4.115-8.797z"/><path fill="#1EC9BA" d="M45.578 68.067l.568-9.791c.035-.745-.532-1.383-1.277-1.419l-4.683-.284c-.532-.035-.993.249-1.277.674l-.106.178c-.568 1.029-.852 2.164-.815 3.334l.354 5.569c.037 1.1-.567 1.703-1.419 2.129-.178.106-.39.177-.603.284-3.654 1.845-8.159 7.166-8.833 19.014l-.319 5.534c-.071 1.135.815 2.128 1.95 2.199l17.311 1.029c1.136.07 2.129-.816 2.199-1.952l1.065-17.701c.248-4.114-4.328-5.426-4.115-8.797z"/><path opacity=".1" d="M46.252 58.312c.035-.354-.106-.709-.319-.958l-4.186-.249c-.497-.036-.958.212-1.207.674l-.107.178c-.567.994-.815 2.093-.78 3.228l.355 5.392c.036 1.064-.568 1.631-1.384 2.057-.178.107-.391.178-.603.284-3.512 1.809-7.875 6.918-8.549 18.34l-.319 5.285c-.071 1.099.781 2.058 1.88 2.129l16.743.993c.213 0 .426-.035.639-.071.177-.284.319-.639.319-.993l1.065-17.701c.248-4.079-4.328-5.428-4.115-8.797l.568-9.791z"/><path opacity=".05" enable-background="new" d="M27.168 93.29c-.071 1.135.815 2.128 1.95 2.199l17.311 1.029c1.136.07 2.129-.816 2.199-1.952l1.065-17.701c.035-.532-.036-1.028-.143-1.49l-22.063 12.841-.319 5.074z"/><polygon fill="#FFDB06" points="60.193,75.801 46.5,94.389 61.542,98.681"/><polygon opacity=".25" enable-background="new" points="60.193,75.801 46.5,94.389 61.542,98.681"/><polygon fill="#E36966" points="66.366,78.958 17.448,78.958 24.01,130.855 59.803,130.855"/><polygon opacity=".03" enable-background="new" points="66.366,78.958 47.352,78.958 46.429,130.855 59.803,130.855"/><polygon opacity=".05" enable-background="new" points="26.139,78.958 17.448,78.958 24.01,130.855 28.658,130.855"/><path opacity=".05" enable-background="new" d="M41.889 111.7c-9.755 0-18.163-5.747-22.064-13.976l.461 3.618c4.611 7.06 12.558 11.742 21.603 11.742 9.046 0 16.992-4.682 21.604-11.742l.461-3.618c-3.902 8.265-12.31 13.976-22.065 13.976z"/><polygon opacity=".5" fill="#fff" enable-background="new" points="33.163,78.958 31.672,78.958 34.155,130.855 35.681,130.855"/><path fill="#8E8E8E" d="M67.713 82.825c0-.994-.674-1.845-1.596-2.128l-.178 1.418c.248.178.391.426.391.745v.106c0 13.516-10.961 24.442-24.442 24.442-13.515 0-24.441-10.961-24.441-24.442v-.106c0-.319.177-.567.39-.745l-.177-1.418c-.922.283-1.596 1.135-1.596 2.128v.106c0 14.261 11.564 25.825 25.824 25.825 14.261 0 25.825-11.564 25.825-25.825v-.106z"/><path opacity=".25" fill="#fff" enable-background="new" d="M66.118 80.908l-.071.568c.177.142.284.354.284.603v1.099c0 13.515-10.961 24.441-24.442 24.441-13.515 0-24.441-10.961-24.441-24.441v-1.099c0-.248.142-.461.284-.603l-.071-.568c-.851.284-1.455 1.029-1.561 1.917.355 13.941 11.742 25.151 25.789 25.151 14.048 0 25.435-11.21 25.79-25.151-.072-.888-.71-1.633-1.561-1.917z"/><path opacity=".1" enable-background="new" d="M28.976 78.958l-2.696 4.328c-.177.284-.283.638-.354.958l-.249 1.88-.567 4.364c-.106.922.532 1.773 1.455 1.88h.035c.922.106 1.774-.532 1.88-1.455l.567-4.363.815.107-.425 3.795-1.313 10.394c-.105.922.533 1.774 1.456 1.881h.035c.922.106 1.773-.533 1.88-1.455l1.312-10.393.816.106-1.454 11.387c-.106.923.532 1.774 1.454 1.88h.035c.923.106 1.774-.532 1.881-1.454l1.454-11.387.816.106-1.312 10.394c-.106.923.532 1.774 1.455 1.88h.036c.922.106 1.773-.532 1.88-1.455l1.312-10.393.816.105-.958 7.415c-.106.922.532 1.774 1.455 1.88h.035c.922.106 1.774-.532 1.881-1.455l.957-7.414.497-3.795.391-9.755h-17.278v.034z"/><path opacity=".1" enable-background="new" d="M60.584 78.958h-21.214l-.035.071-.745 1.737-1.738 4.044c-.354.851.036 1.845.887 2.234h.036c.851.355 1.845-.035 2.235-.887l1.738-4.044.78.319-1.526 3.512-4.114 9.613c-.354.851.035 1.845.887 2.235h.035c.852.354 1.845-.036 2.236-.887l4.114-9.614.78.32-4.54 10.535c-.354.852.035 1.845.887 2.235h.035c.851.354 1.845-.035 2.235-.886l4.54-10.536.781.32-4.114 9.613c-.355.852.035 1.844.887 2.235h.035c.851.354 1.845-.036 2.235-.887l4.115-9.614.781.32-2.944 6.846c-.354.852.036 1.845.887 2.234h.035c.852.354 1.845-.036 2.235-.887l2.944-6.847 1.525-3.512 3.085-9.822z"/><path fill="#FCD700" d="M29.013 90.841c.957.107 1.808-.532 1.915-1.455l.567-4.363.816.106-.497 3.795-1.277 10.394c-.106.922.532 1.774 1.454 1.88h.036c.923.107 1.774-.532 1.88-1.454l1.312-10.394.817.105-1.455 11.388c-.106.922.532 1.774 1.455 1.881h.035c.922.106 1.774-.533 1.88-1.455l1.455-11.387.816.106-1.312 10.393c-.106.923.532 1.774 1.455 1.881h.036c.922.106 1.773-.532 1.879-1.455l1.383-10.358.817.106-.958 7.415c-.105.922.533 1.774 1.455 1.879h.035c.923.107 1.774-.532 1.88-1.455l.958-7.413.497-3.796.497-11.67-.036-.036-15.005-1.916h-.035l-5.108 8.16c-.178.283-.284.638-.355.957l-.248 1.881-.567 4.363c-.039.96.6 1.775 1.523 1.917z"/><path opacity=".05" enable-background="new" d="M45.011 99.851h.036c.922.107 1.738-.532 1.879-1.455l1.419-11.245.497-11.705-.71-.107-3.121 24.512z"/><path opacity=".05" enable-background="new" d="M41.96 90.238l-1.526 12.062h.036c.922.105 1.738-.533 1.88-1.455l1.312-10.394-1.702-.213z"/><path opacity=".05" enable-background="new" d="M37.739 89.67l-1.668 13.055h.036c.922.106 1.738-.533 1.88-1.455l1.454-11.387-1.702-.213z"/><path opacity=".05" enable-background="new" d="M33.553 89.139l-1.526 12.061h.036c.922.107 1.738-.532 1.88-1.454l1.313-10.394-1.703-.213z"/><path opacity=".05" enable-background="new" d="M29.828 84.811l-.781 6.03h.036c.922.107 1.738-.532 1.88-1.455l.567-4.363-1.702-.212z"/><path opacity=".05" enable-background="new" d="M39.938 89.954l.355.036-.071.674 2.59 6.739.886-7.023.816.106-.958 7.45c-.107.922.532 1.738 1.455 1.879h.072c.46.071.886-.07 1.241-.319.354-.249.567-.639.638-1.101l1.418-11.245.497-11.705-15.041-1.915-.106.177 6.208 16.247z"/><path opacity=".1" enable-background="new" d="M47.884 90.983l.497-3.796.497-11.67-.035-.036-7.663-.958-2.98 2.697c-.249.249-.461.532-.604.851l-.745 1.738-1.738 4.044c-.354.851.036 1.844.887 2.235h.036c.852.354 1.845-.035 2.235-.887l1.738-4.044.78.319-1.526 3.512-3.689 8.621-.318 2.483c.177.318.425.567.78.708h.035c.852.355 1.845-.035 2.235-.886l.603-1.454.603-4.576.816.106-.212 1.703 2.306-5.392.781.319-3.477 8.053-.568 4.434c.106.106.248.212.39.284h.035c.851.355 1.845-.036 2.234-.887l1.242-2.909.603-5.144.817.106-.285 2.307 2.093-4.861.781.32-3.229 7.521-.284 2.128c-.107.922.532 1.774 1.455 1.879h.035c.213.036.461 0 .639-.035.143-.142.284-.319.355-.532l1.099-2.554.746-5.747z"/><path fill="#FCD700" d="M36.852 85.201c.887.39 1.88 0 2.235-.887l1.739-4.044.78.32-1.525 3.511-4.115 9.614c-.356.851.034 1.844.886 2.235h.036c.851.355 1.844-.036 2.235-.887l4.114-9.614.78.319-4.541 10.536c-.354.851.035 1.844.887 2.235h.036c.851.354 1.845-.036 2.235-.888l4.541-10.535.78.319-4.115 9.614c-.355.852.036 1.844.887 2.235h.036c.851.355 1.844-.036 2.234-.888l4.115-9.613.781.32-2.945 6.846c-.354.851.036 1.845.888 2.235h.035c.851.355 1.844-.036 2.234-.887l2.945-6.846 1.524-3.512 3.513-11.032v-.036l-13.906-5.958h-.035l-7.13 6.456c-.249.248-.461.532-.603.852l-.745 1.738-1.738 4.044c-.356.85.034 1.844.922 2.198z"/><path opacity=".05" enable-background="new" d="M49.729 98.255h.036c.851.355 1.809-.036 2.199-.886l4.47-10.395 3.689-11.067-.639-.284-9.755 22.632z"/><path opacity=".05" enable-background="new" d="M49.445 88.181l-4.79 11.139h.036c.851.355 1.809-.035 2.2-.887l4.15-9.649-1.596-.603z"/><path opacity=".05" enable-background="new" d="M45.542 86.479l-5.179 12.096h.036c.851.355 1.809-.035 2.199-.886l4.541-10.571-1.597-.639z"/><path opacity=".05" enable-background="new" d="M41.641 84.811l-4.79 11.174h.036c.851.355 1.809-.035 2.199-.886l4.15-9.649-1.595-.639z"/><path opacity=".05" enable-background="new" d="M39.264 79.631l-2.412 5.57h.036c.852.355 1.809-.036 2.199-.887l1.739-4.044-1.562-.639z"/><path opacity=".05" enable-background="new" d="M47.565 87.365l.354.142-.284.638.638 7.201 2.803-6.492.781.319-2.945 6.882c-.354.851.035 1.809.887 2.199h.07100000000000001c.426.177.887.177 1.277 0 .39-.142.745-.461.922-.886l4.47-10.395 3.619-11.067-13.941-5.995-.142.141 1.49 17.313z"/><path fill="#EB9A98" d="M60.277 99.272l-12.396 13.523 5.571 17.499c.106.341.34.596.638.745h.021c.127.064.276.106.425.127h.255l.234-.042 24.961-7.931c.34-.106.596-.34.744-.638l.107-.297.021-.085.021-.085c.021-.169 0-.34-.064-.51l-7.888-24.983-.106-.234-.107-.17-.021-.042v-.021l-.17-.149-.192-.127c-.297-.17-.659-.212-1-.106l-11.054 3.526z"/><path fill="#EB9A98" d="M55.068 131.124z"/><path fill="#EB9A98" d="M54.622 131.166h0z"/><path fill="#EB9A98" d="M54.09 131.039c.149.085.319.127.489.127-.191 0-.34-.063-.489-.127z"/><path fill="#EB9A98" d="M54.813 131.166z"/><polygon fill="#EB9A98" points="56.791,130.57 55.94,130.847 55.94,130.847 57.513,130.336"/><path fill="#EB9A98" d="M80.03 123.171z"/><polygon fill="#EB9A98" points="78.308,123.725 78.308,123.725 79.18,123.448 79.158,123.448"/><polygon fill="#EB9A98" points="59.384,129.742 59.384,129.742 58.725,129.955 57.662,130.294 57.662,130.294 60.235,129.466 60.235,129.466"/><polygon fill="#EB9A98" points="62.829,128.657 62.829,128.657 62.701,128.678 63.679,128.381 63.679,128.381"/><polygon fill="#EB9A98" points="66.252,127.552 66.252,127.552 65.381,127.827 65.381,127.827 64.551,128.104 64.551,128.104 64.381,128.147 67.103,127.275 67.103,127.275"/><polygon fill="#fff" points="69.709,126.462 68.837,126.74 68.837,126.74"/><polygon fill="#fff" points="61.091,129.196 60.22,129.473 60.22,129.473"/><path fill="#fff" d="M61.957 128.934l.744-.255-.744.255z"/><path fill="#fff" d="M63.679 128.381l.702-.233-.702.233z"/><polygon fill="#fff" points="55.936,130.839 55.064,131.117 55.064,131.117"/><polygon fill="#fff" points="57.662,130.294 57.662,130.294 57.513,130.336"/><polygon fill="#fff" points="67.988,127.004 67.116,127.281 67.116,127.281"/><polygon fill="#fff" points="73.144,125.36 72.273,125.637 72.273,125.637"/><polygon fill="#fff" points="78.3,123.716 77.428,123.993 77.428,123.993"/><polygon fill="#fff" points="71.43,125.922 70.559,126.198 70.559,126.198"/><polygon fill="#fff" points="76.585,124.277 75.714,124.555 75.714,124.555"/><polygon fill="#fff" points="74.865,124.819 73.993,125.096 73.993,125.096"/><polygon fill="#fff" points="80.03,123.171 80.03,123.171 79.18,123.448"/><polygon fill="#fff" points="63.556,98.242 64.428,97.965 64.428,97.965"/><polygon fill="#fff" points="65.277,97.689 66.148,97.412 66.148,97.412"/><polygon fill="#fff" points="64.679,110.626 60.979,99.04 60.277,99.272 60.15,99.422 64.083,111.797"/><polygon fill="#fff" points="69.59,96.317 68.719,96.594 69.952,100.443 70.547,99.294"/><polygon fill="#fff" points="67.868,96.87 66.997,97.146 68.761,102.717 69.356,101.569"/><polygon fill="#fff" points="61.149,117.431 56.642,103.249 55.918,104.036 60.553,118.58"/><polygon fill="#fff" points="62.318,115.177 58.045,101.718 57.322,102.484 61.723,116.326"/><polygon fill="#fff" points="57.641,124.235 52.41,107.863 51.708,108.628 57.045,125.383"/><polygon fill="#fff" points="59.98,119.706 55.238,104.78 54.516,105.566 59.384,120.854"/><polygon fill="#fff" points="55.281,128.785 49.604,110.924 48.902,111.712 54.686,129.933"/><polygon fill="#fff" points="59.384,129.742 59.384,129.742 58.725,129.955"/><polygon fill="#fff" points="67.018,106.098 64.423,97.955 63.552,98.23 66.422,107.246"/><polygon fill="#fff" points="68.187,103.823 66.146,97.402 65.274,97.678 67.591,104.992"/><path fill="#fff" d="M71.333 95.828c-.126 0-.275 0-.403.064l-.489.148.681 2.126.596-1.149-.385-1.189z"/><polygon fill="#fff" points="56.45,126.51 51.007,109.394 50.306,110.159 55.854,127.658"/><polygon fill="#fff" points="63.488,112.903 59.448,100.188 58.747,100.953 62.893,114.05"/><polygon fill="#fff" points="62.701,98.508 61.83,98.784 65.253,109.521 65.848,108.373"/><polygon fill="#fff" points="62.829,128.657 61.957,128.934 61.957,128.934 62.701,128.678"/><polygon fill="#fff" points="64.551,128.104 63.679,128.381 63.679,128.381 64.381,128.147"/><polygon fill="#fff" points="58.811,121.981 53.835,106.311 53.112,107.098 58.215,123.129"/><polygon fill="#fff" points="66.267,127.545 65.396,127.823 65.396,127.823"/><polygon fill="#fff" points="56.791,130.57 56.791,130.57 57.513,130.336 57.662,130.294 57.662,130.294"/><polygon fill="#fff" points="79.158,123.448 79.18,123.448 80.03,123.171 80.03,123.171"/><path fill="#EB9A98" d="M80.923 121.833c0-.085-.021-.171-.063-.255l-7.931-24.983 7.952 24.983.042.255z"/><path fill="#EB9A98" d="M54.622 131.166h0z"/><path fill="#EB9A98" d="M80.774 122.555c.085-.149.128-.297.128-.468v-.254c.042.233 0 .488-.128.722z"/><path fill="#EB9A98" d="M72.715 96.211l.107.149-.107-.149z"/><path fill="#EB9A98" d="M54.112 131.039l.169-.319c-.425-.084-.808-.404-.936-.85l.128.404c.106.341.34.595.638.744.148.085.318.128.489.128-.191.02-.34-.022-.488-.107z"/><path fill="#EB9A98" d="M71.312 95.765l.021.063c.319 0 .596.128.83.34l.169-.318c.149.085.255.17.362.298v-.021c-.34-.362-.871-.532-1.382-.362l-.383.128.383-.128z"/><path fill="#fff" d="M71.333 95.828l-.021-.063-.383.128c.129-.043.278-.065.404-.065z"/><polygon fill="#EB9A98" points="56.663,130.146 55.854,127.658 55.281,128.785 55.812,130.422"/><polygon fill="#EB9A98" points="58.385,129.614 57.045,125.383 56.45,126.51 57.535,129.869"/><polygon fill="#EB9A98" points="61.809,128.509 59.384,120.854 58.811,121.981 60.958,128.785"/><polygon fill="#EB9A98" points="63.53,127.956 60.553,118.58 59.98,119.706 62.68,128.231"/><polygon fill="#EB9A98" points="60.086,129.062 58.215,123.129 57.641,124.235 59.257,129.316"/><path fill="#EB9A98" d="M54.898 130.698h.021l-.254-.766-.426.808c.234.043.447.043.659-.042z"/><path fill="#EB9A98" d="M54.813 131.166l.233-.042-.233.042z"/><path fill="#EB9A98" d="M54.558 131.166h0z"/><polygon fill="#EB9A98" points="66.975,126.871 62.893,114.05 62.318,115.177 66.125,127.147"/><polygon fill="#EB9A98" points="79.031,123.044 71.121,98.188 70.547,99.294 78.181,123.299"/><polygon fill="#EB9A98" points="77.309,123.576 69.952,100.443 69.356,101.569 76.458,123.852"/><polygon fill="#EB9A98" points="72.142,125.234 66.422,107.246 65.848,108.373 71.292,125.489"/><polygon fill="#EB9A98" points="73.864,124.682 67.591,104.992 67.018,106.098 73.014,124.958"/><polygon fill="#EB9A98" points="70.419,125.765 65.253,109.521 64.679,110.626 69.569,126.042"/><path fill="#EB9A98" d="M79.881 122.682c.425-.319.617-.871.446-1.382l-7.824-24.6c-.064-.213-.191-.383-.34-.533l-.446.851 8.164 25.664z"/><polygon fill="#EB9A98" points="65.253,127.424 61.723,116.326 61.149,117.431 64.403,127.679"/><polygon fill="#EB9A98" points="75.586,124.129 68.761,102.717 68.187,103.823 74.735,124.405"/><polygon fill="#EB9A98" points="68.697,126.318 64.083,111.797 63.488,112.903 67.847,126.595"/><polygon fill="#fff" points="78.181,123.299 70.547,99.294 69.952,100.443 77.309,123.576"/><polygon fill="#fff" points="67.847,126.595 63.488,112.903 62.893,114.05 66.975,126.871"/><polygon fill="#fff" points="73.014,124.958 67.018,106.098 66.422,107.246 72.142,125.234"/><polygon fill="#fff" points="69.569,126.042 64.679,110.626 64.083,111.797 68.697,126.318"/><polygon fill="#fff" points="71.292,125.489 65.848,108.373 65.253,109.521 70.419,125.765"/><polygon fill="#fff" points="76.458,123.852 69.356,101.569 68.761,102.717 75.586,124.129"/><path fill="#fff" d="M79.499 122.896c.127-.043.254-.106.361-.192l-8.143-25.685-.596 1.149 7.91 24.855.468-.127z"/><polygon fill="#fff" points="74.735,124.405 68.187,103.823 67.591,104.992 73.864,124.682"/><polygon fill="#fff" points="59.257,129.316 57.641,124.235 57.045,125.383 58.385,129.614"/><polygon fill="#fff" points="57.535,129.869 56.45,126.51 55.854,127.658 56.663,130.146"/><polygon fill="#fff" points="55.812,130.422 55.281,128.785 54.686,129.933 54.941,130.698"/><polygon fill="#fff" points="66.125,127.147 62.318,115.177 61.723,116.326 65.253,127.424"/><polygon fill="#fff" points="62.68,128.231 59.98,119.706 59.384,120.854 61.809,128.509"/><polygon fill="#fff" points="64.403,127.679 61.149,117.431 60.553,118.58 63.53,127.956"/><polygon fill="#fff" points="60.958,128.785 58.811,121.981 58.215,123.129 60.086,129.062"/><rect x="66.397" y="126.762" transform="matrix(.303 .953 -.953 .303 167.656 25.169)" fill="#EB9A98" width=".446" height=".893"/><rect x="64.682" y="127.31" transform="matrix(.303 .953 -.953 .303 167.016 27.218)" fill="#EB9A98" width=".447" height=".893"/><rect x="62.968" y="127.856" transform="matrix(.304 .953 -.953 .304 166.205 29.092)" fill="#EB9A98" width=".446" height=".894"/><rect x="59.517" y="128.954" transform="matrix(.304 .953 -.953 .304 164.849 33.143)" fill="#EB9A98" width=".446" height=".893"/><rect x="61.232" y="128.41" transform="matrix(.302 .953 -.953 .302 165.728 31.348)" fill="#EB9A98" width=".446" height=".893"/><path fill="#EB9A98" d="M54.558 131.166h.23399999999999999l.255-.042-.127-.426h-.021c-.212.064-.425.064-.638.021l-.17.319c.169.086.318.128.467.128z"/><rect x="68.111" y="126.214" transform="matrix(.302 .953 -.953 .302 168.397 23.219)" fill="#EB9A98" width=".447" height=".893"/><polygon fill="#EB9A98" points="79.031,123.044 78.181,123.299 78.308,123.725 79.158,123.448 79.158,123.448"/><path fill="#EB9A98" d="M80.859 121.577l-7.931-24.983-.106-.234-.107-.149-.021-.043c-.106-.127-.234-.233-.362-.297l-.169.318c.149.149.276.319.34.532l7.824 24.601c.17.531-.021 1.083-.446 1.381l.148.489c.34-.106.595-.34.744-.638.107-.213.17-.468.128-.723.001-.084.001-.169-.042-.254z"/><rect x="69.847" y="125.662" transform="matrix(.304 .953 -.953 .304 168.937 21.044)" fill="#EB9A98" width=".447" height=".894"/><rect x="76.726" y="123.468" transform="matrix(.304 .953 -.953 .304 171.636 12.962)" fill="#EB9A98" width=".447" height=".893"/><rect x="71.561" y="125.115" transform="matrix(.304 .953 -.953 .304 169.61 19.03)" fill="#EB9A98" width=".447" height=".893"/><rect x="56.068" y="130.054" transform="matrix(.303 .953 -.953 .303 163.563 37.271)" fill="#EB9A98" width=".446" height=".893"/><rect x="74.991" y="124.021" transform="matrix(.301 .954 -.954 .301 171.219 15.231)" fill="#EB9A98" width=".447" height=".893"/><rect x="73.276" y="124.568" transform="matrix(.304 .953 -.953 .304 170.283 17.015)" fill="#EB9A98" width=".447" height=".893"/><polygon fill="#EB9A98" points="58.385,129.614 57.535,129.869 57.662,130.294 58.725,129.955 58.512,130.018"/><rect x="72.412" y="124.844" transform="matrix(.302 .953 -.953 .302 170.177 18.241)" fill="#fff" width=".447" height=".914"/><rect x="70.696" y="125.391" transform="matrix(.301 .954 -.954 .301 169.536 20.291)" fill="#fff" width=".447" height=".914"/><rect x="56.932" y="129.757" transform="matrix(.303 .953 -.953 .303 163.954 36.319)" fill="#fff" width=".447" height=".914"/><rect x="67.268" y="126.485" transform="matrix(.304 .953 -.953 .304 167.901 24.049)" fill="#fff" width=".446" height=".914"/><rect x="55.217" y="130.307" transform="matrix(.304 .953 -.953 .304 163.187 38.224)" fill="#fff" width=".447" height=".914"/><rect x="68.982" y="125.938" transform="matrix(.302 .953 -.953 .302 168.825 22.275)" fill="#fff" width=".447" height=".914"/><rect x="77.576" y="123.196" transform="matrix(.303 .953 -.953 .303 172.059 12.037)" fill="#fff" width=".446" height=".914"/><rect x="75.862" y="123.744" transform="matrix(.301 .954 -.954 .301 171.578 14.22)" fill="#fff" width=".446" height=".913"/><polygon fill="#fff" points="58.385,129.614 58.512,130.018 58.725,129.955 59.384,129.742 59.257,129.316"/><rect x="60.382" y="128.66" transform="matrix(.303 .953 -.953 .303 165.282 32.231)" fill="#fff" width=".446" height=".915"/><path fill="#fff" d="M79.031 123.044l.127.425.872-.276-.148-.489c-.107.085-.234.149-.361.192l-.49.148z"/><rect x="74.146" y="124.291" transform="matrix(.303 .953 -.953 .303 170.748 16.101)" fill="#fff" width=".447" height=".914"/><rect x="65.526" y="127.019" transform="matrix(.302 .953 -.953 .302 167.409 26.291)" fill="#fff" width=".446" height=".914"/><rect x="62.097" y="128.112" transform="matrix(.302 .953 -.953 .302 166.025 30.289)" fill="#fff" width=".446" height=".914"/><rect x="63.811" y="127.565" transform="matrix(.303 .953 -.953 .303 166.662 28.234)" fill="#fff" width=".447" height=".914"/><path opacity=".1" enable-background="new" d="M80.03 123.171c.34-.106.595-.34.766-.637l.106-.297.021-.085.021-.085c.022-.17 0-.34-.063-.51l-7.952-24.962-.106-.234-.107-.17-.021-.042c-.106-.128-.234-.233-.362-.298l-.169.318-17.882 34.573-.169.319c.148.064.297.106.467.128h.23399999999999999l.233-.042 24.983-7.976z"/><path opacity=".1" enable-background="new" d="M79.499 122.896c.127-.043.254-.106.361-.192.425-.318.616-.871.446-1.381l-7.803-24.622c-.064-.213-.191-.383-.34-.533-.213-.211-.511-.318-.83-.34l-.021-.063-.383.128.403-.128c.341-.106.703-.064 1 .106l.192.127.17.149v.021l.021.043.107.149c.042.063.085.148.106.234l7.952 24.983.063.255c.022.254-.021.51-.127.723-.148.297-.404.531-.745.638l-25.004 7.931-.255.042h-.23399999999999999c-.149-.021-.319-.063-.447-.127h-.021c-.298-.149-.532-.404-.638-.745l-.128-.404c.149.446.511.766.936.851l25.219-7.845z"/><line x1="55.706" y1="98.337" x2="55.706" y2="98.337" fill="none"/><path opacity=".1" enable-background="new" d="M60.277 99.272l-12.396 13.523.511 1.34 7.059 1.637c.872.191 1.723-.361 1.914-1.211l3.423-15.458-.511.169z"/><path fill="#EB9A98" d="M47.923 112.774l7.655 1.722c.681.149 1.382-.276 1.531-.978l3.189-14.268-12.375 13.524z"/><polygon fill="#fff" points="60.171,99.379 60.299,99.251 60.277,99.4"/><g fill="#fff"><polygon points="57.705,110.84 57.684,110.924 57.513,111.732 50.326,110.138 51.05,109.351"/><polygon points="58.896,105.566 58.704,106.374 58.683,106.459 54.558,105.524 55.26,104.758"/><polygon points="59.98,100.719 59.874,101.165 58.768,100.931 59.491,100.145 60.064,100.272 60.064,100.272"/><polygon points="58.491,107.332 58.364,107.926 58.3,108.224 53.133,107.055 53.856,106.29"/><polygon points="57.322,112.604 57.322,112.626 57.109,113.497 48.923,111.668 49.646,110.882"/><polygon points="59.491,102.93 57.365,102.462 58.066,101.675 59.683,102.037"/><polygon points="57.896,109.989 51.729,108.606 52.453,107.82 58.108,109.096"/><polygon points="59.087,104.695 55.961,103.993 56.663,103.207 59.278,103.802"/></g><path fill="#62BAE5" d="M93.552 123.852l7.421-25.131c.192-.68-.191-1.383-.872-1.595l-25.132-7.42c-.68-.192-1.382.191-1.594.872l-7.421 25.132c-.191.68.192 1.382.872 1.594l25.132 7.421c.681.19 1.403-.193 1.594-.873z"/><path fill="#fff" d="M73.757 119.345l.873.255 8.143-27.599-.872-.255-8.144 27.599zm1.743.51l.873.254 8.144-27.577-.872-.255-8.145 27.578zm1.724.51l.872.255 8.143-27.599-.871-.255-8.144 27.599zm1.722.511l.872.255 8.144-27.599-.872-.255-8.144 27.599zm-12.12-3.573l.872.255 8.144-27.599-.872-.254-8.144 27.598zm5.21 1.532l.872.254 8.144-27.598-.872-.255-8.144 27.599zm-3.466-1.021l.872.255 8.144-27.599-.872-.256-8.144 27.6zm1.722.51l.872.255 8.143-27.599-.871-.255-8.144 27.599zm17.329 5.103l.872.255 8.144-27.599-.873-.255-8.143 27.599zm1.722.51l.872.255 8.143-27.599-.872-.255-8.143 27.599zm9.865-27.067l-8.144 27.598.872.256 8.143-27.599-.871-.255zm-15.053 25.536l.872.255 8.143-27.578-.871-.254-8.144 27.577zm-1.744-.51l.872.255 8.144-27.599-.871-.255-8.145 27.599zm-1.722-.51l.872.255 8.143-27.599-.872-.255-8.143 27.599zm5.188 1.531l.872.255 8.143-27.598-.872-.255-8.143 27.598z"/><path opacity=".1" enable-background="new" d="M100.102 97.125l-.404-.127c.66.191 1.042.892.851 1.573l-7.293 24.749c-.191.659-.893 1.042-1.573.851l-24.75-7.293c-.659-.191-1.042-.893-.85-1.573l-.128.404c-.191.68.192 1.382.872 1.594l25.132 7.421c.681.191 1.383-.192 1.594-.873l7.421-25.131c.191-.68-.192-1.403-.872-1.595z"/><path opacity=".1" enable-background="new" d="M66.826 117.303l25.132 7.421c.681.191 1.383-.192 1.594-.873l7.421-25.131c.106-.319.063-.659-.085-.957l-34.806 18.945c.148.276.425.489.744.595z"/><ellipse opacity=".1" enable-background="new" cx="69.384" cy="134.31" rx="10.74" ry="1.22"/><ellipse opacity=".1" enable-background="new" cx="90.123" cy="133.438" rx="5.119" ry=".588"/><rect x="83.236" y="108.928" transform="matrix(-.862 .507 -.507 -.862 221.638 182.96)" fill="#FCD700" width="5.359" height="25.442"/><rect x="88.136" y="107.226" transform="matrix(-.862 .507 -.507 -.862 226.207 178.233)" fill="#319616" width="1.351" height="25.443"/><polygon opacity=".1" points="83.958,123.636 90.057,133.983 95.83,130.584 91.735,123.636"/><path fill="#B152C4" d="M73.349 86.604h-8.54c-2.004 0-3.638 1.634-3.638 3.638l-.021 43.349c0 .697.566 1.263 1.263 1.263h13.289c.697 0 1.263-.566 1.263-1.263l.022-43.349c0-2.005-1.633-3.638-3.638-3.638z"/><path opacity=".25" fill="#231F20" enable-background="new" d="M61.847 91.941l-.022 41.17c0 .588.501 1.067 1.111 1.067h12.221c.61 0 1.11-.479 1.11-1.067l.022-41.17h-14.442z"/><g opacity=".1" fill="#231F20"><path d="M63.045 89.828h-.414c-.196 0-.349.153-.349.349l-.022 42.717c0 .196.152.349.349.349h.414c.196 0 .348-.153.348-.349l.022-42.717c.001-.196-.151-.349-.348-.349z"/><path d="M65.485 89.828h-.414c-.197 0-.349.153-.349.349l-.022 42.717c0 .196.153.349.349.349h.414c.196 0 .349-.153.349-.349l.021-42.717c0-.196-.152-.349-.348-.349z"/><path d="M67.925 89.828h-.414c-.196 0-.349.153-.349.349l-.022 42.717c0 .196.153.349.349.349h.414c.197 0 .349-.153.349-.349l.022-42.717c-.001-.196-.153-.349-.349-.349z"/><path d="M70.365 89.828h-.414c-.196 0-.349.153-.349.349l-.022 42.717c0 .196.153.349.349.349h.414c.196 0 .349-.153.349-.349l.022-42.717c-.001-.196-.153-.349-.349-.349z"/><path d="M72.804 89.828h-.414c-.196 0-.349.153-.349.349l-.021 42.717c0 .196.152.349.348.349h.414c.196 0 .349-.153.349-.349l.022-42.717c0-.196-.153-.349-.349-.349z"/><path d="M75.223 89.828h-.414c-.196 0-.348.153-.348.349l-.022 42.717c0 .196.151.349.348.349h.414c.196 0 .348-.153.348-.349l.022-42.717c.022-.196-.153-.349-.348-.349z"/></g><rect x="61.15" y="94.185" opacity=".05" enable-background="new" width="15.814" height="13.375"/><rect x="61.15" y="94.185" fill="#FF8400" width="15.814" height="12.547"/><rect x="61.259" y="94.772" fill="#FCD700" width="15.641" height="11.371"/><path opacity=".1" d="M69.711 134.833h6.056c.632 0 1.155-.501 1.155-1.133l.021-43.546c0-1.96-1.589-3.551-3.55-3.551h-3.66l-.022 48.23z"/><ellipse fill="#fff" cx="69.406" cy="100.415" rx="6.841" ry="3.899"/><ellipse fill="#FF8400" cx="69.406" cy="100.415" rx="5.86" ry="3.354"/><path opacity=".1" fill="#231F20" enable-background="new" d="M69.733 96.515v7.799c3.704-.043 6.666-1.765 6.666-3.9s-2.962-3.855-6.666-3.899z"/><path fill="#FF8400" d="M71.323 83.358h-.217v-1.22h-.959v-.545h-2.2v.545h-.958v1.242h-.219c-.74 0-1.35.61-1.35 1.35v.022c0 .741.61 1.351 1.35 1.351h4.553c.741 0 1.351-.61 1.351-1.351v-.022c-.001-.762-.61-1.372-1.351-1.372z"/><path fill="#FF8400" d="M70.256 80.613h-2.396c-.392 0-.697.283-.697.653v.022c0 .348.327.327.697.327h2.396c.392 0 .697.043.697-.327v-.022c0-.37-.305-.653-.697-.653z"/><rect x="67.946" y="81.593" opacity=".25" fill="#231F20" enable-background="new" width="2.222" height=".545"/><rect x="66.988" y="82.138" opacity=".05" enable-background="new" width="4.117" height="1.242"/><path opacity=".25" fill="#231F20" enable-background="new" d="M71.323 83.358h-4.553c-.74 0-1.35.61-1.35 1.35v.022c0 .74.61 1.351 1.35 1.351h4.553c.741 0 1.351-.61 1.351-1.351v-.022c-.001-.74-.61-1.35-1.351-1.35z"/><rect x="64.418" y="84.708" fill="#FF8400" width="9.279" height="1.874"/><rect x="70.408" y="84.708" opacity=".05" enable-background="new" width="3.289" height="1.874"/><rect x="64.636" y="84.708" opacity=".35" fill="#fff" enable-background="new" width="1.372" height="1.874"/><g opacity=".25" fill="#231F20"><rect x="64.94" y="84.708" width=".653" height="1.874"/><rect x="66.422" y="84.708" width=".654" height="1.874"/><rect x="67.903" y="84.708" width=".654" height="1.874"/><rect x="69.384" y="84.708" width=".654" height="1.874"/><rect x="70.887" y="84.708" width=".653" height="1.874"/><rect x="72.368" y="84.708" width=".654" height="1.874"/></g><path opacity=".05" enable-background="new" d="M67.163 81.289c.021.327.327.305.697.305h2.396c.392 0 .697.022.697-.305h-3.79z"/></svg>