<svg xmlns="http://www.w3.org/2000/svg" viewBox="0 0 500 500" enable-background="new 0 0 500 500"><path d="M202.8 282.7c2.4 1.5 4.7 2.2 7.7 2.2 6.2 0 9.1-3.9 9.1-8.1 0-8.8-12.7-7.4-12.7-13.6 0-3.4 2.8-4.9 5.2-4.9 2.6 0 4.3 1 6 2.1l1.3-2.6c-2.2-1.3-4.7-2.2-7.5-2.2-5 0-8.5 3.1-8.5 7.4 0 9.8 12.4 6.9 12.4 14.1 0 3.1-2.3 5.1-5.6 5.1-2.2 0-4.5-1-6-2.1l-1.4 2.6zm24.4-12.4c0-6.5 4.6-11.7 11.2-11.7 6.5 0 11.2 5.2 11.2 11.7 0 6.5-4.6 11.7-11.2 11.7s-11.2-5.2-11.2-11.7zm-3.8 0c0 9.2 6.6 14.6 14.9 14.6s14.9-6 14.9-14.6c0-9.2-6.6-14.6-14.9-14.6s-14.9 6-14.9 14.6zm33.7 12.4c2.4 1.5 4.7 2.2 7.7 2.2 6.2 0 9.1-3.9 9.1-8.1 0-8.8-12.7-7.4-12.7-13.6 0-3.4 2.8-4.9 5.2-4.9 2.6 0 4.3 1 6 2.1l1.3-2.6c-2.2-1.3-4.7-2.2-7.5-2.2-5 0-8.5 3.1-8.5 7.4 0 9.8 12.4 6.9 12.4 14.1 0 3.1-2.3 5.1-5.6 5.1-2.2 0-4.5-1-6-2.1l-1.4 2.6zm55.6-24.7c-2.7-1.5-5.4-2.3-8.7-2.3-8.3 0-14.9 6-14.9 14.6 0 9.2 6.6 14.6 14.9 14.6 3 0 6.1-1.2 8.6-2.6l-1.4-2.5c-2.2 1.3-4.8 2.2-7.2 2.2-6.5 0-11.2-5.2-11.2-11.7 0-6.5 4.6-11.7 11.2-11.7 2.7 0 5.1.6 7.3 2.1l1.4-2.7zm7.2 12.3c0-6.5 4.6-11.7 11.2-11.7 6.5 0 11.2 5.2 11.2 11.7 0 6.5-4.6 11.7-11.2 11.7s-11.2-5.2-11.2-11.7zm-3.8 0c0 9.2 6.6 14.6 14.9 14.6s14.9-6 14.9-14.6c0-9.2-6.6-14.6-14.9-14.6s-14.9 6-14.9 14.6zm35.3 14.1h3.5l.2-12h2.2c2.7 0 3.5 1.6 5.2 3.9l6.6 9 3.1-1.9-5.7-7.5c-1.2-1.5-2.8-4-4.6-4.4v-.1c3.9-.5 7.1-3.2 7.1-7.8 0-4.7-3.6-7.4-8.9-7.4h-8.5l-.2 28.2zm3.8-25.7h4.2c4.6 0 6.3 2.6 6.3 5.7 0 4.1-3.6 5.3-7 5.3h-3.5v-11zm24.8 0h4.2c4.6 0 6.3 2.6 6.3 5.7 0 4.1-3.1 5.7-6.1 5.7h-4.5l.1-11.4zm-3.7 25.7h3.5l.2-11.6h4c4.6 0 10-2.2 10-8.4 0-5.4-3.6-8.1-8.9-8.1h-8.5l-.3 28.1zm24.9-14.1c0-6.5 4.6-11.7 11.2-11.7 6.5 0 11.2 5.2 11.2 11.7 0 6.5-4.6 11.7-11.2 11.7-6.5 0-11.2-5.2-11.2-11.7zm-3.7 0c0 9.2 6.6 14.6 14.9 14.6s14.9-6 14.9-14.6c0-9.2-6.6-14.6-14.9-14.6s-14.9 6-14.9 14.6z"/><path stroke="#000" stroke-width=".134" stroke-miterlimit="22.926" d="M48.1 328.2h2l.1-16.2h-2l-.1 16.2zm6.1 0h1.9l.1-8.2c1.2-1.5 2.3-2.2 3.5-2.2 1.3 0 2.1.6 2.1 1.8v8.4h1.9v-8.5c0-2.2-.9-3.5-3.6-3.5-1.4 0-3 .8-4 2.2l.1-1.9h-1.9l-.1 11.9zm12-.8c1.1.7 2.3 1.2 3.7 1.2 1.9 0 3.9-1.3 3.9-3.5 0-4-5.4-2.9-5.4-5.4 0-1.4 1-1.9 2.4-1.9.8 0 1.5.4 2.2.8l.9-1.2c-.9-.6-2.1-1-3.4-1-2.1 0-3.9 1.3-3.9 3.5 0 3.9 5.4 2.6 5.4 5.6 0 1.3-1.2 1.9-2.3 1.9-1 0-1.9-.5-2.6-1l-.9 1zm8.9-10.8v1.4h2v7.699999999999999c0 1.9.7 3 2.5 3 1 0 2.2-.5 2.9-1l-.6-1.2c-.4.3-1.2.7-1.9.7-.8 0-1.1-.5-1.1-1.5v-7.6h3.2v-1.4h-3.1v-4.3h-1.9v4.3h-2v-.1zm8.9 11.6h1.9l.1-11.7h-2v11.7zm0-14.1h2v-2.1h-2v2.1zm4.1 2.5v1.4h2v7.699999999999999c0 1.9.7 3 2.5 3 1 0 2.2-.5 2.9-1l-.6-1.2c-.4.3-1.2.7-1.9.7-.8 0-1.1-.5-1.1-1.5v-7.6h3.2v-1.4h-3.1v-4.3h-1.9v4.3h-2v-.1zm9.1 5.7v2.7c0 2.2.9 3.5 3.6 3.5 1.4 0 3-.8 4-2.2l-.1 1.9h1.9l.1-11.7h-1.9l-.1 8.2c-1.2 1.5-2.3 2.2-3.5 2.2-1.3 0-2.1-.6-2.1-1.9v-8.4h-1.9v5.7zm11.7-5.7v1.4h2v7.699999999999999c0 1.9.7 3 2.5 3 1 0 2.2-.5 2.9-1l-.6-1.2c-.4.3-1.2.7-1.9.7-.8 0-1.1-.5-1.1-1.5v-7.6h3.2v-1.4h-3.2v-4.3h-1.7v4.3h-2.1v-.1zm10.3 5.8c0-3.2 1.9-4.8 3.7-4.8 1.9 0 3.5 1.5 3.5 4.8 0 3.2-1.9 4.8-3.7 4.8-2-.1-3.5-1.6-3.5-4.8zm-2.1 0c0 3.8 2 6.2 5.5 6.2 3.7 0 5.7-3.1 5.7-6.2 0-3.8-2-6.2-5.5-6.2-3.7 0-5.7 3.2-5.7 6.2zm20.6 5.8h2l.1-7.3h6.5v-1.7h-6.5v-5.5h6.7v-1.7h-8.7l-.1 16.2zm20.5-6.1v-.4c0-3.1-1.4-5.5-4.5-5.5s-5.3 3-5.3 6.2c0 3.8 1.9 6.2 5.1 6.2 1.7 0 3.3-.9 4.5-2.1l-.9-1c-1 .9-2 1.7-3.3 1.7-2.4 0-3.3-2.2-3.3-4.6v-.4h7.7v-.1zm-7.6-1.2c.3-1.6 1.4-3.2 3.2-3.2 1.9 0 2.6 1.6 2.6 3.2h-5.8zm10.3 7.3h1.9l.1-8.4c.9-1.1 1.9-1.9 3.3-1.9 1 0 1.9.6 1.9 1.8v8.4h1.9l.1-8.4c.9-1.1 1.9-1.9 3.3-1.9 1 0 1.9.6 1.9 1.8v8.4h1.9v-8.5c0-2.2-.9-3.5-3.3-3.5-1.5 0-3 1.1-4.1 2.2-.3-1.4-1.5-2.2-2.9-2.2-1.6 0-2.9.9-3.8 2v-1.7h-2.1l-.1 11.9zm19.4 0h1.9l.1-11.7h-1.9l-.1 11.7zm0-14.1h2v-2.1h-2v2.1zm5.4 14.1h1.9l.1-8.2c1.2-1.5 2.3-2.2 3.5-2.2 1.3 0 2.1.6 2.1 1.8v8.4h1.9v-8.5c0-2.2-.9-3.5-3.6-3.5-1.4 0-3 .8-4 2.2l.1-1.9h-1.9l-.1 11.9zm12.9 0h1.9l.1-11.7h-1.9l-.1 11.7zm0-14.1h2v-2.1h-2v2.1zm4.3 13.3c1.1.7 2.3 1.2 3.7 1.2 1.9 0 3.9-1.3 3.9-3.5 0-4-5.4-2.9-5.4-5.4 0-1.4 1-1.9 2.4-1.9.8 0 1.5.4 2.2.8l.9-1.2c-.9-.6-2.1-1-3.4-1-2.1 0-3.9 1.3-3.9 3.5 0 3.9 5.4 2.6 5.4 5.6 0 1.3-1.2 1.9-2.3 1.9-1 0-1.9-.5-2.6-1l-.9 1zm8.9-10.8v1.4h2v7.699999999999999c0 1.9.7 3 2.5 3 1 0 2.2-.5 2.9-1l-.6-1.2c-.4.3-1.2.7-1.9.7-.8 0-1.1-.5-1.1-1.5v-7.6h3.2v-1.4h-3.2v-4.3h-1.9v4.3h-1.9v-.1zm18.5 10.1c-.3.2-.6.4-1 .4-.7 0-.8-.8-.8-1.7 0-2.1.2-4.1.2-6.3 0-1.8-1-3-2.9-3-1.7 0-2.4.4-4.8 1.9l.8 1.2c1.7-1.3 2.5-1.6 3.4-1.6 1.2 0 1.8.8 1.8 1.8v1.5c-2.6.1-6.8.9-6.8 4.2 0 2 1.3 3.4 3.4 3.4 1.5 0 2.6-.8 3.5-1.9.1 1 .7 1.9 1.7 1.9.8 0 1.5-.3 2.2-.8l-.7-1zm-3.5-1.3c-.7.9-1.6 1.7-2.8 1.7-1.3 0-2.1-.7-2.1-2 0-2 1.7-2.6 4.9-3v3.3zm12.2 8.7h1.9v-7.1c.6.8 1.8 1.5 3.3 1.5 3 0 5.1-3.1 5.1-6.2 0-4.6-2.7-6.1-4.7-6.1-1.6 0-3 .9-3.6 1.9v-1.6h-1.9l-.1 17.6zm2-14.2c.6-1 1.8-2.2 3.3-2.2 1.6 0 3.1 1.5 3.1 4.6 0 2.3-1.4 4.6-3.5 4.6-1.1 0-2.1-.6-2.9-1.9v-5.1zm20.6 6.8c-.3.2-.6.4-1 .4-.7 0-.8-.8-.8-1.7 0-2.1.2-4.1.2-6.3 0-1.8-1-3-2.9-3-1.7 0-2.4.4-4.8 1.9l.8 1.2c1.7-1.3 2.5-1.6 3.4-1.6 1.2 0 1.8.8 1.8 1.8v1.5c-2.6.1-6.8.9-6.8 4.2 0 2 1.3 3.4 3.4 3.4 1.5 0 2.6-.8 3.5-1.9.1 1 .7 1.9 1.7 1.9.8 0 1.5-.3 2.2-.8l-.7-1zm-3.6-1.3c-.7.9-1.6 1.7-2.8 1.7-1.3 0-2.1-.7-2.1-2 0-2 1.7-2.6 4.9-3v3.3zm5.9 2.8h1.9l.1-7.7c1-1.9 2.2-2.5 3-2.5.3 0 .5.1.7.1l.6-1.8c-.3-.1-.6-.2-1-.2-1.7 0-2.8 1.6-3.2 2.6v-2.3h-1.9l-.2 11.8zm17.2-1.5c-.3.2-.6.4-1 .4-.7 0-.8-.8-.8-1.7 0-2.1.2-4.1.2-6.3 0-1.8-1-3-2.9-3-1.7 0-2.4.4-4.8 1.9l.8 1.2c1.7-1.3 2.5-1.6 3.4-1.6 1.2 0 1.8.8 1.8 1.8v1.5c-2.6.1-6.8.9-6.8 4.2 0 2 1.3 3.4 3.4 3.4 1.5 0 2.6-.8 3.5-1.9.1 1 .7 1.9 1.7 1.9.8 0 1.5-.3 2.2-.8l-.7-1zm-3.6-1.3c-.7.9-1.6 1.7-2.8 1.7-1.3 0-2.1-.7-2.1-2 0-2 1.7-2.6 4.9-3v3.3zm21.8 1.3c-.3.2-.6.4-1 .4-.7 0-.8-.8-.8-1.7 0-2.1.2-4.1.2-6.3 0-1.8-1-3-2.9-3-1.7 0-2.4.4-4.8 1.9l.8 1.2c1.7-1.3 2.5-1.6 3.4-1.6 1.2 0 1.8.8 1.8 1.8v1.5c-2.6.1-6.8.9-6.8 4.2 0 2 1.3 3.4 3.4 3.4 1.5 0 2.6-.8 3.5-1.9.1 1 .7 1.9 1.7 1.9.8 0 1.5-.3 2.2-.8l-.7-1zm-3.5-1.3c-.7.9-1.6 1.7-2.8 1.7-1.3 0-2.1-.7-2.1-2 0-2 1.7-2.6 4.9-3v3.3zm14.7-11.8h2.5c4.3 0 7.1 2.4 7.1 6.5 0 4.5-3 6.7-7.6 6.7h-2.2l.2-13.2zm-2.2 14.6h4.5c5.2 0 9.3-2.8 9.3-8.3 0-4-2.5-7.9-8.8-7.9h-4.9l-.1 16.2zm25.7-6.1v-.4c0-3.1-1.4-5.5-4.5-5.5s-5.3 3-5.3 6.2c0 3.8 1.9 6.2 5.1 6.2 1.7 0 3.3-.9 4.5-2.1l-.9-1c-1 .9-2 1.7-3.3 1.7-2.4 0-3.3-2.2-3.3-4.6v-.4h7.7v-.1zm-7.6-1.2c.3-1.6 1.4-3.2 3.2-3.2 1.9 0 2.6 1.6 2.6 3.2h-5.8zm10.3 7.3h1.9l.1-8.4c.9-1.1 1.9-1.9 3.3-1.9 1 0 1.9.6 1.9 1.8v8.4h1.9l.1-8.4c.9-1.1 1.9-1.9 3.3-1.9 1 0 1.9.6 1.9 1.8v8.4h1.9v-8.5c0-2.2-.9-3.5-3.3-3.5-1.5 0-3 1.1-4.1 2.2-.3-1.4-1.5-2.2-2.9-2.2-1.6 0-2.9.9-3.8 2v-1.7h-1.9l-.3 11.9zm20.8-5.8c0-3.2 1.9-4.8 3.7-4.8 1.9 0 3.5 1.5 3.5 4.8 0 3.2-1.9 4.8-3.7 4.8-1.9-.1-3.5-1.6-3.5-4.8zm-2 0c0 3.8 2 6.2 5.5 6.2 3.7 0 5.7-3.1 5.7-6.2 0-3.8-2-6.2-5.5-6.2-3.7 0-5.7 3.2-5.7 6.2zm22.3-4.2c-.9-1.2-2.3-1.9-3.8-1.9-3.2 0-5.5 3-5.5 6.2 0 3.9 2.3 6.2 5.2 6.2 1.6 0 2.8-.6 3.9-1.9l-1-1.1c-.6.7-1.6 1.5-2.6 1.5-1.8 0-3.5-1.6-3.5-4.3 0-3.3 1.8-5 3.5-5 1 0 1.8.5 2.5 1.4l1.3-1.1zm1.9 10h1.9l.1-7.7c1-1.9 2.2-2.5 3-2.5.3 0 .5.1.7.1l.6-1.8c-.3-.1-.6-.2-1-.2-1.7 0-2.8 1.6-3.2 2.6v-2.3h-1.9l-.2 11.8zm17.3-1.5c-.3.2-.6.4-1 .4-.7 0-.8-.8-.8-1.7 0-2.1.2-4.1.2-6.3 0-1.8-1-3-2.9-3-1.7 0-2.4.4-4.8 1.9l.8 1.2c1.7-1.3 2.5-1.6 3.4-1.6 1.2 0 1.8.8 1.8 1.8v1.5c-2.6.1-6.8.9-6.8 4.2 0 2 1.3 3.4 3.4 3.4 1.5 0 2.6-.8 3.5-1.9.1 1 .7 1.9 1.7 1.9.8 0 1.5-.3 2.2-.8l-.7-1zm-3.6-1.3c-.7.9-1.6 1.7-2.8 1.7-1.3 0-2.1-.7-2.1-2 0-2 1.7-2.6 4.9-3v3.3zm14.3-7.2c-.9-1.2-2.3-1.9-3.8-1.9-3.2 0-5.5 3-5.5 6.2 0 3.9 2.3 6.2 5.2 6.2 1.6 0 2.8-.6 3.9-1.9l-1-1.1c-.6.7-1.6 1.5-2.6 1.5-1.8 0-3.5-1.6-3.5-4.3 0-3.3 1.8-5 3.5-5 1 0 1.8.5 2.5 1.4l1.3-1.1zm1.8 10h1.9l.1-11.7h-1.9l-.1 11.7zm0-14.1h2v-2.1h-2v2.1zm14.8 12.6c-.3.2-.6.4-1 .4-.7 0-.8-.8-.8-1.7 0-2.1.2-4.1.2-6.3 0-1.8-1-3-2.9-3-1.7 0-2.4.4-4.8 1.9l.8 1.2c1.7-1.3 2.5-1.6 3.4-1.6 1.2 0 1.8.8 1.8 1.8v1.5c-2.6.1-6.8.9-6.8 4.2 0 2 1.3 3.4 3.4 3.4 1.5 0 2.6-.8 3.5-1.9.1 1 .7 1.9 1.7 1.9.8 0 1.5-.3 2.2-.8l-.7-1zm-3.5-1.3c-.7.9-1.6 1.7-2.8 1.7-1.3 0-2.1-.7-2.1-2 0-2 1.7-2.6 4.9-3v3.3z"/><polygon fill-rule="evenodd" clip-rule="evenodd" fill="#EC008C" points="451,290.3 138.6,296.3 138.6,299.3 450.9,299.3 451,290.3"/><path d="M108.1 242.5c-2.3-3.8-2.8-5.1-3.1-6.1-.1-.2-.1-.4-.2-.5-1.3-3-2.2-5-2.7-7.1-.5-2.1-.7-4.1-.5-7 .1-1.1.3-2.9.6-4.8.6-4.2 1.2-9.2.6-10.1l-.1-.2c0-.2.3-.3.2-.3-.1 0-.5.4-1 1-.9 1-2.1 2.4-3.9 3.4l-.2.2c-1.1.7-4.6 3.1-7 3.2-2.9.1-4-1.4-5-2.8-.2-.2-.3-.5-.5-.6-1.5-1.9-2.5-3.9-3.4-6.1-.8-2.1-1.5-4.3-2.2-6.5-.6-1.8 0-3.2.6-4.6.4-.9.8-1.9.7-2.9-.2-6.6 1.6-10.3 4-11.9 1.9-1.2 4-1.3 5.8-.4 1.8.8 3.1 2.4 3.4 4.5.3 2.2-.9 4.9-4.3 7.4-.1.3 0 .5 0 .8l.1.5c.7-.5 1.8-1.2 3-1.9 1.5-1 3.2-1.9 3.9-2.3.1-.1.1-.6 0-1.1-.1-.8-.2-1.8.3-2.7.6-1.2 1-2 1.2-2.7.2-.7.2-1.2.2-1.7 0-1.5.6-3.6 1.5-5.5.9-2 2.2-3.8 3.2-4.5.2-.2.5-.4.8-.6.6-.5 1.2-1 1.6-1.2.6-.3 1.1-.2 1.3.4l.1.2c.1 1.6.1 2.4.8 3.3.8 1 2.6 2.3 6.3 5.1l.1.1c1.2 1.5 2.2 3.9 3.1 6.2.9 2.2 1.7 4.3 2.5 4.9 1.4.5 2.7 1.4 3.7 2.2.5.4.9.7 1.3.9.1.1.1.3.1.2l.7-1.3c-.3-.4-.6-.6-.9-.8-.6-.4-1-.6-.8-1.4l.1.1c-.2-1.3.3-4.7 1.5-7.4-.2-1 .2-1.8 1-2.3.7-.5 1.8-.7 2.9-.5 1.1.2 2.3.6 3.5 1.5 2.8 2.1 5.2 6.4 4 13.9 0 .3-.1.6-.7.5-.6-.1-.6-.4-.5-.7 1.1-6.9-1-10.9-3.5-12.8-1-.7-2-1.1-2.9-1.3-.9-.1-1.6 0-2.1.3-.4.3-.6.7-.4 1.2v.4c-1.4 2.8-2.2 6.4-2 6.5.2.1.4.4.3.7l.3.1c.5.3 1.1.7 1.5 1.5.1.1.1.5 0 .6l-.9 1.6c-.4.7-1 .7-1.8.3-.4-.2-.9-.6-1.4-1-1-.7-2.2-1.6-3.4-2.1l-.2-.1c-1.2-.8-2.1-3.1-3-5.5-.8-2.1-1.7-4.4-2.8-5.8-3.7-2.8-5.5-4.1-6.4-5.3-.9-1.1-1-1.9-1.1-3.3-.3.2-.7.5-1.1.8l-.9.7c-.9.5-1.9 2.1-2.8 3.9-.8 1.7-1.4 3.6-1.4 4.9 0 .6 0 1.3-.3 2.1-.2.8-.6 1.7-1.3 3-.3.6-.2 1.3-.1 2 .1 1 .2 1.8-.6 2.3h-.1c-.7.3-2.3 1.3-3.8 2.2-1.6 1-3.1 2-3.4 2.3-.3.3-.8.2-1-.1-.3-.5-.5-1-.6-1.5-.1-.5-.1-1 .1-1.5 0-.1.2-.3.2-.3 3.2-2.2 4.2-4.6 4-6.4-.2-1.6-1.3-2.8-2.7-3.5-1.4-.6-3.1-.6-4.6.4-2.1 1.4-3.7 4.7-3.5 10.8 0 1.3-.4 2.3-.8 3.4-.5 1.2-1 2.4-.6 3.8.7 2.2 1.3 4.4 2.1 6.4s1.8 4 3.2 5.8l.5.7c.9 1.2 1.7 2.4 4 2.3 2-.1 5.3-2.3 6.3-3 .2-.1.3-.2.3-.2 1.6-.9 2.8-2.2 3.6-3.2.6-.7 1.1-1.2 1.6-1.4.6-.1 1 .2 1.3 1.1.8 1.5.1 6.6-.5 10.8-.3 1.9-.5 3.6-.6 4.8-.2 2.8 0 4.7.5 6.6.5 2 1.4 4 2.6 6.9.1.2.2.4.2.6.3.9.8 2.1 3 5.9.2.3.3.5-.2.8-.2.3-.4.1-.5-.2z"/><path d="M126.3 179.2c.5 0 1.2.2 1.8.5.9.5 1.8 1.3 2.5 2.3.7 1 1.1 2.3 1 3.7-.1.8-.3 1.7-.7 2.6 0 .2.2.6.3.9l.4.9c1.7.2 3.5.8 5 1.8 1.4.9 2.6 2.3 3.2 4 1.1 3 2.4 4.5 3.5 5.7 1.4 1.5 2.4 2.7 2.3 5.9-.1 3.3-1.1 5.7-2 8-.6 1.6-1.3 3.1-1.5 4.9 0 .3-.1.6-.7.5-.6-.1-.6-.4-.5-.7.3-1.9.9-3.5 1.6-5.1.9-2.2 1.8-4.5 1.9-7.6.1-2.7-.8-3.7-2-5-1.1-1.3-2.5-2.8-3.8-6.1-.5-1.4-1.5-2.6-2.7-3.4-1.4-.9-3.1-1.5-4.7-1.6-.1 0-.4-.2-.5-.3-.2-.4-.5-.9-.7-1.4-.2-.5-.4-1.1-.4-1.4 0-.1 0-.3.1-.4.4-.8.6-1.5.7-2.2.1-1.1-.3-2.1-.8-3-.5-.9-1.3-1.5-2-1.9-.4-.2-.9-.4-1.3-.4-.3 0-.6 0-.6-.7-.1-.5.3-.5.6-.5z"/><path d="M102.5 182c.3-.1.7-.2 1-.2 1.6-.2 3.5.4 5.2 1.4 1.7 1 3.2 2.6 3.9 4.3.2.4.3.9.3 1.4 0 .4.1.8.1 1.3.4 3.5.6 4.9 3.7 7.5l.1.1c1.2 1.4 3 2.2 4.5 2.8l.6.3c.3.1.6.2.3.8-.2.6-.5.4-.8.3l-.6-.3c-1.6-.7-3.6-1.5-4.9-3.1-3.5-2.9-3.7-4.5-4.1-8.3 0-.4-.1-.7-.1-1.3 0-.3-.1-.7-.3-1-.6-1.4-1.9-2.8-3.4-3.7-1.5-.9-3.2-1.4-4.5-1.3-.3 0-.5.1-.7.2-.3.1-.6.2-.8-.3-.1-.7.2-.8.5-.9z"/><path d="M102.5 184.1c.2.1.4.1.7.2 2.6.9 7.5 2.5 6.2 12.6-.3 2.1.3 3.2 2.4 7.2.1.2.2.4.3.5.4.1.9 0 1.4-.3.6-.4 1.2-1.1 1.7-1.8.5-.8 1-1.6 1.3-2.2.3-.6.6-.8.5-.8-.2-.3-.3-.5.2-.9.5-.3.7-.1.9.2.2.3 0 1.1-.4 2-.3.7-.8 1.6-1.4 2.4-.6.8-1.3 1.6-2 2.1-.9.6-1.8.8-2.7.4-.1 0-.3-.2-.3-.3-.6-1 .1.3-.4-.7-2.3-4.3-2.9-5.4-2.6-7.9 1.2-9.1-3.1-10.5-5.4-11.3-.3-.1-.5-.2-.7-.3-.3-.1-.6-.2-.4-.8.1-.5.4-.4.7-.3z"/><path d="M95.9 194.4c.3.4 1.6 2.6 1.5 6 0 1.2-.2 2.5-.7 3.9.1-.1.2-.2.3-.4.5-.7.9-1.6 1-2.5.1-1.2.9-2.4 2-3.5 1.2-1.2 2.8-2.1 4.1-2.7.1-.5 0-.7-.1-.7h-.6l-.9.1c-1.3-.1-2.4-.9-2.2-5.3 0-.3 0-.6.7-.6.6 0 .6.3.6.6-.2 3.4.4 4 1 4h.7c.3 0 .6-.1.9 0 .8.1 1.3.6 1.1 2.4 0 .2-.2.4-.4.5-1.3.5-2.9 1.5-4.1 2.6-.9.9-1.5 1.8-1.6 2.7-.1 1.1-.6 2.2-1.2 3-.8 1.2-1.8 2.1-2.6 2.5-.5.3-1.1-.3-.9-.8 1.1-2.3 1.6-4.3 1.6-6 .1-3-1-4.9-1.2-5.3-.2-.3-.4-.5.1-.9.6-.1.8.2.9.4z"/><path d="M92.8 180c-.4 1.8-1 3.4-2.1 4.6-1 1.1-2.5 1.9-4.7 2.1v.1c.6 2.3 2 7.5-5.1 11.4-.3.1-.5.3-.8-.2-.3-.5 0-.7.2-.8 6.2-3.4 5-8 4.5-10-.1-.4-.2-.6-.2-.9 0-.3.2-.7.6-.7 2.3-.2 3.7-.8 4.6-1.8.9-1 1.4-2.4 1.8-4.1.1-.3.1-.6.7-.5.6.2.5.5.5.8z"/><path d="M94 193c-.5 1-.7 1.9-.7 3.1 0 1.3.3 2.9.9 5.2v.1c.1 1.9-.7 2.9-1.6 4.2-1.1 1.5-2.5 3.3-1.8 7.5 0 .3.1.6-.5.7-.6.1-.7-.2-.7-.5-.7-4.7.7-6.7 2-8.4.8-1 1.4-1.9 1.4-3.3-.6-2.4-.9-4.1-.9-5.4 0-1.4.3-2.5.9-3.7.1-.3.3-.5.8-.3.5.3.4.6.2.8z"/><path d="M138.8 212.2c-.9-2.7-1.8-3.4-2.5-3.9-.6-.4-1-.8-1.2-1.7v-.3c.1-.3.1-1.4 0-2.4-.1-1.4-.1-2.7.4-3.1.4-.3.8-.1 1.3.5.2.2.2.3.5.7 1.2 1.7 1.8 2.6 3 3.4.1.1.3.4.3.6l-.2 2.8c-.1 1.1-.1 2.1-.3 3.2 0 .1 0 .3-.1.4 0 .1 0 .3-.1.4l-.7 4c-.3 1.2-.7 2.1-1.4 2.2h-.9c-1.3-.1-3.1-.1-4.7.5-.3.1-.8-.1-.8-.5-.1-.6-.3-1.1-.5-1.4-.2-.3-.4-.5-.6-.6-.1-.1-.3-.3-.3-.5-.3-2.1-.5-4.2-.9-6-.4-1.8-.9-3.3-1.5-4.3-1.6-2.5-4.1-3.5-5.2-3.9-.4-.2-.7-.3-.9-.5-.3-.6-.3-2.1-.2-3.6.1-1.4.1-2.9 0-3-8.4-4.6-9.7-10.5-10.5-14.1-.3-1.5-.6-2.5-1.1-2.6-1.4-.3-2.5-.7-3.3-1.3-.7-.4-1.1-1-1.4-1.5l-.6.5c-.2.2-.4.5-.5.7-.2.8-.1 1.7 0 2.6.2 1.6.3 3.2-1.1 4.1-.2.1-.1.6 0 .9.1.4.1.8 0 1.1-.9 2.9-.9 3.6-.9 3.9 0 .2 0 .3-.1.5-.1.3-.3.5-.8 1.2-.2.3-.4.6-.5.7 0 0-.1.2-.2.2-.8.5-1.1.9-1.5 1.3-.6.7-1.1 1.3-2.9 2-.2.1-.6 0-.7-.2l-.6-.8c-.4-.5-.7-.9-1.1-1.1-1.3.8-2.3 1.8-2.8 3.3-.5 1.4-.7 3.1-.2 5.3.2.8-.3 1.8-.9 2.9-.5 1.1-1.1 2.3-1 3.1 0 .1 0 .2.1.3.2.6-1 .9-1.2.3l-.1-.4c-.1-.5-.2-1.1-.2-1.6-.1-.8-.2-1.6-.4-1.8-1.1-1.2-1.2-1.7-1.8-3.7 0-.1 0-.2-.2-.6-.1-.3-.2-.6.4-.8.6-.2.7.1.8.4l.2.6c.5 1.8.6 2.3 1.5 3.2.3.3.4.6.5 1.1l.3-.7c.4-.9.8-1.7.8-2.1-.5-2.4-.3-4.4.3-6 .7-1.8 2-3.1 3.6-4l.5-.1c1 .3 1.4.9 2 1.7.1.1.2.2.2.4 1.1-.5 1.5-.9 1.9-1.4.4-.5.8-.9 1.6-1.5l.4-.6c.4-.6.6-.8.6-.9v-.1c0-.4 0-1.2 1-4.3 0-.1 0-.3-.1-.5-.1-.8-.2-1.6.6-2.2.8-.5.7-1.7.6-2.9-.1-1-.2-2.1.1-3 .1-.5.4-.9.8-1.3.4-.3.8-.7 1.4-1 .3-.2.8 0 .9.4.1.6.6 1.1 1.2 1.6.7.5 1.7.9 2.9 1.1 1.3.2 1.6 1.6 2.1 3.6.7 3.4 2 9 9.9 13.3h.1c.6.5.6 2.3.5 4.1 0 1.3-.1 2.7.1 2.9h.2c1.2.5 4 1.5 5.8 4.4.7 1.2 1.3 2.8 1.7 4.7.4 1.8.7 3.8.9 5.8.3.2.6.5.8.9.2.3.3.7.4 1.1 1.6-.5 3.3-.4 4.5-.3h.7c.1-.1.3-.6.4-1.3.3-1 .5-2.4.7-3.9.1-.3.2-.5.2-.6zm.2-2.7v-.7c0-.8.1-1.6.2-2.5-1.1-.9-1.8-1.9-3-3.5 0 .3.1.7.1 1.1 0 1 .1 2 0 2.6.1.4.4.6.7.9.6.3 1.3.8 2 2.1zm-3.2 24c.2 7.3-3.1 8.7-7 10.4 0 0-.1 0-.1.1.6.4 1.2.8 1.9 1.2 3.5 2.1 7.3 4.4 4.3 9.8 2.1 1.6 4.5 5.2 6.2 9.1 1.5 3.3 2.6 6.8 2.7 9.3 3.2-4 5.9-9.5 6.9-15.1.9-5 .3-10.1-2.6-14.1-3.1-4.2-5.8-6.2-5.9-6.2l-.2-.2c-1.6-2.5-1.3-5.8-1-9.2.2-2.6.5-5.2 0-7.5-1.6 1.4-2.4 1.3-3.1 1.2-.3 0-.6-.1-1.1.2l-.5.5c-.4.4-.8.9-1.4 1-1.9.2-2.3.6-2.7.9-.1.1-.2.2-.4.2-.3.2-.8 0-.9-.4-.3-1-1.1-1.8-1.9-2.5-.6-.5-1.1-1-1.4-1.6-.9-1.6-1.7-4-2.4-6-.7-1.9-.9-3.6-1.1-3.6-.3.1-.6.2-.8-.4-.2-.6.1-.7.4-.8 1-.3 1.7 1.8 2.6 4.4.7 2 1.5 4.4 2.3 5.8.3.4.7.9 1.2 1.3.7.6 1.4 1.3 1.9 2.3.5-.3 1.2-.7 3-.9.2 0 .4-.3.7-.6.2-.3.5-.5.7-.7.9-.5 1.4-.5 1.9-.4.5.1 1.1.1 2.8-1.5.3-.3.9-.2 1 .3.9 2.8.6 6 .4 9-.3 3.2-.6 6.3.7 8.4.5.4 3.1 2.4 6 6.4 3.2 4.3 3.8 9.7 2.9 15-1.1 6.5-4.6 12.9-8.4 17.1-.4.4-1.2 0-1-.6.5-2-.7-6.3-2.5-10.4-1.8-4-4.2-7.7-6.2-8.9-.3-.2-.4-.6-.2-.8 2.9-4.8-.5-6.8-3.6-8.7-1-.6-2-1.2-2.8-1.9-.3-.3-.3-.9.2-1 .3-.1.7-.3 1.1-.5 3.5-1.5 6.4-2.7 6.3-9.2 0-.3 0-.6.6-.6.5-.2.5.1.5.4z"/><path d="M117 231.7c0 .1-.1.3-.2.5-.2 1.3-.4 2.8-.5 4.7-.5 11.2 9.5 17.6 15.7 21.7.5.3 1.1.7 1.5 1 .4.3.3.9-.1 1.1-3.8 1.3-6.8 2.7-9 4.1-2.2 1.4-3.6 2.8-4.3 4.5-1.2 2.9-.3 6.5.7 11 .4 1.9.9 3.9 1.3 6.1.1.5-.5.9-.9.6-1.6-1.1-3.3-2.3-4.9-3.6-5.4-4.5-10.4-10.5-12.8-17.1-2.5-6.7-2.4-14.1 2.3-21.3.6-1 1.3-1.9 2.1-2.9.1-.1.1-.1.4-.5 1.5-1.8 6.5-7.6 7.4-9.6.2-.8.3-1.6.5-2.3.4-2 .8-3.7.7-6.5-.6-2.7-1-5.4-1.5-7.8l-.1-.4c-.2-1.2-.1-2.8.3-4.5.4-1.9 1-3.9 1.7-5.4.1-.1.3-.3.5-.4.3 0 1.2.2 2.2.6 1.1.4 2.4 1 3.4 1.5 0 0 .1.1.2.1 1.2 1.2 1.5 5.6 1.6 8.5v.6c.1 2.4.7 5.1 2.4 8.1s4.5 6.3 9 9.6c.1.1 2.6 1.8 6.5 3.5.3.1.6.2.3.8-.2.6-.5.4-.8.3-4.1-1.8-6.7-3.6-6.7-3.6-4.7-3.5-7.6-6.9-9.3-10-1.8-3.2-2.4-6.1-2.5-8.6v-.6c-.2-2.7-.4-6.6-1.2-7.6-.9-.5-2.2-1-3.2-1.4-.5-.2-1-.4-1.2-.5-.6 1.3-1.1 3-1.4 4.7-.3 1.6-.4 3-.3 4.1l.1.4c.4 2.4.9 5.1 1.5 7.8v.1c.2 3-.2 4.8-.7 6.9-.1.4-.2.9-.3 1.4-.4.1-.4.2-.4.3zm-1.7 3.1c-1.9 2.7-4.9 6.2-6.1 7.6-.1.1-.1.2-.4.5-.8.9-1.5 1.9-2 2.8-4.5 6.9-4.5 13.9-2.2 20.2 2.4 6.4 7.2 12.2 12.5 16.6 1.2 1 2.4 1.9 3.5 2.7-.3-1.7-.7-3.2-1-4.6-1.1-4.8-2-8.5-.7-11.8.8-1.9 2.4-3.5 4.8-5 2.1-1.3 4.8-2.6 8.1-3.8l-.4-.3c-6.5-4.2-16.8-10.9-16.3-22.7 0-.9.1-1.6.2-2.2zm21.2-1.1z"/><path d="M93.2 247.9c-.2-.8-.2-1.7-.1-2.6.1-1.3.4-2.6.6-2.9 6.7-14.9 5.3-21.1 4.2-25.9-.5-2.3-1-4.2-.5-6.5.1-.3.1-.6.7-.5.6.1.5.4.5.7-.4 2.1 0 3.9.5 6 1.1 4.9 2.6 11.4-4.3 26.6-.1.3-.4 1.3-.4 2.5-.1.8-.1 1.6.1 2.2.1.3.1.6-.5.7-.7.3-.8 0-.8-.3z"/><path d="M89.5 236.7c3.6 6.7 6 12.9 6.8 19.1 1.1 8.6-1.1 17-7.6 26-.3.4-1 .3-1.1-.3-1.8-11.6-6.1-15.2-9.5-17.9-.4-.3-.8-.6-1.1-.9-.1-.1-.2-.4-.2-.5.1-1 .3-2 .6-2.9.3-.8.7-1.6 1.2-2.2.1-2.3-.7-4.7-2.7-6.8-1.8-1.8-4.6-3.4-8.4-4.2-.6-.1-.6-1 0-1.2.9-.3 2-.7 3.2-1.2 1.8-.8 3.7-1.5 4.8-1.5 2.1 0 4.1.4 5.8.7 1.1.2 2.1.4 2.7.4 1.1 0 2.3-.6 3.2-1.8.7-1 1.2-2.4 1.3-4.4-1.4-2.5-2.9-5-4.6-7.5-2.7-4.8-1.5-9.8-.6-14.1.6-2.7 1.1-5.1.5-6.7-.1-.3-.2-.6.4-.8.6-.2.7.1.8.4.7 2 .2 4.5-.5 7.4-.9 4.1-1.9 8.9.5 13.3 1.6 2.5 3.1 4.8 4.4 7.2.1-.2.1.1.1.4zm-.2 2.2c-.3 1.3-.7 2.4-1.3 3.2-1.1 1.6-2.7 2.3-4.1 2.3-.7 0-1.7-.2-2.9-.4-1.6-.3-3.6-.7-5.6-.7-.8 0-2.6.7-4.3 1.4l-1.4.6c3.1.9 5.5 2.4 7.1 4 2.4 2.4 3.3 5.3 3.1 7.9 0 .1-.1.3-.2.4-.5.6-.8 1.2-1.1 2-.2.7-.4 1.5-.5 2.3.3.2.6.5.8.7 3.3 2.7 7.6 6.3 9.6 17.2 5.7-8.3 7.5-16.1 6.6-24-.7-5.4-2.8-11-5.8-16.9z"/></svg>