<svg xmlns="http://www.w3.org/2000/svg" viewBox="0 0 500 500" enable-background="new 0 0 500 500"><ellipse opacity=".25" enable-background="new" cx="165.2" cy="484.5" rx="97.1" ry="11.5"/><ellipse opacity=".25" enable-background="new" cx="326.2" cy="477.4" rx="104.1" ry="18.6"/><rect x="315.9" y="18.3" fill="#42C91E" width="16.6" height="398.8"/><rect x="324.1" y="18.3" opacity=".1" enable-background="new" width="8.2" height="398.8"/><rect x="315.9" y="410.3" opacity=".1" enable-background="new" width="16.6" height="15"/><path fill="#169ADB" d="M323.9 414.4c-5.7 0-10.4.8-10.4 1.6v42.8h20.3l.4-42.8c.1-1.1-4.6-1.6-10.3-1.6z"/><path opacity=".1" enable-background="new" d="M323.3 458.9h10.4l.4-42.8c0-1-4.7-1.6-10.4-1.6h-.6v44.3h.2z"/><path fill="#1EC9BA" d="M239.7 460.5c-2.1 5.3-13.1 26-13.1 26h194.5l-14.8-26s-4.9-11.1-11.1-11.1h-36.9c-5.1 0-9.4-2.7-12.5-6.6-2.5-3.1-6.4-5.3-10.7-5.1h-21.9c-4.3 0-8.2 2-10.7 5.3-3.1 3.9-7.4 6.6-12.5 6.6h-37.1c-6.1-.1-11 5.8-13.2 10.9z"/><rect x="313.6" y="432.5" opacity=".1" enable-background="new" width="20.3" height="4.3"/><path opacity=".25" enable-background="new" d="M397.9 465.5l-.4-.4c.4.4-1.8-10-1.8-10h-41c-4.5 0-8.4-2.5-11.1-6.1-2.3-2.7-5.7-4.7-9.6-4.7h-19.5c-3.9 0-7.4 1.8-9.6 4.7-2.7 3.5-6.6 6.1-11.1 6.1h-43.4l-2 10-.4.4h149.9z"/><polygon opacity=".1" enable-background="new" points="248.1,465.5 229.2,486.4 418.6,486.4 398.3,465.5"/><polygon opacity=".45" enable-background="new" points="250.3,455.2 229.2,486.4 248.3,465.1"/><polygon opacity=".45" enable-background="new" points="396,455.2 418.6,486.4 398.1,465.1"/><path fill="#169ADB" d="M324.1 5.4c-5.5 0-9.8.8-9.8 1.6v13.3h19.5v-13.4c.1-.7-4.4-1.5-9.7-1.5z"/><rect x="315.9" y="19.2" opacity=".05" enable-background="new" width="16.8" height="7"/><path opacity=".05" enable-background="new" d="M323.7 5.4v14.8h9.8v-13.3c0-.7-4.5-1.5-9.8-1.5z"/><polygon fill="#FFB86B" points="247.3,495.6 75.7,450.2 111,390.2 245.4,425.8"/><g opacity=".25"><polygon points="91.8,454.4 85.5,452.8 116.1,391.6 122.3,393.2"/><polygon points="106.5,458.3 100.3,456.7 128,394.7 134.2,396.4"/><polygon points="121,462.2 114.8,460.5 139.9,397.9 146.1,399.5"/><polygon points="135.6,466 129.3,464.4 151.8,401 158,402.7"/><polygon points="150.3,469.9 144.1,468.3 163.9,404.2 170.1,405.9"/><rect x="167.1" y="407.1" transform="matrix(-.967 -.256 .256 -.967 222.137 909.898)" width="6.4" height="66.8"/><polygon points="179.7,477.7 173.5,476.1 187.5,410.5 193.7,412.1"/><polygon points="194.5,481.6 188.2,480 199.2,413.6 205.4,415.2"/><polygon points="209.4,485.6 203.2,483.9 210.9,416.7 217.1,418.3"/><polygon points="224.1,489.5 218.1,487.9 222.6,419.8 228.8,421.4"/><polygon points="239,493.4 232.8,491.8 234.3,422.9 240.3,424.5"/></g><rect x="222.8" y="4.8" transform="matrix(-.967 -.256 .256 -.967 401.298 469.676)" fill="#FF8400" width="16.8" height="407.8"/><rect x="226.9" y="3.9" transform="matrix(-.967 -.256 .256 -.967 395.204 467.181)" fill="#fff" width="2.3" height="407.8"/><rect x="232.9" y="5.5" transform="matrix(-.967 -.256 .256 -.967 406.675 471.877)" fill="#fff" width="2.3" height="407.8"/><path fill="#FCD700" d="M241.8 414.4l-32.1-8.5c-4.2-1.1-7.1-4.3-8.9-8.4-1.4-3.2-4.1-5.7-7.7-6.7l-18.1-4.8c-3.6-1-7.2-.1-10 2-3.5 2.5-7.7 4-11.9 2.9l-32.9-8.7c-5.1-1.4-10.4 1.7-11.7 6.8l-3.8 14.2 140.1 37.1 3.8-14.2c1.4-5.1-1.7-10.4-6.8-11.7z"/><rect x="106.8" y="421.2" transform="matrix(-.967 -.256 .256 -.967 231.375 883.753)" width="132.8" height="11.1" opacity=".1"/><rect x="175.7" y="384.8" transform="matrix(-.967 -.256 .256 -.967 262.99 807.544)" width="16.8" height="3.7" opacity=".1"/><rect x="233.2" y="6.2" transform="matrix(-.967 -.256 .256 -.967 415.65 456.088)" fill="#FCD700" width="8.6" height="389.6" opacity=".05"/><path fill="#FF8400" d="M285.3 3c-5.3-1.4-9.6-1.7-9.8-1l-3.4 12.8 18.9 5 3.4-12.8c.2-.9-3.8-2.6-9.1-4z"/><rect x="272.9" y="16.2" transform="matrix(-.967 -.256 .256 -.967 548.191 110.837)" width="16.8" height="7" opacity=".05"/><path d="M285 2.9l-3.8 14.3 9.4 2.5 3.4-12.8c.3-.9-3.9-2.6-9-4z" opacity=".05"/></svg>