<svg xmlns="http://www.w3.org/2000/svg" viewBox="0 0 500 500" enable-background="new 0 0 500 500"><ellipse opacity=".25" enable-background="new" cx="249.1" cy="481.8" rx="141.2" ry="11.5"/><path fill="#fff" d="M293.2 484.4c26.8.4 49.8-18.8 54.3-44.9l25.4-145.3c3.1-17.8-1-36.3-11.3-51.2l-7.6-10.7-8.2-30.3-11.5 2.3-118-167.8-68.2 390.6c-.6 3.1 1.6 5.9 4.5 7 13.7 4.5 20.3 26 16.8 41.6-.6 3.1 2.7 5.7 6.1 5.7l117.7 3zm-33.6-70.4l30.5-174.8c1.6-9.4 14.1-11.9 19.1-3.9l23 36.1c4.9 7.6 6.6 16.8 5.1 25.6l-22.9 131.1c-2 10.9-11.7 18.8-22.9 18.2l-6.6-.4c-16.3-.6-28.2-15.7-25.3-31.9z"/><polygon fill="#B3B9BA" points="192.4,4.7 118.8,426.1 143.4,426.5 212.1,32.8"/><polygon opacity=".15" fill="#737373" enable-background="new" points="132.5,426.3 143.4,426.5 212.1,32.8 203.4,20.3"/><path fill="#169ADB" d="M281.7 458.2c18.8.2 40.6-12.1 43.9-30.7l21.9-124.6c2.7-15.2-2.3-38.1-11.3-50.8l-60.2-85.7c-2.3-3.3-7.4-2.1-8.2 1.8-7.8 45.1-38.7 220.1-47.7 272.9-1.4 7.8 4.9 14.8 12.7 14.6 20.2-.6 48.9 2.5 48.9 2.5zm-22.1-44.2l30.5-174.8c1.6-9.4 14.1-11.9 19.1-3.9l23 36.1c4.9 7.6 6.6 16.8 5.1 25.6l-22.9 131.1c-2 10.9-11.7 18.8-22.9 18.2l-6.6-.4c-16.3-.6-28.2-15.7-25.3-31.9z"/><rect x="246.8" y="332" transform="matrix(.172 -.985 .985 .172 -104.534 549.535)" fill="#EDEDED" width="55.7" height="10"/><rect x="244.5" y="333.9" transform="matrix(.172 -.985 .985 .172 -105.987 546.869)" opacity=".15" fill="#737373" enable-background="new" width="55.7" height="5.3"/><polygon opacity=".75" fill="#fff" enable-background="new" points="135.8,419.5 203.4,32 199.8,28.3 131.3,421.1"/><rect x="254.4" y="70.5" transform="matrix(.818 -.575 .575 .818 -3.811 163.858)" fill="#106E9C" width="5.7" height="35"/><rect x="278.7" y="112" transform="matrix(.818 -.575 .575 .818 -19.36 184.135)" fill="#106E9C" width="5.7" height="21.3"/><polygon fill="#169ADB" points="351.9,231.1 334.4,204.5 343.9,200.8"/><path opacity=".25" d="M152.8 434.5c13.7 4.5 20.3 26 16.8 41.6-.6 2.3 1.2 4.3 3.5 5.3l29.7 1.2 25.6-428.5-11.9-17-68.2 390.6c-.6 2.9 1.5 5.7 4.5 6.8z"/><path opacity=".25" d="M318.6 404.7l-4.1 23.6c-2 10.9-11.7 18.8-22.9 18.2l-6.6-.4c-16.4-.8-28.3-15.8-25.6-32l1.6-24.8-98.8-42-14.1 80.1c-.6 3.1 1.6 5.9 4.5 7 13.7 4.5 20.3 26 16.8 41.6-.6 3.1 2.7 5.7 6.1 5.7l117.6 2.7c26.8.4 49.8-18.8 54.3-44.9l6.4-27.7-35.2-7.1z"/><path opacity=".05" enable-background="new" d="M171.1 461.9c.6 4.9.4 9.8-.4 14.1-.6 3.1 2.7 5.7 6.1 5.7l117.6 2.7c18.2.2 34.6-8.6 44.5-22.5h-167.8z"/></svg>