<svg xmlns="http://www.w3.org/2000/svg" viewBox="0 0 500 500" enable-background="new 0 0 500 500"><path fill="#043D5A" d="M373.6 148.5c-49.4-66-155.3-108.2-219.9-70.3 2.3-10.4-1.6-23.8-9.6-32-10.9-11.5-20.9-4.9-31.8 4.9s-18.8 18.6-7.8 30.1c7.6 8 20.5 12.9 31.4 11.9-49.8 49.8-40.8 152.5 6.4 215.4 51 68 107.6 38.7 171.7-5.5 63.7-44.2 110.3-86.6 59.6-154.5z"/><ellipse opacity=".25" enable-background="new" cx="250" cy="452.9" rx="167.6" ry="27"/><path opacity=".1" enable-background="new" d="M383.1 392.4c0 26.6-21.7 48.2-48.2 48.2h-166.2c-26.6 0-48.2-21.7-48.2-48.2v12.1c0 26.6 21.7 48.2 48.2 48.2h166.2c26.6 0 48.2-21.7 48.2-48.2v-12.1z"/><path fill="#FFB86B" d="M89 98.3l27 309.2c0 27 21.9 48.6 48.6 48.6h167.6c27 0 48.6-21.9 48.6-48.6l27.3-309.2h-319.1z"/><path opacity=".1" enable-background="new" d="M383.5 98.3l-25.8 295.1c0 25.6-20.9 46.5-46.5 46.5h-140.6c-25.6 0-46.5-20.9-46.5-46.5l-26-295.1h-9.1l27 309.2c0 27 21.9 48.6 48.6 48.6h167.6c27 0 48.6-21.9 48.6-48.6l27.3-309.2h-24.6z"/><polygon opacity=".1" enable-background="new" points="407,111.5 408.1,98.3 89,98.3 90.2,111.5"/><path opacity=".1" enable-background="new" d="M112 50.8c-3.5 3.1-6.4 6.3-8.8 9.4l50.6 7.6c-1-8-4.3-16-9.8-21.9-11.1-11.3-21-4.7-32 4.9zm60 19.9l133.2 20.1c-43.4-24-93.2-33.8-133.2-20.1z"/><path opacity=".1" enable-background="new" d="M317.3 98.3c-52.3-33.2-118.2-46.7-163.9-20 2.3-10.4-1.6-23.8-9.6-32-10.9-11.5-20.9-4.9-31.8 4.9s-18.8 18.6-7.8 30.1l213.1 17z"/><polygon fill="#319616" points="421.8,74 289.6,53.7 286.3,25.4 240.7,18.4 227.9,44.2 86.1,22.3 74.7,46.1 423.4,99.8"/><polygon opacity=".1" enable-background="new" points="286.3,25.4 240.7,18.4 227.9,44.2 289.6,53.7"/><polygon opacity=".1" enable-background="new" points="288.8,46.7 231.2,37.7 227.9,44.2 289.6,53.7"/><g opacity=".25"><rect x="114.9" y="127.9" transform="matrix(.996 -.095 .095 .996 -25.56 12.349)" width="5.1" height="295.7"/><rect x="156.7" y="127.6" transform="matrix(.998 -.063 .063 .998 -17.095 10.603)" width="5.1" height="296.5"/><rect x="198.7" y="127.5" transform="matrix(1 -.032 .032 1 -8.617 6.49)" width="5.1" height="297.5"/><rect x="240.5" y="127" width="5.1" height="298.8"/><rect x="285.9" y="127.1" transform="matrix(1 .03 -.03 1 8.281 -8.406)" width="5.1" height="297.7"/><rect x="331.5" y="127.2" transform="matrix(.998 .059 -.059 .998 16.868 -19.267)" width="5.1" height="296.5"/><rect x="377" y="127.2" transform="matrix(.996 .089 -.089 .996 25.858 -32.54)" width="5.1" height="295.7"/></g></svg>