<svg xmlns="http://www.w3.org/2000/svg" viewBox="0 0 500 500" enable-background="new 0 0 500 500"><ellipse opacity=".1" enable-background="new" cx="249.4" cy="456" rx="203.5" ry="35"/><rect x="226.7" y="8" fill="#E36966" width="86.9" height="200.4"/><rect x="290.6" y="8" opacity=".1" enable-background="new" width="23" height="200.4"/><rect x="92.3" y="38.9" fill="#FCD700" width="117" height="175.8"/><rect x="180.4" y="38.9" opacity=".1" enable-background="new" width="28.9" height="175.8"/><rect x="202.9" y="66.2" fill="#BBE9E5" width="192.4" height="175.8"/><rect x="334.3" y="66.2" opacity=".25" enable-background="new" width="60.9" height="175.8"/><polygon fill="#CC6A00" points="398,110.1 385.9,98.2 374,110.1 362,98.2 350.1,110.1 338.2,98.2 326.3,110.1 314.2,98.2 302.3,110.1 290.4,98.2 278.5,110.1 266.5,98.2 254.6,110.1 242.5,98.2 230.6,110.1 218.7,98.2 206.8,110.1 194.9,98.2 182.9,110.1 170.8,98.2 158.9,110.1 147,98.2 135.1,110.1 123.2,98.2 111.3,110.1 99.2,98.2 87.4,110.1 87.4,459.4 409.9,459.4 409.9,98.2"/><polygon opacity=".1" enable-background="new" points="398,110.1 385.9,98.2 374.9,109.2 374.9,428.9 409.9,459.4 409.9,98.2"/><polygon opacity=".25" enable-background="new" points="374.9,109.2 374,110.1 362,98.2 350.1,110.1 340.2,100.4 340.2,459.4 374.9,428.9"/><polygon opacity=".05" enable-background="new" points="87.4,360.9 87.4,459.4 340.2,459.4 340.2,223.4"/></svg>