<svg xmlns="http://www.w3.org/2000/svg" viewBox="0 0 500 500" enable-background="new 0 0 500 500"><ellipse opacity=".1" enable-background="new" cx="248.8" cy="483.3" rx="197.2" ry="13"/><path fill="#FFED87" d="M398.8 159.2l-299 1.5c-6 0-11 5-11 11l1.7 303.5c0 6 5 11 11 11l299-1.5c6 0 11-5 11-11l-1.7-303.5c0-6-4.7-11-11-11z"/><path opacity=".05" enable-background="new" d="M90.1 166.2v264.3h319v-261c-.5-5.7-5-10.2-10.7-10.2l-299 1.5c-4.3.2-7.6 2.2-9.3 5.4z"/><g opacity=".1"><circle cx="125.3" cy="206.7" r="23.7"/><circle cx="186.3" cy="206.5" r="23.7"/><circle cx="247.6" cy="206.2" r="23.7"/><circle cx="308.8" cy="206" r="23.7"/><circle cx="370.1" cy="205.5" r="23.7"/></g><g fill="#E36966"><circle cx="125.3" cy="202.7" r="23.7"/><circle cx="186.3" cy="202.5" r="23.7"/><circle cx="247.6" cy="202.2" r="23.7"/><circle cx="308.8" cy="202" r="23.7"/><circle cx="370.1" cy="201.5" r="23.7"/></g><path fill="#fff" d="M389.8 238.5l-280.2 1.5c-2.2 0-4.2 1.7-4 4.2l1 171.3c0 2.2 1.7 4.2 4.2 4l280.2-1.5c2.2 0 4.2-1.7 4-4.2l-1-171.3c.1-2.3-1.9-4-4.2-4z"/><path opacity=".25" fill="#000100" enable-background="new" d="M370.3 248l-241.2 1.2c-6.7 0-12.5 5.5-12.2 12.5l.7 135.5c0 6.7 5.5 12.5 12.5 12.2l241.2-1.2c6.7 0 12.5-5.5 12.2-12.5l-.7-135.5c0-6.7-5.5-12.2-12.5-12.2z"/><path fill="#6A7B87" d="M368.8 250.7l-237.5 1.3c-6.7 0-12.2 5.5-12.2 12.5l.7 130.5c0 6.7 5.5 12.5 12.2 12.2l237.5-1.2c6.7 0 12.2-5.5 12.2-12.5l-.6-130.5c0-6.8-5.5-12.5-12.3-12.3z"/><rect x="90.3" y="431.3" transform="matrix(-1 .005 -.005 -1 503.854 865.756)" opacity=".5" fill="#fff" enable-background="new" width="321" height="4.5"/><rect x="90.3" y="429.5" transform="matrix(-1 .005 -.005 -1 503.84 859.756)" opacity=".25" enable-background="new" width="321" height="2"/><g fill="#fff"><rect x="122.1" y="182.2" transform="matrix(-1 .005 -.005 -1 251.144 378.091)" width="6" height="14.2"/><rect x="183.3" y="182" transform="matrix(-1 .005 -.005 -1 373.633 377.282)" width="6" height="14.2"/><rect x="367.1" y="181" transform="matrix(-1 .005 -.005 -1 741.096 374.353)" width="6" height="14.2"/><rect x="305.8" y="181.5" transform="matrix(-1 .005 -.005 -1 618.611 375.663)" width="6" height="14.2"/><rect x="246.6" y="181.7" transform="matrix(-1 .005 -.005 -1 500.122 376.462)" width="6" height="14.2"/></g><g opacity=".8" fill="#fff"><rect x="123.1" y="380" transform="matrix(-1 .005 -.005 -1 498.845 762.187)" width="250.7" height="3.5"/><rect x="123.1" y="353" transform="matrix(-1 .005 -.005 -1 498.708 708.189)" width="250.7" height="3.5"/><rect x="122.8" y="326" transform="matrix(-1 .005 -.005 -1 498.071 654.196)" width="250.7" height="3.5"/><rect x="122.8" y="299" transform="matrix(-1 .005 -.005 -1 497.934 600.199)" width="250.7" height="3.5"/><rect x="122.6" y="272.2" transform="matrix(-1 .005 -.005 -1 497.302 546.707)" width="250.7" height="3.5"/></g><rect x="112.1" y="153" transform="matrix(-1 .005 -.005 -1 303.475 312.713)" fill="#6A7B87" width="78.5" height="7.5"/><rect x="209.6" y="152.5" transform="matrix(-1 .005 -.005 -1 498.456 311.223)" fill="#6A7B87" width="78.5" height="7.5"/><rect x="307.3" y="152" transform="matrix(-1 .005 -.005 -1 693.937 309.73)" fill="#6A7B87" width="78.5" height="7.5"/><g fill="#6A7B87"><path d="M156 44.9l-32.8.3c-4 0-7.5 3.5-7.5 7.5v.8c0 4 3.5 7.5 7.5 7.5l32.8-.3v-15.8z"/><path d="M339.2 59.8l32.8-.3c4 0 7.5-3.5 7.5-7.5v-.8c0-4-3.5-7.5-7.5-7.5l-32.8.3v15.8z"/></g><g opacity=".25"><polygon points="359.1,44.1 339.2,44.1 339.2,59.8 355.7,59.8"/><polygon points="136,45.1 156,44.9 156.3,60.8 139.7,60.8"/></g><path fill="#ccc" d="M247.2 15.3c-57.8.3-104.8 13.1-104.8 20l209.8-1.1c0-6.9-47.2-19.2-105-18.9z"/><path fill="#CC6A00" d="M250.9-1h-7.7c-2.9 0-5.1 2.9-4.3 5.9l3.5 10.7h9.3l3.5-10.7c.8-3-1.4-5.9-4.3-5.9z"/><path fill="#ccc" d="M352.5 37.1l-209.8 1.1 16.5 103.2c.3 1.3 1.3 2.1 2.4 2.1l173-.8c1.3 0 2.1-.8 2.4-2.1l15.5-103.5z"/></svg>