<svg xmlns="http://www.w3.org/2000/svg" viewBox="0 0 500 500" enable-background="new 0 0 500 500"><ellipse opacity=".1" enable-background="new" cx="204.2" cy="433.8" rx="187.3" ry="29.1"/><ellipse opacity=".1" enable-background="new" cx="397.8" cy="430.9" rx="68.7" ry="6.8"/><path fill="#fff" d="M471.6 282.6c-11.6-76.8-27.1-138.1-34.7-137l-53.3 8 41.8 278.1 53.3-8c7.6-1.1 4.5-64.3-7.1-141.1z"/><ellipse transform="matrix(.149 .989 -.989 .149 633.689 -150.704)" fill="#E89C25" cx="404.4" cy="292.7" rx="140.6" ry="14"/><ellipse transform="matrix(.149 .989 -.989 .149 633.689 -150.704)" opacity=".1" enable-background="new" cx="404.4" cy="292.7" rx="140.6" ry="14"/><path opacity=".1" enable-background="new" d="M429.3 396.2c-.9-25.9-4.7-63.7-11-105.6s-13.8-79.1-20.5-104.2c.9 25.9 4.7 63.7 11 105.6 6.2 42 13.7 79.2 20.5 104.2z"/><g opacity=".35" fill="#E89C25"><path d="M422.9 324c.6 5 1.2 10 1.8 14.8l57.8 45.2c-.2-4.4-.5-9.1-.8-14l-58.8-46z"/><path d="M429.3 416.1c-.3 5.4-.7 9.6-1.5 12.2l3.3 2.6 14.4-2.2-16.2-12.6z"/><path d="M427 362.4l55.7 43.6c.1-3.9.1-8.4 0-13.4l-57.1-44.7c.6 5 1 9.9 1.4 14.5z"/><path d="M409.6 239.9l62.9 49.2-.9-6.5-1.3-8.7-63.7-49.8c1 5.1 2 10.4 3 15.8z"/><path d="M419.6 299.6c.7 5.1 1.4 10.1 2.1 15l59.3 46.4c-.4-4.6-.8-9.5-1.3-14.4l-60.1-47z"/><path d="M427.8 371.4c.4 5 .7 9.7 1 14.2l49 38.3.9-.1c1.7-.3 2.9-3.8 3.5-9.8l-54.4-42.6z"/><path d="M429.2 394.3c.2 5 .3 9.6.3 13.6l24.9 19.5 14.4-2.2-39.6-30.9z"/><path d="M420.7 148.1l-14.4 2.2 46.9 36.7c-1.6-6.3-3.1-12-4.6-17l-27.9-21.9z"/><path d="M415.8 274.9c.8 5 1.6 10.1 2.4 15.3l60.5 47.3c-.5-4.8-1.1-9.7-1.7-14.7l-61.2-47.9z"/><path d="M397.3 151.6l-13.8 2.1c1.1-.2 2.4 1.2 3.9 3.6l71.9 56.2c-1.2-5.7-2.4-11.1-3.6-16.2l-58.4-45.7z"/><path d="M436.9 145.6l-7.2 1.1 15.3 12c-3.2-8.6-6-13.4-8.1-13.1z"/><path d="M392.7 169.8c1.6 4.8 3.4 10.8 5.2 17.5l66.4 51.9c-1-5.4-2-10.7-3-15.8l-68.6-53.6z"/><path d="M411.5 249.8c.9 5 1.8 10.2 2.7 15.5l61.7 48.2c-.6-4.9-1.3-9.9-2-15l-62.4-48.7z"/><path d="M400.6 197.7c1.3 5.1 2.5 10.5 3.8 16.4l64.3 50.3c-.9-5.3-1.7-10.4-2.6-15.5l-65.5-51.2z"/></g><g opacity=".35" fill="#E89C25"><path d="M440.5 148.8c-1.4-2.2-2.6-3.4-3.7-3.2l-8.2 1.2-31 39.6c1.1 4 2.2 8.3 3.3 12.9l39.6-50.5z"/><path d="M419.2 148.3l-15.2 2.3-12.5 15.9c1.3 3.4 2.6 7.5 3.9 12.1l23.8-30.3z"/><path d="M453.5 188c-1.1-4.6-2.3-8.9-3.4-12.8l-42.5 54.4c.9 4.4 1.8 9 2.7 13.7l43.2-55.3z"/><path d="M447.9 167.3c-1.4-4.6-2.8-8.6-4.1-11.9l-40.8 52.2c1 4.3 2 8.7 2.9 13.4l42-53.7z"/><path d="M463.3 426.1l19.5-25c0-4.9-.1-10.5-.4-16.7l-34.4 43.9 15.3-2.2z"/><path d="M383.5 153.7c1.5-.2 3.2 1.9 5.1 5.8l5.9-7.5-11 1.7z"/><path d="M458.5 209.5c-1-4.6-2-9.1-3-13.3l-43.6 55.8c.8 4.6 1.6 9.3 2.4 14l44.2-56.5z"/><path d="M482.4 412.4l-9.6 12.3 5.9-.9c1.9-.3 3.1-4.4 3.7-11.4z"/><path d="M429.4 413.7l50.5-64.5c-.5-4.9-1-9.9-1.6-15.1l-49 62.7c.2 6.3.3 12.1.1 16.9z"/><path d="M481.9 374.4c-.3-4.9-.7-10.2-1.2-15.7l-52.4 67c-.7 3.6-1.7 5.8-3 6l13.2-2 43.4-55.3z"/><path d="M477.3 324.7c-.6-4.8-1.2-9.8-1.8-14.8l-47.7 61c.4 5.6.8 10.8 1.1 15.8l48.4-62z"/><path d="M474.2 300.7c-.7-4.8-1.3-9.6-2.1-14.5l-46.7 59.8c.6 5.3 1.1 10.3 1.5 15.2l47.3-60.5z"/><path d="M467 254.2c-.8-4.8-1.6-9.4-2.5-14l-45.2 57.8c.7 4.9 1.4 9.8 2 14.5l45.7-58.3z"/><path d="M470.8 277.3c-.7-4.8-1.5-9.6-2.3-14.2l-45.9 58.7c.6 5.1 1.2 10 1.8 14.8l46.4-59.3z"/><path d="M462.9 231.6c-.9-4.7-1.8-9.3-2.7-13.7l-44.5 56.8c.8 4.7 1.5 9.4 2.2 14.3l45-57.4z"/></g><path fill="#FF887A" d="M317.6 109.6h-232.5c-38.1 0-69 30.9-69 69v186.3c0 38.1 30.9 69 69 69h232.5c38.1 0 69-30.9 69-69v-186.4c0-38.1-30.9-68.9-69-68.9z"/><rect x="39" y="178.5" opacity=".1" enable-background="new" width="324.7" height="186.3"/><rect x="39" y="178.5" fill="#fff" width="324.7" height="173.8"/><rect x="73.4" y="63.7" fill="#FF887A" width="255.7" height="49"/><rect x="73.4" y="63.7" opacity=".1" enable-background="new" width="255.7" height="49"/><rect x="66.1" y="85.1" fill="#FF887A" width="270.2" height="6.4"/><rect x="66.1" y="72.2" fill="#FF887A" width="270.2" height="6.4"/><rect x="66.1" y="98.5" fill="#FF887A" width="270.2" height="6.4"/><path opacity=".05" enable-background="new" d="M16.1 364.9c0 38.1 30.9 69 69 69h232.5c38.1 0 69-30.9 69-69v-186.4c0-10.6-2.6-20.6-6.9-29.6l-363.6 111v105z"/><path opacity=".05" enable-background="new" d="M16.1 364.9c0 38.1 30.9 69 69 69h232.5c38.1 0 69-30.9 69-69v-93.2l-370.5 62.2v31z"/><ellipse opacity=".1" enable-background="new" cx="203" cy="419.1" rx="187.3" ry="29.1"/><ellipse opacity=".1" enable-background="new" cx="396.6" cy="416.2" rx="68.7" ry="6.8"/><path fill="#fff" d="M470.4 267.9c-11.6-76.8-27.1-138.1-34.7-137l-53.3 8 41.8 278.1 53.3-8c7.6-1.1 4.5-64.3-7.1-141.1z"/><ellipse transform="matrix(.149 .989 -.989 .149 618.114 -161.999)" fill="#FF8400" cx="403.2" cy="278" rx="140.6" ry="14"/><ellipse transform="matrix(.149 .989 -.989 .149 618.114 -161.999)" opacity=".1" enable-background="new" cx="403.2" cy="278" rx="140.6" ry="14"/><path opacity=".1" enable-background="new" d="M428.1 381.5c-.9-25.9-4.7-63.7-11-105.6s-13.8-79.1-20.5-104.2c.9 25.9 4.7 63.7 11 105.6 6.2 42 13.7 79.2 20.5 104.2z"/><path fill="#EB9A98" d="M316.4 94.9h-232.5c-38.1 0-69 30.9-69 69v186.3c0 38.1 30.9 69 69 69h232.5c38.1 0 69-30.9 69-69v-186.4c0-38.1-30.9-68.9-69-68.9z"/><rect x="37.8" y="163.8" opacity=".1" enable-background="new" width="324.7" height="186.3"/><rect x="37.8" y="163.8" fill="#FCD700" width="324.7" height="173.8"/><rect x="72.2" y="49" fill="#EB9A98" width="255.7" height="49"/><rect x="72.2" y="49" opacity=".1" enable-background="new" width="255.7" height="49"/><rect x="64.9" y="70.4" fill="#EB9A98" width="270.2" height="6.4"/><rect x="64.9" y="57.5" fill="#EB9A98" width="270.2" height="6.4"/><rect x="64.9" y="83.8" fill="#EB9A98" width="270.2" height="6.4"/><path opacity=".05" enable-background="new" d="M14.9 350.2c0 38.1 30.9 69 69 69h232.5c38.1 0 69-30.9 69-69v-186.4c0-10.6-2.6-20.6-6.9-29.6l-363.6 111v105z"/><path opacity=".05" enable-background="new" d="M14.9 350.2c0 38.1 30.9 69 69 69h232.5c38.1 0 69-30.9 69-69v-93.2l-370.5 62.2v31z"/><g fill="#FF8400"><g opacity=".35"><path d="M421.7 309.3c.6 5 1.2 10 1.8 14.8l57.8 45.2c-.2-4.4-.5-9.1-.8-14l-58.8-46z"/><path d="M428.1 401.4c-.3 5.4-.7 9.6-1.5 12.2l3.3 2.6 14.4-2.2-16.2-12.6z"/><path d="M425.8 347.7l55.7 43.6c.1-3.9.1-8.4 0-13.4l-57.1-44.7c.6 5 1 9.9 1.4 14.5z"/><path d="M408.4 225.2l62.9 49.2-.9-6.5-1.3-8.7-63.7-49.8c1 5.1 2 10.4 3 15.8z"/><path d="M418.4 284.9c.7 5.1 1.4 10.1 2.1 15l59.3 46.4c-.4-4.6-.8-9.5-1.3-14.4l-60.1-47z"/><path d="M426.6 356.7c.4 5 .7 9.7 1 14.2l49 38.3.9-.1c1.7-.3 2.9-3.8 3.5-9.8l-54.4-42.6z"/><path d="M428 379.6c.2 5 .3 9.6.3 13.6l24.9 19.5 14.4-2.2-39.6-30.9z"/><path d="M419.5 133.4l-14.4 2.2 46.9 36.7c-1.6-6.3-3.1-12-4.6-17l-27.9-21.9z"/><path d="M414.6 260.2c.8 5 1.6 10.1 2.4 15.3l60.5 47.3c-.5-4.8-1.1-9.7-1.7-14.7l-61.2-47.9z"/><path d="M396.1 136.9l-13.8 2.1c1.1-.2 2.4 1.2 3.9 3.6l71.9 56.2c-1.2-5.7-2.4-11.1-3.6-16.2l-58.4-45.7z"/><path d="M435.7 130.9l-7.2 1.1 15.3 12c-3.2-8.6-6-13.4-8.1-13.1z"/><path d="M391.5 155.1c1.6 4.8 3.4 10.8 5.2 17.5l66.4 51.9c-1-5.4-2-10.7-3-15.8l-68.6-53.6z"/><path d="M410.3 235.1c.9 5 1.8 10.2 2.7 15.5l61.7 48.2c-.6-4.9-1.3-9.9-2-15l-62.4-48.7z"/><path d="M399.4 183c1.3 5.1 2.5 10.5 3.8 16.4l64.3 50.3c-.9-5.3-1.7-10.4-2.6-15.5l-65.5-51.2z"/></g><g opacity=".35"><path d="M439.3 134.1c-1.4-2.2-2.6-3.4-3.7-3.2l-8.2 1.2-31 39.6c1.1 4 2.2 8.3 3.3 12.9l39.6-50.5z"/><path d="M418 133.6l-15.2 2.3-12.5 15.9c1.3 3.4 2.6 7.5 3.9 12.1l23.8-30.3z"/><path d="M452.3 173.3c-1.1-4.6-2.3-8.9-3.4-12.8l-42.5 54.4c.9 4.4 1.8 9 2.7 13.7l43.2-55.3z"/><path d="M446.7 152.6c-1.4-4.6-2.8-8.6-4.1-11.9l-40.8 52.2c1 4.3 2 8.7 2.9 13.4l42-53.7z"/><path d="M462.1 411.4l19.5-25c0-4.9-.1-10.5-.4-16.7l-34.4 43.9 15.3-2.2z"/><path d="M382.3 139c1.5-.2 3.2 1.9 5.1 5.8l5.9-7.5-11 1.7z"/><path d="M457.3 194.8c-1-4.6-2-9.1-3-13.3l-43.6 55.8c.8 4.6 1.6 9.3 2.4 14l44.2-56.5z"/><path d="M481.2 397.7l-9.6 12.3 5.9-.9c1.9-.3 3.1-4.4 3.7-11.4z"/><path d="M428.2 399l50.5-64.5c-.5-4.9-1-9.9-1.6-15.1l-49 62.7c.2 6.3.3 12.1.1 16.9z"/><path d="M480.7 359.7c-.3-4.9-.7-10.2-1.2-15.7l-52.4 67c-.7 3.6-1.7 5.8-3 6l13.2-2 43.4-55.3z"/><path d="M476.1 310c-.6-4.8-1.2-9.8-1.8-14.8l-47.7 61c.4 5.6.8 10.8 1.1 15.8l48.4-62z"/><path d="M473 286c-.7-4.8-1.3-9.6-2.1-14.5l-46.7 59.8c.6 5.3 1.1 10.3 1.5 15.2l47.3-60.5z"/><path d="M465.8 239.5c-.8-4.8-1.6-9.4-2.5-14l-45.2 57.8c.7 4.9 1.4 9.8 2 14.5l45.7-58.3z"/><path d="M469.6 262.6c-.7-4.8-1.5-9.6-2.3-14.2l-45.9 58.7c.6 5.1 1.2 10 1.8 14.8l46.4-59.3z"/><path d="M461.7 216.9c-.9-4.7-1.8-9.3-2.7-13.7l-44.5 56.8c.8 4.7 1.5 9.4 2.2 14.3l45-57.4z"/></g></g></svg>