<svg xmlns="http://www.w3.org/2000/svg" viewBox="0 0 500 500" enable-background="new 0 0 500 500"><ellipse opacity=".05" enable-background="new" cx="381.9" cy="479.5" rx="46.5" ry="6.8"/><ellipse opacity=".05" enable-background="new" cx="77.4" cy="479.5" rx="46.5" ry="6.8"/><path fill="#A15300" d="M468.8 154.5s-.1-.3-.1-.4c-4.7-21-25.6-34.2-46.6-29.4-21 4.7-34.1 25.7-29.3 46.6 0 .1.1.4.1.4l.4-.1 68.7 303.8c1 3.8 6 5.8 11.8 4.5 5.8-1.3 9.7-5.4 8.8-9.1l-.2-.1-61.2-270.3-7.6-33.4h.1s-.1-.3-.1-.4c-2.1-9.4 3.8-18.8 13.1-20.9 9.4-2.1 18.8 3.9 20.9 13.3 0 .1.1.4.1.4v.4c.9 3.8 6.2 5.7 12 4.4 5.8-1.3 9.8-5.3 9-9.1.1-.4.1-.6.1-.6z"/><rect x="427" y="174.5" transform="matrix(.975 -.221 .221 .975 -59.72 104.431)" opacity=".25" enable-background="new" width="21" height="290"/><path fill="#FFD4A6" d="M332.1 368c1.8 0 3.3-1.6 3.3-3.3s-1.6-3.3-3.3-3.3h-203.2c-1.8 0-3.3 1.6-3.3 3.3s1.6 3.3 3.3 3.3h203.2z"/><path opacity=".15" fill="#695641" enable-background="new" d="M332.1 368c1.8 0 3.3-1.6 3.3-3.3s-1.6-3.3-3.3-3.3h-203.2c-1.8 0-3.3 1.6-3.3 3.3s1.6 3.3 3.3 3.3h203.2z"/><rect x="132.3" y="364.7" opacity=".15" enable-background="new" width="203.1" height="3.3"/><path fill="#E36966" d="M83 165h181.4l127.1 7.8v12.9c0 59.4-48.2 107.6-107.6 107.6h-115.3c-47.9 0-86.7-38.9-86.7-86.7 0 .1 1.1-40.2 1.1-41.6z"/><path opacity=".05" enable-background="new" d="M264.7 165h-8.6l124 7.6v12.7c.4 56.2-46.9 104.5-104.9 104.9h-112.7c-13.5 0-26.4-3.3-37.7-9 12.9 7.6 27.7 12.1 43.9 12.1h115.4c59.4 0 107.6-48.2 107.6-107.6v-12.9l-127-7.8z"/><path opacity=".05" fill="#f00" enable-background="new" d="M82.1 211.7c2.5 45.5 40.2 81.8 86.5 81.8h115.4c50.6 0 92.8-34.8 104.3-81.8h-306.2z"/><polygon opacity=".15" enable-background="new" points="258.6,293.2 246.9,293.2 225.2,272.1 236.8,272.1"/><path fill="#FFD4A6" d="M83.4 162.7c-1.8 0-3.3 1.6-3.3 3.3 0 1.8 1.6 3.3 3.3 3.3h202.9c1.8 0 3.3-1.6 3.3-3.3s-1.6-3.3-3.3-3.3h-202.9z"/><path fill="#C4E9BB" d="M229.7 10.9v161.9h161.9c0-89.4-72.4-161.9-161.9-161.9z"/><path fill="#1EC9BA" d="M169.6 22.5l60.2 150.4v-162c-20.2 0-40.5 3.8-60.2 11.6z"/><path fill="#1EC9BA" d="M341.1 55.3c-2.5-2.3-4.9-4.7-7.4-6.8-1.6-1.4-3.3-2.5-5.1-3.9-2.3-1.8-4.7-3.7-7.2-5.5-2.3-1.6-4.7-2.9-7-4.3-1.4-.8-2.7-1.8-4.1-2.5-.8-.4-1.4-.8-2.1-1.2-4.7-2.5-9.4-4.9-14.3-7l-64.1 148.8 114.4-114.5c-1-1-2.2-1.9-3.1-3.1z"/><path opacity=".15" enable-background="new" d="M80.1 166c.2 1.8 1.6 3.1 3.3 3.1h202.9c1.8 0 3.1-1.4 3.3-3.1h-209.5z"/><path fill="#FFD4A6" d="M173.3 21.1c-.6-1.8-2.5-2.5-4.3-2s-2.5 2.5-2 4.3l59.4 152c.6 1.8 2.5 2.5 4.3 2 1.8-.6 2.5-2.5 2-4.3l-59.4-152z"/><path opacity=".15" enable-background="new" d="M169.2 19.3c-1.6.8-2.3 2.5-1.8 4.1l59.4 152c.6 1.6 2.3 2.3 4.1 2l-61.7-158.1z"/><path fill="#1EC9BA" d="M390.9 157c0-.8-.2-1.6-.4-2.3-.2-1.6-.4-3.1-.8-4.9l-1.2-8.2c-.6-2.9-1.4-5.9-2.1-8.8l-1.6-6.2c-1-3.3-2.1-6.4-3.3-9.6l-1.6-4.1-150.4 60.2h161.9c.2-5.5 0-10.8-.5-16.1z"/><path fill="#FFD4A6" d="M378.9 421.3c2.3 2.3 6.4 2.3 8.8 0s2.3-6.4 0-8.8l-152-152c-2.3-2.3-6.4-2.3-8.8 0s-2.3 6.4 0 8.8l152 152z"/><polygon opacity=".15" enable-background="new" points="378.6,108.8 376.2,103.7 190.7,293.4 198.5,293.4"/><rect x="303.4" y="230.3" transform="matrix(.707 -.707 .707 .707 -145.665 312.142)" opacity=".75" fill="#FFFEFE" enable-background="new" width="1.2" height="203.1"/><rect x="243.2" y="172.9" opacity=".05" enable-background="new" width="148.4" height="4.7"/><rect x="300.6" y="238.3" transform="matrix(.707 -.707 .707 .707 -152.938 313.582)" opacity=".15" fill="#695641" enable-background="new" width="2.9" height="206.2"/><rect x="228.1" y="264" transform="matrix(-.707 .707 -.707 -.707 589.84 291.477)" opacity=".15" enable-background="new" width="12.9" height="7.8"/><path fill="#FFD4A6" d="M456.1 49c2.3-2.3 2.3-6.4 0-8.8-2.3-2.3-6.4-2.3-8.8 0l-372.5 372.3c-2.3 2.3-2.3 6.4 0 8.8 2.3 2.3 6.4 2.3 8.8 0l372.5-372.3z"/><rect x="262.7" y="-21.3" transform="matrix(-.707 -.707 .707 -.707 287.827 576.567)" opacity=".75" fill="#FFFEFE" enable-background="new" width="1.2" height="500"/><rect x="270.2" y="-20.9" transform="matrix(-.707 -.707 .707 -.707 300.59 585.892)" opacity=".15" fill="#695641" enable-background="new" width="2.9" height="503.1"/><circle fill="#E36966" cx="450.8" cy="44" r="15.8"/><circle opacity=".5" fill="#fff" cx="450.8" cy="44" r="7.8"/><circle fill="#727272" cx="231.7" cy="263.5" r="1.8"/><circle fill="#4D4743" cx="132.3" cy="363.1" r="1.8"/><circle fill="#727272" cx="198.5" cy="296.9" r="1.8"/><circle fill="#4D4743" cx="329.9" cy="363.1" r="1.8"/><circle fill="#727272" cx="263.3" cy="296.5" r="1.8"/><rect x="98.6" y="371.7" transform="matrix(-.707 -.707 .707 -.707 -98.369 742.901)" opacity=".15" enable-background="new" width="12.1" height="40.2"/><rect x="76.4" y="369.5" fill="#FFD4A6" width="3.9" height="92.6"/><rect x="32.1" y="413.9" fill="#FFD4A6" width="92.6" height="3.9"/><rect x="76.3" y="369.5" transform="matrix(-.707 -.707 .707 -.707 -160.366 765.223)" fill="#FFD4A6" width="3.9" height="92.6"/><rect x="76.3" y="369.4" transform="matrix(.707 -.707 .707 .707 -271.04 177.104)" fill="#FFD4A6" width="3.9" height="92.6"/><rect x="79.3" y="415.2" opacity=".5" fill="#FFFEFE" enable-background="new" width=".8" height="46.3"/><rect x="76.4" y="415.4" opacity=".1" fill="#695641" enable-background="new" width="1" height="46.3"/><rect x="76.4" y="369.7" opacity=".5" fill="#FFFEFE" enable-background="new" width=".8" height="46.3"/><rect x="78.9" y="369.5" opacity=".1" fill="#695641" enable-background="new" width="1" height="46.3"/><rect x="32.3" y="416.8" opacity=".5" fill="#FFFEFE" enable-background="new" width="46.3" height=".8"/><rect x="32.1" y="413.9" opacity=".1" fill="#695641" enable-background="new" width="46.3" height="1"/><rect x="77.8" y="413.9" opacity=".5" fill="#FFFEFE" enable-background="new" width="46.3" height=".8"/><rect x="78" y="416.4" opacity=".1" fill="#695641" enable-background="new" width="46.3" height="1"/><rect x="62.7" y="409.5" transform="matrix(.707 .707 -.707 .707 324.444 82.091)" opacity=".5" fill="#FFFEFE" enable-background="new" width=".8" height="46.3"/><rect x="60.5" y="407.9" transform="matrix(.707 .707 -.707 .707 322.66 83.086)" opacity=".1" fill="#695641" enable-background="new" width="1" height="46.3"/><rect x="92.8" y="375.4" transform="matrix(-.707 -.707 .707 -.707 -122.719 746.253)" opacity=".5" fill="#FFFEFE" enable-background="new" width=".8" height="46.3"/><rect x="94.8" y="377.1" transform="matrix(-.707 -.707 .707 -.707 -120.384 750.587)" opacity=".1" fill="#695641" enable-background="new" width="1" height="46.3"/><rect x="60.7" y="377.3" transform="matrix(-.707 .707 -.707 -.707 387.437 640.422)" opacity=".5" fill="#FFFEFE" enable-background="new" width=".8" height="46.3"/><rect x="62.3" y="375.2" transform="matrix(-.707 .707 -.707 -.707 388.829 635.659)" opacity=".1" fill="#695641" enable-background="new" width="1" height="46.3"/><rect x="94.8" y="407.6" transform="matrix(.707 -.707 .707 .707 -276.726 193.51)" opacity=".5" fill="#FFFEFE" enable-background="new" width=".8" height="46.3"/><rect x="93.1" y="409.7" transform="matrix(.707 -.707 .707 .707 -278.671 192.944)" opacity=".1" fill="#695641" enable-background="new" width="1" height="46.3"/><polygon fill="#695641" points="102.8,413.9 82.9,413.9 96.9,399.8 94.4,397.1 80.3,411.1 80.3,391.2 76.4,391.2 76.4,411.1 62.3,397.1 59.6,399.8 73.7,413.9 53.7,413.9 53.7,417.6 73.7,417.6 59.6,431.7 62.3,434.4 76.4,420.3 76.4,440.2 80.3,440.2 80.3,420.3 94.4,434.4 96.9,431.7 82.9,417.6 102.8,417.6" opacity=".15"/><path fill="#ccc" d="M78.4 352.2c-35.2 0-63.7 28.5-63.7 63.7s28.5 63.7 63.7 63.7 63.6-28.6 63.6-63.8-28.5-63.6-63.6-63.6zm0 105c-22.9 0-41.4-18.6-41.4-41.4s18.6-41.4 41.4-41.4 41.4 18.6 41.4 41.4-18.6 41.4-41.4 41.4z"/><circle fill="#BFBCB4" cx="78.4" cy="415.8" r="20.7"/><path opacity=".15" fill="#695641" enable-background="new" d="M93 430.5l-29.3-29.3c-8 8-8 21.3 0 29.3 7.4 7.4 18.7 8 27 2 .7-.7 1.5-1.4 2.3-2z"/><circle fill="#FFD4A6" cx="78.4" cy="415.8" r="13.3"/><circle opacity=".15" fill="#695641" enable-background="new" cx="78.4" cy="415.8" r="16"/><path opacity=".15" fill="#695641" enable-background="new" d="M91.6 415.8h-26.5c0 7.2 5.9 13.3 13.3 13.3s13.2-6 13.2-13.3z"/><path opacity=".15" fill="#695641" enable-background="new" d="M78.4 368.4c-26.2 0-47.5 21.3-47.5 47.5s21.3 47.5 47.5 47.5 47.5-21.3 47.5-47.5c-.1-26.2-21.4-47.5-47.5-47.5zm0 88.8c-22.9 0-41.4-18.6-41.4-41.4s18.6-41.4 41.4-41.4 41.4 18.6 41.4 41.4-18.6 41.4-41.4 41.4z"/><rect x="349.3" y="369.3" transform="matrix(-.707 .707 -.707 -.707 881.968 413.545)" opacity=".15" enable-background="new" width="12.1" height="40.2"/><rect x="333" y="413.9" fill="#FFD4A6" width="92.6" height="3.9"/><rect x="377.4" y="369.5" fill="#FFD4A6" width="3.9" height="92.6"/><rect x="377.4" y="369.5" transform="matrix(-.707 .707 -.707 -.707 941.624 441.525)" fill="#FFD4A6" width="3.9" height="92.6"/><rect x="377.3" y="369.5" transform="matrix(-.707 -.707 .707 -.707 353.416 978.056)" fill="#FFD4A6" width="3.9" height="92.6"/><rect x="378.7" y="414.1" opacity=".5" fill="#FFFEFE" enable-background="new" width="46.3" height=".8"/><rect x="378.9" y="416.8" opacity=".1" fill="#695641" enable-background="new" width="46.3" height="1"/><rect x="333.2" y="417" opacity=".5" fill="#FFFEFE" enable-background="new" width="46.3" height=".8"/><rect x="333" y="414.1" opacity=".1" fill="#695641" enable-background="new" width="46.3" height="1"/><rect x="380.3" y="415.4" opacity=".5" fill="#FFFEFE" enable-background="new" width=".8" height="46.3"/><rect x="377.4" y="415.8" opacity=".1" fill="#695641" enable-background="new" width="1" height="46.3"/><rect x="377.4" y="370.1" opacity=".5" fill="#FFFEFE" enable-background="new" width=".8" height="46.3"/><rect x="379.9" y="369.7" opacity=".1" fill="#695641" enable-background="new" width="1" height="46.3"/><rect x="395.8" y="407.9" transform="matrix(.707 -.707 .707 .707 -188.749 406.389)" opacity=".5" fill="#FFFEFE" enable-background="new" width=".8" height="46.3"/><rect x="394" y="410" transform="matrix(.707 -.707 .707 .707 -190.694 405.823)" opacity=".1" fill="#695641" enable-background="new" width="1" height="46.3"/><rect x="361.7" y="377.7" transform="matrix(-.707 .707 -.707 -.707 901.608 428.213)" opacity=".5" fill="#FFFEFE" enable-background="new" width=".8" height="46.3"/><rect x="363.3" y="375.6" transform="matrix(-.707 .707 -.707 -.707 903 423.45)" opacity=".1" fill="#695641" enable-background="new" width="1" height="46.3"/><rect x="363.7" y="410" transform="matrix(.707 .707 -.707 .707 412.875 -130.577)" opacity=".5" fill="#FFFEFE" enable-background="new" width=".8" height="46.3"/><rect x="361.5" y="408" transform="matrix(.707 .707 -.707 .707 410.896 -129.664)" opacity=".1" fill="#695641" enable-background="new" width="1" height="46.3"/><rect x="393.7" y="375.7" transform="matrix(-.707 -.707 .707 -.707 390.743 959.639)" opacity=".5" fill="#FFFEFE" enable-background="new" width=".8" height="46.3"/><rect x="396" y="377.4" transform="matrix(-.707 -.707 .707 -.707 393.551 964.169)" opacity=".1" fill="#695641" enable-background="new" width="1" height="46.3"/><polygon fill="#695641" points="403.7,413.9 383.8,413.9 397.9,399.8 395.4,397.1 381.3,411.1 381.3,391.2 377.4,391.2 377.4,411.1 363.3,397.1 360.6,399.8 374.6,413.9 354.7,413.9 354.7,417.6 374.6,417.6 360.6,431.7 363.3,434.4 377.4,420.3 377.4,440.2 381.3,440.2 381.3,420.3 395.4,434.4 397.9,431.7 383.8,417.6 403.7,417.6" opacity=".15"/><path fill="#ccc" d="M315.7 415.8c0 35.2 28.5 63.7 63.7 63.7s63.6-28.5 63.6-63.7-28.5-63.7-63.7-63.7-63.6 28.6-63.6 63.7zm105 0c0 22.9-18.6 41.4-41.4 41.4-22.9 0-41.4-18.6-41.4-41.4s18.6-41.4 41.4-41.4c22.9 0 41.4 18.6 41.4 41.4z"/><circle fill="#BFBCB4" cx="379.3" cy="415.8" r="20.7"/><path opacity=".15" fill="#695641" enable-background="new" d="M394 401.2l-29.3 29.3c8 8 21.3 8 29.3 0 7.4-7.4 8-18.8 2-27-.6-1-1.2-1.7-2-2.3z"/><circle fill="#FFD4A6" cx="379.3" cy="415.8" r="13.3"/><circle opacity=".15" fill="#695641" enable-background="new" cx="379.3" cy="415.8" r="16"/><path opacity=".15" fill="#695641" enable-background="new" d="M392.6 415.8h-26.6c0 7.2 5.9 13.3 13.3 13.3 7.3-.2 13.3-6 13.3-13.3z"/><path opacity=".15" fill="#695641" enable-background="new" d="M331.9 415.8c0 26.2 21.3 47.5 47.5 47.5s47.5-21.3 47.5-47.5-21.3-47.5-47.5-47.5c-26.2.1-47.5 21.4-47.5 47.5zm88.8 0c0 22.9-18.6 41.4-41.4 41.4-22.9 0-41.4-18.6-41.4-41.4s18.6-41.4 41.4-41.4c22.9 0 41.4 18.6 41.4 41.4z"/><path opacity=".15" enable-background="new" d="M230.5 151.4c-2.9 0-5.9.8-8.4 2.1l5.9 12.7h-15.6c-.4 1.4-.8 2.5-.8 4.1 0 10.4 8.4 18.8 18.8 18.8s18.8-8.4 18.8-18.8c.1-10.5-8.3-18.9-18.7-18.9z"/><circle fill="#D6D6D6" cx="230.5" cy="170.1" r="16.4"/><path opacity=".15" fill="#1F1915" enable-background="new" d="M242.2 181.8l-23.2-23.2c-6.4 6.4-6.4 16.8 0 23.2 5.9 5.9 15 6.4 21.5 1.6.4-.6 1.1-1 1.7-1.6z"/><circle fill="#FFD4A6" cx="230.5" cy="170.1" r="10.5"/><circle opacity=".15" fill="#1F1915" enable-background="new" cx="230.5" cy="170.1" r="12.7"/><path opacity=".15" fill="#1F1915" enable-background="new" d="M241.1 170.1h-21.1c0 5.9 4.7 10.5 10.5 10.5 5.9.1 10.6-4.6 10.6-10.5z"/><path fill="#fff" d="M452.6 44c.6-1-.4-1.8-1.8-1.8-1 0-1.8.8-1.8 1.8s.8 1.8 1.8 1.8 1.4-1.1 1.8-1.8z"/><path opacity=".15" fill="#695641" enable-background="new" d="M461.8 54.5l-22.1-22.1c-6.1 6.1-6.1 16 0 22.1 6 6.1 16 6.1 22.1 0z"/></svg>