<svg xmlns="http://www.w3.org/2000/svg" viewBox="0 0 500 500" enable-background="new 0 0 500 500"><path fill="#BBE9E5" d="M250.2 86.2c-124.1 0-224.7 6.3-224.7 13.9v.2h-.3v12.5l7 6.1v105.6l-7 5.2v6.7c0 106.5 86.6 175.9 193.1 175.9h63c106.5 0 192.9-69.4 192.9-175.9v-6.7l-7-5.2v-105.6l7-6.1v-11.9l.5-1c.1-7.6-100.5-13.7-224.5-13.7z"/><ellipse fill="#16968B" cx="250.1" cy="102.1" rx="212.9" ry="11.5"/><path fill="#F4B58B" d="M251.9 407.5"/><path opacity=".1" d="M198.6 403.9c-11.5-82.9-81.4-130.6-166.7-133.3 15.4 80.6 83.3 126.3 166.7 133.3z"/><path opacity=".1" d="M302.5 403.9c11.5-82.9 81.4-130.6 166.7-133.3-15.4 80.6-83.3 126.3-166.7 133.3z"/><path opacity=".1" fill="#574328" enable-background="new" d="M65.3 131.2h-33.4v93.3l-6.6 7.3h10.6c29.2 0 52.8-23.7 52.8-52.8v-24.4c.1-12.9-10.5-23.4-23.4-23.4z"/><path opacity=".1" fill="#574328" enable-background="new" d="M464.1 231.8h10.6l-7.2-7.3-.4-93.3h-32.5c-12.9 0-23.3 10.4-23.3 23.3v24.4c.1 29.2 23.7 52.9 52.8 52.9z"/><path fill="#82E5DD" d="M73.9 118.9h-42v105.6h11.1c30.6 0 55.5-24.8 55.5-55.5v-25.6c-.1-13.5-11.1-24.5-24.6-24.5z"/><path fill="#82E5DD" d="M456.5 224.5h11.1v-105.6h-42.1c-13.5 0-24.5 11-24.5 24.5v25.6c0 30.6 24.9 55.5 55.5 55.5z"/><path fill="#F4B58B" d="M251.9 118.9"/><g opacity=".1"><rect x="110.2" y="131.3" width="9" height="67"/><rect x="129.2" y="131.3" width="7" height="67"/><rect x="147.2" y="131.3" width="8" height="67"/><rect x="164.2" y="131.3" width="9" height="67"/><rect x="183.2" y="131.3" width="7" height="67"/><rect x="201.2" y="131.3" width="7" height="67"/><rect x="218.2" y="131.3" width="9" height="67"/><rect x="237.2" y="131.3" width="7" height="67"/><rect x="255.2" y="131.3" width="7" height="67"/><rect x="272.2" y="131.3" width="9" height="67"/><rect x="290.2" y="131.3" width="8" height="67"/><rect x="309.2" y="131.3" width="7" height="67"/><rect x="326.2" y="131.3" width="9" height="67"/><rect x="344.2" y="131.3" width="8" height="67"/><rect x="363.2" y="131.3" width="7" height="67"/><rect x="380.2" y="131.3" width="8" height="67"/></g></svg>