<svg xmlns="http://www.w3.org/2000/svg" viewBox="0 0 500 500" enable-background="new 0 0 500 500"><rect x="94" y="394.5" fill="#FFFFA4" width="307.5" height="96"/><g fill="#5ABA47"><circle cx="190" cy="485" r="7.6"/><rect x="175.2" y="484.7" width="14.8" height="8"/><circle cx="175.2" cy="477.4" r="15.2"/><circle cx="160" cy="481.2" r="11.5"/><rect x="160" y="484.7" width="14.8" height="8"/></g><g fill="#5ABA47"><circle cx="413.8" cy="485" r="7.6"/><rect x="399" y="484.7" width="14.8" height="8"/><circle cx="399" cy="477.4" r="15.2"/><circle cx="383.8" cy="481.2" r="11.5"/><rect x="383.8" y="484.7" width="14.8" height="8"/></g><rect x="69.7" y="490.5" opacity=".1" width="365" height="2.1"/><rect x="121.4" y="406.3" fill="#D37728" width="67.3" height="44.7"/><rect x="124.9" y="409.8" fill="#8DD0BA" width="60.2" height="37.6"/><rect x="154.2" y="408.8" fill="#D37728" width="2.8" height="42.2"/><polygon opacity=".1" points="185.4,454.3 119.7,450.7 117.8,454.3 117.8,461.1 121,465.4 185.4,465.4"/><rect x="119.5" y="450.7" fill="#FCF9C3" width="69.6" height="10.4"/><rect x="313.1" y="406.3" fill="#D37728" width="67.3" height="44.7"/><rect x="316.7" y="409.8" fill="#8DD0BA" width="60.2" height="37.6"/><rect x="345.9" y="408.8" fill="#D37728" width="2.8" height="42.2"/><polygon opacity=".1" points="377.1,454.3 311.4,450.7 309.6,454.3 309.6,461.1 312.8,465.4 377.1,465.4"/><rect x="311.2" y="450.7" fill="#FCF9C3" width="69.6" height="10.4"/><rect x="214.5" y="395.3" opacity=".1" width="76.7" height="93.4"/><rect x="214.5" y="396.4" opacity=".1" width="76.7" height="4.9"/><rect x="231.6" y="409" fill="#F8951D" width="41.2" height="81.1"/><rect x="234.1" y="412.1" fill="#D37728" width="36.2" height="78"/><circle fill="#BCBBAC" cx="265.8" cy="453.7" r="2.3"/><rect x="208.5" y="488.7" fill="#FCF9C3" width="88.6" height="7"/><polygon fill="#F8951D" points="365.7,341.3 130.1,341.1 65.3,396 430.3,396"/><rect x="174.4" y="326.2" fill="#FFFFA4" width="146.8" height="57.4"/><rect x="165.6" y="320.6" fill="#F8951D" width="164.3" height="8.2"/><rect x="182.6" y="332.6" fill="#D37728" width="67.3" height="44.7"/><rect x="186.1" y="336.1" fill="#8DD0BA" width="60.2" height="37.6"/><rect x="215.3" y="335.1" fill="#D37728" width="2.8" height="42.2"/><rect x="246.4" y="332.6" fill="#D37728" width="67.3" height="44.7"/><rect x="249.9" y="336.1" fill="#8DD0BA" width="60.2" height="37.6"/><rect x="279.1" y="335.1" fill="#D37728" width="2.8" height="42.2"/></svg>