<svg xmlns="http://www.w3.org/2000/svg" viewBox="0 0 500 500" enable-background="new 0 0 500 500"><rect x="292.2" y="258.1" fill="#FFFFA4" width="133.8" height="57.4"/><rect x="284.3" y="252.4" fill="#F8951D" width="149.7" height="8.2"/><rect x="299.7" y="264.4" fill="#D37728" width="61.4" height="44.7"/><rect x="302.9" y="268" fill="#8DD0BA" width="54.9" height="37.6"/><rect x="329.5" y="266.9" fill="#D37728" width="2.6" height="42.2"/><rect x="357.8" y="264.4" fill="#D37728" width="61.4" height="44.7"/><rect x="361.1" y="268" fill="#8DD0BA" width="54.9" height="37.6"/><rect x="387.7" y="266.9" fill="#D37728" width="2.6" height="42.2"/><polygon fill="#FFFFA4" points="424.3,317 279.9,317 279.9,373.6 83.2,373.6 83.2,487.2 424.3,487.2"/><g fill="#5ABA47"><circle cx="439.5" cy="481.8" r="7.6"/><rect x="424.7" y="481.4" width="14.8" height="8"/><circle cx="424.7" cy="474.1" r="15.2"/><circle cx="409.5" cy="477.9" r="11.5"/><rect x="409.5" y="481.4" width="14.8" height="8"/></g><rect x="65.3" y="487.2" opacity=".1" width="420.5" height="2.1"/><rect x="321.2" y="393.1" opacity=".1" width="76.7" height="4.9"/><polygon opacity=".1" points="397.9,489.9 321.2,489.9 321.2,393.1 397.9,393.1"/><rect x="338.3" y="405.7" fill="#F8951D" width="41.2" height="81.1"/><rect x="340.8" y="408.8" fill="#D37728" width="36.2" height="78"/><circle fill="#BCBBAC" cx="372.5" cy="450.4" r="2.3"/><rect x="315.2" y="485.4" fill="#FCF9C3" width="88.6" height="7"/><rect x="83.1" y="317" fill="#FFFFA4" width="202.3" height="60.8"/><rect x="74.4" y="311.4" fill="#F8951D" width="362" height="8.2"/><rect x="95.1" y="390.9" fill="#D37728" width="198" height="96.3"/><rect x="95.1" y="395.5" opacity=".1" width="198" height="1.3"/><rect x="95.1" y="400.8" opacity=".1" width="198" height="1.3"/><rect x="95.1" y="406.2" opacity=".1" width="198" height="1.3"/><rect x="95.1" y="411.5" opacity=".1" width="198" height="1.3"/><rect x="95.1" y="416.9" opacity=".1" width="198" height="1.3"/><rect x="95.1" y="422.3" opacity=".1" width="198" height="1.3"/><rect x="95.1" y="427.6" opacity=".1" width="198" height="1.3"/><rect x="95.1" y="433" opacity=".1" width="198" height="1.3"/><rect x="95.1" y="438.3" opacity=".1" width="198" height="1.3"/><rect x="95.1" y="443.7" opacity=".1" width="198" height="1.3"/><rect x="95.1" y="449.1" opacity=".1" width="198" height="1.3"/><rect x="95.1" y="454.4" opacity=".1" width="198" height="1.3"/><rect x="95.1" y="459.8" opacity=".1" width="198" height="1.3"/><rect x="95.1" y="465.1" opacity=".1" width="198" height="1.3"/><rect x="95.1" y="470.5" opacity=".1" width="198" height="1.3"/><rect x="95.1" y="475.9" opacity=".1" width="198" height="1.3"/><rect x="95.1" y="481.2" opacity=".1" width="198" height="1.3"/><rect x="153" y="334.4" fill="#D37728" width="68.7" height="38.4"/><rect x="156.6" y="337.4" fill="#8DD0BA" width="61.4" height="32.3"/><rect x="186.4" y="336.6" fill="#D37728" width="2.9" height="36.2"/><rect x="90.7" y="334.4" fill="#D37728" width="68.7" height="38.4"/><rect x="94.4" y="337.4" fill="#8DD0BA" width="61.4" height="32.3"/><rect x="124.1" y="336.6" fill="#D37728" width="2.9" height="36.2"/><rect x="218.1" y="334.4" fill="#D37728" width="68.7" height="38.4"/><rect x="221.7" y="337.4" fill="#8DD0BA" width="61.4" height="32.3"/><rect x="251.5" y="336.6" fill="#D37728" width="2.9" height="36.2"/><rect x="283.1" y="334.4" fill="#D37728" width="68.7" height="38.4"/><rect x="286.8" y="337.4" fill="#8DD0BA" width="61.4" height="32.3"/><rect x="316.5" y="336.6" fill="#D37728" width="2.9" height="36.2"/><rect x="348.2" y="334.4" fill="#D37728" width="68.7" height="38.4"/><rect x="351.8" y="337.4" fill="#8DD0BA" width="61.4" height="32.3"/><rect x="381.6" y="336.6" fill="#D37728" width="2.9" height="36.2"/></svg>