<svg xmlns="http://www.w3.org/2000/svg" viewBox="0 0 400 400" enable-background="new 0 0 400 400"><path fill="#BBE9E5" d="M372.4 41.5l-271.9-14.4-1.8 300 273.4 5.3c1.8 0 3.3-1.4 3.3-3.2l1.4-283c.1-2.6-1.9-4.7-4.4-4.7z"/><path opacity=".25" d="M372.4 41.5l-271.9-14.4-1.8 300 273.4 5.3c1.8 0 3.3-1.4 3.3-3.2l1.4-283c.1-2.6-1.9-4.7-4.4-4.7z"/><rect x="99.5" y="259.7" transform="matrix(1 .019 -.019 1 5.569 -4.523)" opacity=".1" width="276.7" height="55"/><rect x="100.6" y="226.4" transform="matrix(1 .019 -.019 1 4.527 -4.553)" opacity=".1" width="276.7" height="13.3"/><path fill="#E36966" d="M336.4 47.4l-271.9-14.4-1.8 303.3 273.7 1.1c1.7 0 3-1.3 3.1-3l1.4-282.4c0-2.4-2-4.5-4.5-4.6z"/><path opacity=".25" d="M336.4 47.4l-271.9-14.4-1.8 299.1 273.6 5.3c1.7 0 3-1.3 3.1-3l1.4-282.4c.1-2.4-1.9-4.5-4.4-4.6z"/><rect x="63.6" y="265.7" transform="matrix(1 .019 -.019 1 5.677 -3.83)" opacity=".1" width="276.7" height="55"/><rect x="64.6" y="232.3" transform="matrix(1 .019 -.019 1 4.635 -3.86)" opacity=".1" width="276.7" height="13.3"/><path fill="#FFB86B" d="M306.8 46.9l-276.6-5.4-1.8 303.3 273.4 1.1c1.8 0 3.4-1.4 3.4-3.3l1.6-295.7z"/><path opacity=".1" d="M306.8 46.9l-276.6-5.4-1.8 299.1 272.5 5.2c2.3 0 4.2-1.8 4.2-4.1l1.7-294.8z"/><rect x="29.2" y="274.2" transform="matrix(1 .019 -.019 1 5.834 -3.168)" opacity=".1" width="276.7" height="55"/><rect x="30.3" y="240.8" transform="matrix(1 .019 -.019 1 4.793 -3.198)" opacity=".1" width="276.7" height="13.3"/><polygon fill="#ccc" points="397.1,75.3 1.2,77.7 1.7,51.8 397.6,49.4"/><polygon opacity=".1" points="397.1,75.3 1.2,77.7 1.4,66.8 397.3,64.4"/><polygon opacity=".75" fill="#fff" points="397.4,60.3 1.4,62.7 1.5,58.5 397.5,56.1"/><path fill="#FFB86B" d="M296.8 46.7l-269.2-5.2c-4.1-.1-7.5 3.2-7.6 7.3l-1.6 292.2c0 2.1 1.6 3.7 3.6 3.8l269.2 5.2c2.1 0 3.7-1.6 3.8-3.6l1.5-288.4c0-2.1 1.7-3.7 3.8-3.6h2.6c2.1 0 3.7-1.6 3.8-3.6v-.1c0-2.1-1.6-3.7-3.6-3.8l-6.3-.2z"/><rect x="19.2" y="274" transform="matrix(1 .019 -.019 1 5.829 -2.975)" opacity=".1" width="276.7" height="55"/><rect x="20.3" y="240.6" transform="matrix(1 .019 -.019 1 4.787 -3.005)" opacity=".1" width="276.7" height="13.3"/><path opacity=".1" d="M308.2 46.9l-263-5.1-1.8 299.2 257.9 5c2.1 0 3.8-1.6 3.8-3.7l1.5-287.9 10.8.2.1-7.5-9.3-.2z"/><path opacity=".1" d="M325.2 341.9c2.1 0 3.7-1.6 3.8-3.6l4.5-232.7-278.6 96.3-2.5 131c0 2.1 1.6 3.7 3.6 3.8l269.2 5.2z"/><rect x="296.4" y="54.3" transform="matrix(1 .019 -.019 1 1.348 -5.787)" opacity=".1" width="10" height="25.8"/><path opacity=".1" d="M290.9 351c2.1 0 3.7-1.6 3.8-3.6l3.2-187.1-277.7 91-2.2 90.8c0 2.1 1.6 3.7 3.6 3.8l269.3 5.1z"/><path fill="#E36966" d="M331 47.3l-272.8-14.4c-2.1 0-3.7 1.6-3.8 3.6l-1.7 295.9c0 2.1 1.6 3.7 3.6 3.8l269.2 5.2c2.1 0 3.7-1.6 3.8-3.6l1.4-279.2c0-2.1 1.7-3.7 3.8-3.6h2.6c2.1 0 3.7-1.6 3.8-3.6v-.1c0-2.1-1.6-3.7-3.6-3.8l-6.3-.2z"/><path opacity=".1" d="M330.2 47.3l-245.3-13.9c-2.1 0-3.7 1.6-3.8 3.6l-1.6 290c0 2.1 1.6 3.7 3.6 3.8l241.7 4.7c2.1 0 3.7-1.6 3.8-3.6l1.3-273.4c0-2.1 1.7-3.7 3.8-3.6h2.6c2.1 0 3.7-1.6 3.8-3.6v-.1c0-2.1-1.6-3.7-3.6-3.8l-6.3-.1z"/><rect x="53.6" y="265.5" transform="matrix(1 .019 -.019 1 5.672 -3.638)" opacity=".1" width="276.7" height="55"/><rect x="54.6" y="232.1" transform="matrix(1 .019 -.019 1 4.63 -3.668)" opacity=".1" width="276.7" height="13.3"/><path opacity=".1" d="M325.9 342.7c2.1 0 3.7-1.6 3.8-3.6l2.3-206.1-277.7 90.5-1.3 110.2c0 2.1 1.6 3.7 3.6 3.8l269.3 5.2z"/><path fill="#82E5DD" d="M366.9 41.3l-272.7-14.4c-2.1 0-3.7 1.6-3.8 3.6l-1.7 295.9c0 2.1 1.6 3.7 3.6 3.8l269.2 5.2c2.1 0 3.7-1.6 3.8-3.6l1.4-279.2c0-2.1 1.7-3.7 3.8-3.6h2.6c2.1 0 3.7-1.6 3.8-3.6v-.1c0-2.1-1.6-3.7-3.6-3.8l-6.4-.2z"/><rect x="89.5" y="259.5" transform="matrix(1 .019 -.019 1 5.563 -4.33)" opacity=".1" width="276.7" height="55"/><rect x="90.6" y="226.2" transform="matrix(1 .019 -.019 1 4.521 -4.36)" opacity=".1" width="276.7" height="13.3"/><rect x="366.5" y="49.8" transform="matrix(-1 -.019 .019 -1 741.8 132.516)" opacity=".25" width="10" height="25.8"/><rect x="9.7" y="52.1" transform="matrix(-1 -.019 .019 -1 28.229 130.258)" opacity=".25" width="10" height="25.8"/><path opacity=".1" d="M362.3 336.1c2.1 0 3.7-1.6 3.8-3.6l1.2-118.5-276.8 73.2-1 39.9c0 2.1 1.6 3.7 3.6 3.8l269.2 5.2z"/><path opacity=".25" fill="#fff" d="M371.8 42.9l-6.3-.1-272.7-14.4c-2.1 0-3.7 1.6-3.8 3.6l-1.2 60 278.5-21-1-17c0-2.1 1.7-3.7 3.8-3.6h2.6c2.1 0 3.7-1.6 3.8-3.6v-.1c0-2-1.6-3.7-3.7-3.8z"/></svg>